SplineFontDB: 3.2
FontName: AtkinsonHyperPro-BoldItalic
FullName: Atkinson Hyperlegible Pro Bold Italic
FamilyName: Atkinson Hyperlegible Pro
Weight: Bold
Copyright: Copyright 2020 Braille Institute of America, Inc.
UComments: "Update by Jacob Perez+AAoA-https://jacobxperez.github.io/atkinson-hyperlegible-pro/"
Version: 1.4.1
ItalicAngle: -12
UnderlinePosition: -106
UnderlineWidth: 57
Ascent: 800
Descent: 200
InvalidEm: 0
sfntRevision: 0x00010000
LayerCount: 2
Layer: 0 0 "Back" 1
Layer: 1 0 "Fore" 0
XUID: [1021 466 782043844 14962]
StyleMap: 0x0021
FSType: 0
OS2Version: 4
OS2_WeightWidthSlopeOnly: 0
OS2_UseTypoMetrics: 1
CreationTime: 1618935638
ModificationTime: 1700109117
PfmFamily: 81
TTFWeight: 700
TTFWidth: 5
LineGap: 0
VLineGap: 0
Panose: 0 0 0 0 0 0 0 0 0 0
OS2TypoAscent: 950
OS2TypoAOffset: 0
OS2TypoDescent: -290
OS2TypoDOffset: 0
OS2TypoLinegap: 0
OS2WinAscent: 950
OS2WinAOffset: 0
OS2WinDescent: 290
OS2WinDOffset: 0
HheadAscent: 950
HheadAOffset: 0
HheadDescent: -290
HheadDOffset: 0
OS2SubXSize: 650
OS2SubYSize: 699
OS2SubXOff: 0
OS2SubYOff: 140
OS2SupXSize: 650
OS2SupYSize: 699
OS2SupXOff: 0
OS2SupYOff: 479
OS2StrikeYSize: 49
OS2StrikeYPos: 258
OS2CapHeight: 668
OS2XHeight: 496
OS2Vendor: 'NONE'
OS2CodePages: 20000003.00000000
OS2UnicodeRanges: 800000ef.0000204b.00000000.00000000
Lookup: 4 0 1 "'liga' Standard Ligatures lookup 0" { "'liga' Standard Ligatures lookup 0-1"  } ['liga' ('DFLT' <'dflt' > 'grek' <'dflt' > 'latn' <'MOL ' 'dflt' > ) ]
Lookup: 1 0 0 "'zero' Slashed Zero lookup 0" { "'zero' Slashed Zero lookup 0-1"  } ['zero' ('DFLT' <'dflt' > 'grek' <'dflt' > 'latn' <'MOL ' 'dflt' > ) ]
Lookup: 1 0 0 "'aalt' Access All Alternates lookup 0" { "'aalt' Access All Alternates lookup 0 subtable"  } ['aalt' ('DFLT' <'dflt' > 'grek' <'dflt' > 'latn' <'dflt' > ) ]
Lookup: 3 0 0 "'aalt' Access All Alternates lookup 1" { "'aalt' Access All Alternates lookup 1 subtable"  } ['aalt' ('DFLT' <'dflt' > 'grek' <'dflt' > 'latn' <'dflt' > ) ]

StartChar: .notdef
Encoding: 1114112 -1 0
Width: 676
GlyphClass: 1
Flags: W
HStem: 0 21<158 528> 680 20<157 528>
VStem: 129 21<49 650> 536 20<47 652>
DStem2: 157 680 150 650 0.513698 -0.857971<22.1432 360.147 396.696 737.787> 150 49 158 21 0.513896 0.857853<0 339.381 374.897 715.649>
LayerCount: 2
Fore
SplineSet
158 21 m 1
 528 21 l 1
 343 329 l 1
 158 21 l 1
150 49 m 1
 330 350 l 1
 150 650 l 1
 150 49 l 1
536 47 m 1
 536 652 l 1
 355 350 l 1
 536 47 l 1
342 371 m 1
 528 680 l 1
 157 680 l 1
 342 371 l 1
129 0 m 1
 129 700 l 1
 556 700 l 1
 556 0 l 1
 129 0 l 1
EndSplineSet
EndChar

StartChar: zero
Encoding: 48 48 5
Width: 659
GlyphClass: 1
Flags: W
HStem: -12 113<253.27 374.381> 567 113<296.796 422.586>
VStem: 47 155<156.755 426.018> 470 155<243.684 512.322>
DStem2: 291 544 230 450 0.433731 -0.901042<58.2403 351.991>
LayerCount: 2
Fore
SplineSet
202 273 m 0
 202 161.990908914 241.00581384 101 312 101 c 0
 338.833594567 101 362.862284482 109.887323667 385 128 c 1
 230 450 l 1
 212.919271286 398.757813857 202 329.732420372 202 273 c 0
470 396 m 0
 470 507.963639238 432.023393662 567 360 567 c 0
 335.497454109 567 312.439727654 559.314091182 291 544 c 1
 444 227 l 1
 459.210881332 271.618585242 470 341.747856581 470 396 c 0
625 398 m 0
 625 146.976922609 498.981707688 -12 300 -12 c 0
 137.146611776 -12 47 88.8359333301 47 271 c 0
 47 522.846174749 171.877734001 680 372 680 c 0
 536.090437489 680 625 580.899222814 625 398 c 0
EndSplineSet
Substitution2: "'zero' Slashed Zero lookup 0-1" zero.alt1
Substitution2: "'aalt' Access All Alternates lookup 0 subtable" zero.alt1
Substitution2: "'tnum' Tabular Numbers lookup 14 subtable" zero.tf
EndChar

StartChar: one
Encoding: 49 49 6
Width: 455
GlyphClass: 1
Flags: W
HStem: 0 21G<132 291.222> 449 122<98 227.035> 648 20G<286.592 428>
VStem: 132 155<0 155>
DStem2: 132 0 287 0 0.207912 0.978148<32.2263 459.148>
LayerCount: 2
Fore
SplineSet
98 571 m 1
 214.459328747 571 263.184191892 593.293923231 310 668 c 1
 428 668 l 1
 287 0 l 1
 132 0 l 1
 228 449 l 1
 72 449 l 1
 98 571 l 1
EndSplineSet
Substitution2: "'tnum' Tabular Numbers lookup 14 subtable" one.tf
Substitution2: "'sups' Superscript lookup 9 subtable" uni00B9
AlternateSubs2: "'aalt' Access All Alternates lookup 1 subtable" uni00B9 one.tf
EndChar

StartChar: two
Encoding: 50 50 7
Width: 587
GlyphClass: 1
Flags: W
HStem: 0 125<204 478> 568 112<264.335 394.71>
VStem: 420 158<423.682 544.329>
LayerCount: 2
Fore
SplineSet
578 502 m 0
 578 374.504847877 452.987879515 248.489956372 204 125 c 1
 504 125 l 1
 478 0 l 1
 -35 0 l 1
 -9 125 l 1
 280.433916612 273.736873815 420 392.481909797 420 490 c 0
 420 537.081425762 385.910289943 568 334 568 c 0
 283.625948378 568 236.78696739 538.632702397 208 489 c 1
 81 539 l 1
 128.985336434 624.973727778 233.964536631 680 350 680 c 0
 485.887660169 680 578 608.087734693 578 502 c 0
EndSplineSet
Substitution2: "'tnum' Tabular Numbers lookup 14 subtable" two.tf
Substitution2: "'sups' Superscript lookup 9 subtable" uni00B2
AlternateSubs2: "'aalt' Access All Alternates lookup 1 subtable" uni00B2 two.tf
EndChar

StartChar: three
Encoding: 51 51 8
Width: 619
GlyphClass: 1
Flags: W
HStem: -12 113<194.588 342.35> 291 106<227 331.103> 567 113<245.41 394.2>
VStem: 381 166<136.054 248.174> 419 160<439.236 540.966>
LayerCount: 2
Fore
SplineSet
579 513 m 0xe8
 579 433.332982456 541.319663866 379.126183105 465 349 c 1
 517.988036762 319.006771644 547 273.012195779 547 219 c 0
 547 96.949996323 414.939398396 -12 267 -12 c 0
 131.927621798 -12 45.9785833644 38.0546124209 6 140 c 1
 155 190 l 1
 163.973688331 133.166640571 204.814479168 101 268 101 c 0
 334.01123635 101 381 138.008849247 381 190 c 0xf0
 381 258.144964777 323.747661394 291 205 291 c 1
 227 397 l 1
 352.242869186 397 419 428.640098459 419 488 c 0
 419 536.710063031 383.3422261 567 326 567 c 0
 260.829158934 567 218.960831376 538.858992953 204 485 c 1
 77 535 l 1
 128.940842086 633.887372433 213.851680434 680 344 680 c 0
 484.359477231 680 579 612.74481999 579 513 c 0xe8
EndSplineSet
Substitution2: "'tnum' Tabular Numbers lookup 14 subtable" three.tf
Substitution2: "'sups' Superscript lookup 9 subtable" uni00B3
AlternateSubs2: "'aalt' Access All Alternates lookup 1 subtable" uni00B3 three.tf
EndChar

StartChar: four
Encoding: 52 52 9
Width: 646
GlyphClass: 1
Flags: W
HStem: 0 21G<294 454.255> 141 134<193 324 508 572> 648 20G<401.096 592>
DStem2: 7 252 193 275 0.705401 0.708809<147.507 426.802> 294 0 450 0 0.207912 0.978148<32.4342 144.156 313.484 479.542>
LayerCount: 2
Fore
SplineSet
193 275 m 1
 352 275 l 1
 394 469 l 1
 193 275 l 1
294 0 m 1
 324 141 l 1
 -16 141 l 1
 7 252 l 1
 421 668 l 1
 592 668 l 1
 508 275 l 1
 600 275 l 1
 572 141 l 1
 480 141 l 1
 450 0 l 1
 294 0 l 1
EndSplineSet
Substitution2: "'tnum' Tabular Numbers lookup 14 subtable" four.tf
Substitution2: "'sups' Superscript lookup 9 subtable" uni2074
AlternateSubs2: "'aalt' Access All Alternates lookup 1 subtable" four.tf uni2074
EndChar

StartChar: five
Encoding: 53 53 10
Width: 616
GlyphClass: 1
Flags: W
HStem: -12 112<199.485 340.756> 337 111<230.944 345.34> 544 124<259 560>
VStem: 388 156<149.646 293.802>
LayerCount: 2
Fore
SplineSet
544 242 m 0
 544 90.0760788273 433.082685999 -12 268 -12 c 0
 142.710895297 -12 42.9402024526 49.2138912273 17 142 c 1
 156 189 l 1
 166.061857939 135.672152925 211.353467832 100 269 100 c 0
 340.297012088 100 388 149.306449691 388 223 c 0
 388 291.905433527 344.092132645 337 277 337 c 0
 229.548224705 337 187.812171752 313.643126329 168 276 c 1
 41 327 l 1
 156 668 l 1
 586 668 l 1
 560 544 l 1
 259 544 l 1
 217 419 l 1
 249.236857035 437.560614656 290.994398409 448 333 448 c 0
 460.004854409 448 544 365.995260703 544 242 c 0
EndSplineSet
Substitution2: "'tnum' Tabular Numbers lookup 14 subtable" five.tf
Substitution2: "'aalt' Access All Alternates lookup 0 subtable" five.tf
EndChar

StartChar: six
Encoding: 54 54 11
Width: 629
GlyphClass: 1
Flags: W
HStem: -12 113<230.769 354.825> 339 113<253.729 372.505> 570 110<290.643 416.221>
VStem: 43 149<140.276 291.589> 407 155<152.977 303.667>
LayerCount: 2
Fore
SplineSet
192 209 m 0
 192 144.420207396 232.605934695 101 293 101 c 0
 357.524666823 101 406.008039529 154.586885622 407 227 c 0
 407 299.202154631 371.821547397 339 308 339 c 0
 235.861478498 339 192 289.844894786 192 209 c 0
562 243 m 0
 562 96.6756796928 445.653095858 -12 289 -12 c 0
 130.233251642 -12 43 83.743812778 43 258 c 0
 43 507.035169235 177.027250379 680 370 680 c 0
 460.974228561 680 529.989514135 646.017854311 567 583 c 1
 429 535 l 1
 413.915614179 558.129391591 387.800275681 570 352 570 c 0
 284.006211052 570 234.001279032 509.009135945 220 409 c 1
 260 440 296 452 349 452 c 0
 474.177085585 452 562 365.826342193 562 243 c 0
EndSplineSet
Substitution2: "'tnum' Tabular Numbers lookup 14 subtable" six.tf
Substitution2: "'aalt' Access All Alternates lookup 0 subtable" six.tf
EndChar

StartChar: seven
Encoding: 55 55 12
Width: 561
GlyphClass: 1
Flags: W
HStem: 0 21G<13 207.738> 543 125<80 400>
VStem: 13 181<0 181>
LayerCount: 2
Fore
SplineSet
13 0 m 1
 400 543 l 1
 53 543 l 1
 80 668 l 1
 593 668 l 1
 567 543 l 1
 194 0 l 1
 13 0 l 1
EndSplineSet
Substitution2: "'tnum' Tabular Numbers lookup 14 subtable" seven.tf
Substitution2: "'aalt' Access All Alternates lookup 0 subtable" seven.tf
EndChar

StartChar: eight
Encoding: 56 56 13
Width: 623
GlyphClass: 1
Flags: W
HStem: -12 126<202.082 357.194> 294 123<260.528 358.049> 555 125<269.688 366.656>
VStem: 12 155<147.245 256.871> 121 125<431.322 529.794> 382 126<442.039 541.624> 402 154<156.468 264.454>
LayerCount: 2
Fore
SplineSet
167 198 m 0xf2
 167 148.097305013 212.868993648 114 280 114 c 0
 352.237788132 114 402 155.196585235 402 215 c 0
 402 263.198377078 358.721770324 294 291 294 c 0
 214.39537625 294 167 257.306805484 167 198 c 0xf2
246 479 m 0xec
 246 443.71265088 272.281801673 417 307 417 c 0
 346.967537258 417 382 452.966661749 382 494 c 0
 382 529 356 555 321 555 c 0
 280.269403913 555 246 520.273670701 246 479 c 0xec
556 211 m 0xe2
 556 79.8652193923 439.829632876 -12 274 -12 c 0
 115.605848372 -12 12 66.2975495329 12 186 c 0xf2
 12 269.344822193 53.3864583442 328.205562949 147 378 c 1
 129.405646791 411.11878251 121 443.124899139 121 477 c 0
 121 591.183156034 214.192057955 680 334 680 c 0
 430.160765567 680 508 604.844877099 508 512 c 0xec
 508 463.659910985 484.79098509 402.79098509 455 373 c 1
 524.415236071 337.300735735 556 286.640025274 556 211 c 0xe2
EndSplineSet
Substitution2: "'tnum' Tabular Numbers lookup 14 subtable" eight.tf
Substitution2: "'aalt' Access All Alternates lookup 0 subtable" eight.tf
EndChar

StartChar: nine
Encoding: 57 57 14
Width: 576
GlyphClass: 1
Flags: W
HStem: 0 21G<106 283.272> 546 135<257.597 386.006>
VStem: 62 140<364.707 491.401> 106 174<0 174> 417 139<387.255 516.358>
LayerCount: 2
Fore
SplineSet
202 422 m 0xe8
 202 370.699627174 240.330983506 336 297 336 c 0
 363.103479046 336 417 388.099970256 417 452 c 0
 417 509.722518361 382.266240984 546 327 546 c 0
 256.217609662 546 202 492.216131215 202 422 c 0xe8
332 681 m 0
 459.770417285 681 556 591.214362556 556 472 c 0
 556 405.826357303 542.777982724 376.683951877 458 256 c 0
 425.054019897 209.021472816 286.54482433 9.81723649536 280 0 c 1
 106 0 l 1xd8
 271 222 l 1
 254 222 l 1
 141.748762894 226.008972754 62 308.249884488 62 420 c 0
 62 562.05000329 185.051720735 681 332 681 c 0
EndSplineSet
Substitution2: "'tnum' Tabular Numbers lookup 14 subtable" nine.tf
Substitution2: "'aalt' Access All Alternates lookup 0 subtable" nine.tf
EndChar

StartChar: A
Encoding: 65 65 15
Width: 698
GlyphClass: 2
Flags: W
HStem: 0 21G<-65 132.092 455.311 623> 119 128<255 427> 648 20G<317.204 515.323>
DStem2: -65 0 121 0 0.508034 0.861337<94.4943 230.524 375.321 578.832> 512 668 395 501 0.16392 -0.986474<145.562 401.372> 623 0 442 119 0.16392 -0.986474<-480.395 -275.787 -147.06 -27.0468>
AnchorPoint: "Anchor-2" 623 0 basechar 0
AnchorPoint: "Anchor-1" 427 668 basechar 0
AnchorPoint: "Anchor-0" 296 0 basechar 0
LayerCount: 2
Fore
SplineSet
255 247 m 1
 427 247 l 1
 395 501 l 1
 255 247 l 1
-65 0 m 1
 329 668 l 1
 512 668 l 1
 623 0 l 1
 458 0 l 1
 442 119 l 1
 187 119 l 1
 121 0 l 1
 -65 0 l 1
EndSplineSet
Substitution2: "Single Substitution lookup 12 subtable" ordfeminine
Substitution2: "'aalt' Access All Alternates lookup 0 subtable" ordfeminine
EndChar

StartChar: B
Encoding: 66 66 16
Width: 643
GlyphClass: 1
Flags: W
HStem: 0 131<166 392.82> 282 122<224 415.504> 539 129<253 452.32>
VStem: 433 167<170.202 263.931> 464 169<435.713 573.834>
DStem2: -23 0 138.155 0 0.207912 0.978148<167.433 321.786 446.526 584.605>
AnchorPoint: "Anchor-0" 270 0 basechar 0
AnchorPoint: "Anchor-1" 336 668 basechar 0
LayerCount: 2
Fore
SplineSet
433 222 m 0xf0
 433 260.149071672 398.766878953 282 339 282 c 2
 198 282 l 1
 166 131 l 1
 313 131 l 2
 382.445635621 131 433 169.337059654 433 222 c 0xf0
464 484 m 0xe8
 464 519.205761705 437.727647353 539 391 539 c 2
 253 539 l 1
 224 404 l 1
 363 404 l 2
 423.800141643 404 464 435.841471966 464 484 c 0xe8
600 229 m 0xf0
 600 85.9826493644 480.975983194 0 283 0 c 2
 -23 0 l 1
 119 668 l 1
 413 668 l 2
 561.597500583 668 633 621.263818563 633 524 c 0xe8
 633 448.227112965 593.210737686 387.096337228 523 355 c 1
 573.808448793 332.086385839 600 289.227483863 600 229 c 0xf0
EndSplineSet
EndChar

StartChar: C
Encoding: 67 67 17
Width: 673
GlyphClass: 2
Flags: W
HStem: -12 132<263.485 420.797> 550 130<323.656 482.461>
VStem: 32 168<188.099 405.03>
AnchorPoint: "Anchor-1" 428 668 basechar 0
AnchorPoint: "Anchor-0" 311 0 basechar 0
LayerCount: 2
Fore
SplineSet
616 141 m 1
 551.019746358 40.0306828018 451.039218621 -12 322 -12 c 0
 141.463629553 -12 32 92.5566392628 32 265 c 0
 32 510.383242417 189.355305228 680 417 680 c 0
 547.116153315 680 639.028528661 623.911739454 671 525 c 1
 525 476 l 1
 503.963823964 526.086133418 463.891939422 550 401 550 c 0
 288.039323167 550 200 433.05224236 200 283 c 0
 200 181.119532866 250.897750594 121.001175281 338 120 c 0
 395.97297619 120 441.98227401 143.976676329 480 194 c 1
 616 141 l 1
EndSplineSet
EndChar

StartChar: D
Encoding: 68 68 18
Width: 690
GlyphClass: 2
Flags: W
HStem: 0 133<167 344.787> 537 131<253 427.751>
VStem: 491 168<280.164 480.244>
DStem2: -23 0 138.73 0 0.207912 0.978148<169.597 582.649>
AnchorPoint: "Anchor-1" 391 668 basechar 0
AnchorPoint: "Anchor-0" 292 0 basechar 0
LayerCount: 2
Fore
SplineSet
167 133 m 1
 230 133 l 2
 391.309748271 133 491 232.308296742 491 393 c 0
 491 497.900027307 442.125034134 537 311 537 c 2
 253 537 l 1
 167 133 l 1
-23 0 m 1
 119 668 l 1
 313 668 l 2
 536.031136565 668 659 570.975434342 659 395 c 0
 659 196.240316932 545.239823391 58.0508716284 347 16 c 0
 294.441258626 5.27372625027 245.988898702 0 200 0 c 2
 -23 0 l 1
EndSplineSet
EndChar

StartChar: E
Encoding: 69 69 19
Width: 582
GlyphClass: 2
Flags: W
HStem: 0 139<168 495> 274 139<226 414> 529 139<251 607>
DStem2: -23 0 138.455 0 0.207912 0.978148<175.674 313.753 455.745 574.408>
AnchorPoint: "Anchor-2" 463 0 basechar 0
AnchorPoint: "Anchor-1" 381 668 basechar 0
AnchorPoint: "Anchor-0" 238 0 basechar 0
LayerCount: 2
Fore
SplineSet
-23 0 m 1
 119 668 l 1
 637 668 l 1
 607 529 l 1
 251 529 l 1
 226 413 l 1
 443 413 l 1
 414 274 l 1
 197 274 l 1
 168 139 l 1
 524 139 l 1
 495 0 l 1
 -23 0 l 1
EndSplineSet
EndChar

StartChar: F
Encoding: 70 70 20
Width: 545
GlyphClass: 1
Flags: W
HStem: 0 21G<-23 142.307> 274 139<226 517> 529 139<251 571>
VStem: -23 161<0 161>
DStem2: -23 0 138 0 0.207912 0.978148<33.4738 313.753 455.745 574.408>
AnchorPoint: "Anchor-1" 350 668 basechar 0
LayerCount: 2
Fore
SplineSet
-23 0 m 1
 119 668 l 1
 600 668 l 1
 571 529 l 1
 251 529 l 1
 226 413 l 1
 546 413 l 1
 517 274 l 1
 197 274 l 1
 138 0 l 1
 -23 0 l 1
EndSplineSet
EndChar

StartChar: G
Encoding: 71 71 21
Width: 733
GlyphClass: 2
Flags: W
HStem: -12 129<260.823 407.433> 0 21G<508.378 621.286> 250 128<386 509> 550 130<319.764 483.76>
VStem: 31 168<181.947 402.803>
AnchorPoint: "Anchor-1" 440 668 basechar 0
AnchorPoint: "Anchor-0" 304 0 basechar 0
LayerCount: 2
Fore
SplineSet
199 278 m 0xb8
 199 175.42372801 251.617643239 117 344 117 c 0xb8
 424.811495395 117 490.967234615 163.84319423 505 231 c 2
 509 250 l 1
 359 250 l 1
 386 378 l 1
 698 378 l 1
 617 0 l 1
 510 0 l 1x78
 504 74 l 1
 448.742887387 16.7335378374 374.570266458 -12 282 -12 c 0
 132.067759046 -12 31 97.9262877274 31 261 c 0
 31 507.735353371 191.752928 680 422 680 c 0
 549.534898925 680 636.853328968 630.348343701 677 535 c 1
 529 478 l 1
 513.136271708 520.633769785 460.521775906 550 400 550 c 0
 284.860260098 550 199 433.81099131 199 278 c 0xb8
EndSplineSet
EndChar

StartChar: H
Encoding: 72 72 22
Width: 695
GlyphClass: 1
Flags: W
HStem: 0 21G<-23 142.307 414 579.251> 274 139<226 472> 648 20G<114.749 279 551.765 717>
VStem: -23 161<0 161> 119 160<508 668> 414 161<0 161> 556 161<507 668>
DStem2: -23 0 138 0 0.207912 0.978148<33.4738 313.753 455.745 682.926> 414 0 575 0 0.207912 0.978148<33.4738 280.071 422.271 682.926>
AnchorPoint: "Anchor-0" 280 0 basechar 0
AnchorPoint: "Anchor-1" 413 668 basechar 0
LayerCount: 2
Fore
SplineSet
-23 0 m 1xf4
 119 668 l 1
 279 668 l 1
 226 413 l 1
 502 413 l 1
 556 668 l 1
 717 668 l 1xea
 575 0 l 1
 414 0 l 1
 472 274 l 1
 197 274 l 1
 138 0 l 1
 -23 0 l 1xf4
EndSplineSet
EndChar

StartChar: I
Encoding: 73 73 23
Width: 459
GlyphClass: 2
Flags: W
HStem: 0 124<13 105 267 331> 544 124<129 195 355 447>
DStem2: 78.643 0 240.643 0 0.207912 0.978148<160.452 556.304>
AnchorPoint: "Anchor-2" 242 0 basechar 0
AnchorPoint: "Anchor-1" 301 668 basechar 0
AnchorPoint: "Anchor-0" 151 0 basechar 0
LayerCount: 2
Fore
SplineSet
-13 0 m 1
 13 124 l 1
 105 124 l 1
 195 544 l 1
 103 544 l 1
 129 668 l 1
 474 668 l 1
 447 544 l 1
 355 544 l 1
 267 124 l 1
 358 124 l 1
 331 0 l 1
 -13 0 l 1
EndSplineSet
EndChar

StartChar: J
Encoding: 74 74 24
Width: 566
GlyphClass: 1
Flags: W
HStem: -12 125<148.506 280.536> 648 20G<421.777 588>
VStem: 426 162<506 668>
DStem2: 282.035 -12 443.035 -12 0.207912 0.978148<159.079 695.072>
AnchorPoint: "Anchor-1" 507 668 basechar 0
LayerCount: 2
Fore
SplineSet
128 203 m 0
 128 140.928549797 154.066646477 113 212 113 c 0
 284.125937669 113 318.036566897 151.182834485 339 256 c 1
 426 668 l 1
 588 668 l 1
 500 256 l 2
 458.926667312 64.658376992 371.684857676 -12 195 -12 c 0
 66.3876692074 -12 -22.0283728849 62.5390848133 -28 176 c 1
 129 228 l 1
 128 221 128 221 128 203 c 0
EndSplineSet
EndChar

StartChar: K
Encoding: 75 75 25
Width: 657
GlyphClass: 2
Flags: W
HStem: 0 21G<-23 142.264 400.819 577> 648 20G<114.749 279 478.521 715>
VStem: -23 161<0 161> 119 160<508 668> 501 214<454 668>
DStem2: -23 0 138 0 0.207912 0.978148<33.4738 234.901 469.085 682.926> 229 426 384 377 0.750574 0.660786<83.9605 364.066> 384 377 270 277 0.455693 -0.890137<37.0646 347.885>
AnchorPoint: "Anchor-1" 400 668 basechar 0
AnchorPoint: "Anchor-0" 265 0 basechar 0
LayerCount: 2
Fore
SplineSet
-23 0 m 1xe8
 119 668 l 1
 279 668 l 1xd8
 229 426 l 1
 501 668 l 1
 715 668 l 1
 384 377 l 1
 577 0 l 1
 411 0 l 1
 270 277 l 1
 180 197 l 1
 138 0 l 1
 -23 0 l 1xe8
EndSplineSet
EndChar

StartChar: L
Encoding: 76 76 26
Width: 543
GlyphClass: 2
Flags: W
HStem: 0 139<168 458> 648 20G<114.749 279>
VStem: 119 160<508 668>
DStem2: -23 0 138.455 0 0.207912 0.978148<175.674 682.926>
AnchorPoint: "Anchor-1" 216 668 basechar 0
AnchorPoint: "Anchor-0" 219 0 basechar 0
LayerCount: 2
Fore
SplineSet
-23 0 m 1
 119 668 l 1
 279 668 l 1
 168 139 l 1
 488 139 l 1
 458 0 l 1
 -23 0 l 1
EndSplineSet
EndChar

StartChar: M
Encoding: 77 77 27
Width: 858
GlyphClass: 1
Flags: W
HStem: 0 21G<-23 138.24 292.236 436.353 581 741.281> 648 20G<114.749 357.6 624.853 880>
VStem: -23 157<0 157> 581 156<0 156>
DStem2: -23 0 134 0 0.207912 0.978148<32.6421 577.489> 356 668 247 533 0.0878393 -0.996135<124.904 476.502> 394 193 426 0 0.459707 0.888071<0 417.592> 581 0 737 0 0.207912 0.978148<32.4342 521.518>
AnchorPoint: "Anchor-1" 487 668 basechar 0
LayerCount: 2
Fore
SplineSet
-23 0 m 1
 119 668 l 1
 356 668 l 1
 394 193 l 1
 635 668 l 1
 880 668 l 1
 737 0 l 1
 581 0 l 1
 690 510 l 1
 426 0 l 1
 294 0 l 1
 247 533 l 1
 134 0 l 1
 -23 0 l 1
EndSplineSet
EndChar

StartChar: N
Encoding: 78 78 28
Width: 715
GlyphClass: 2
Flags: W
HStem: 0 21G<-23 137.247 389.402 599.251> 648 20G<114.749 324.598 577.711 737>
VStem: -23 156<0 156> 582 155<513 668>
DStem2: -23 0 133 0 0.207912 0.978148<32.4342 528.251> 318 668 236 485 0.313289 -0.949658<148.098 510.71> 439.102 0 595 0 0.207912 0.978148<187.088 683.113>
AnchorPoint: "Anchor-1" 456 668 basechar 0
AnchorPoint: "Anchor-0" 285 0 basechar 0
LayerCount: 2
Fore
SplineSet
-23 0 m 1
 119 668 l 1
 318 668 l 1
 478 183 l 1
 582 668 l 1
 737 668 l 1
 595 0 l 1
 396 0 l 1
 236 485 l 1
 133 0 l 1
 -23 0 l 1
EndSplineSet
EndChar

StartChar: O
Encoding: 79 79 29
Width: 763
GlyphClass: 2
Flags: W
HStem: -12 130<274.135 435.623> 550 130<332.55 492.906>
VStem: 32 169<192.209 402.583> 564 168<266.661 473.192>
AnchorPoint: "Anchor-2" 436 0 basechar 0
AnchorPoint: "Anchor-1" 456 668 basechar 0
AnchorPoint: "Anchor-0" 329 0 basechar 0
LayerCount: 2
Fore
SplineSet
201 286 m 0
 201 183.918904867 259.071416192 118 349 118 c 0
 470.957857289 118 564 230.948833709 564 379 c 0
 564 482.370286846 504.675690216 550 414 550 c 0
 294.795386359 550 201 433.746563387 201 286 c 0
732 393 m 0
 732 160.202735164 563.198800345 -12 335 -12 c 0
 149.266819162 -12 32 96.7523966483 32 269 c 0
 32 503.854079051 200.860079937 680 426 680 c 0
 615.891999883 680 732 571.101320151 732 393 c 0
EndSplineSet
Substitution2: "Single Substitution lookup 12 subtable" ordmasculine
Substitution2: "'aalt' Access All Alternates lookup 0 subtable" ordmasculine
EndChar

StartChar: P
Encoding: 80 80 30
Width: 628
GlyphClass: 1
Flags: W
HStem: 0 21G<-23 142.224> 232 131<216 424.209> 535 133<252 448.135>
VStem: -23 161<0 161> 470 168<407.296 512.993>
DStem2: -23 0 138 0 0.207912 0.978148<33.4738 270.592 404.758 580.485>
AnchorPoint: "Anchor-1" 348 668 basechar 0
LayerCount: 2
Fore
SplineSet
319 363 m 2
 418.114317903 363 470 399.079447816 470 468 c 0
 470 512.930461949 432.119449613 535 355 535 c 2
 252 535 l 1
 216 363 l 1
 319 363 l 2
638 490 m 0
 638 321.302263562 522.391643295 232 304 232 c 2
 187 232 l 1
 138 0 l 1
 -23 0 l 1
 119 668 l 1
 379 668 l 2
 556.258524965 668 638 611.822461173 638 490 c 0
EndSplineSet
EndChar

StartChar: Q
Encoding: 81 81 31
Width: 774
GlyphClass: 1
Flags: W
HStem: 14 131<279.459 430.97> 576 130<337.36 496.907>
VStem: 37 169<218.644 423.677> 569 168<292.951 500.594>
DStem2: 421 363 330 285 0.645035 -0.764153<0.905746 158.137 307.692 444.054>
LayerCount: 2
Fore
SplineSet
206 311 m 0
 206 211.087821216 264.921671927 145 354 145 c 0
 381.067076807 145 407.091199002 150.600127561 433 162 c 1
 330 285 l 1
 421 363 l 1
 524 243 l 1
 552.313058024 290.525490254 569 350.598481369 569 405 c 0
 569 508.870035485 510.114066215 576 419 576 c 0
 299.618631048 576 206 459.526116302 206 311 c 0
737 420 m 0
 737 308.004347787 695.002834097 201.00287292 622 127 c 1
 709 25 l 1
 617 -55 l 1
 523 56 l 1
 468.817855127 28.4163626101 406.003703755 14 340 14 c 0
 155.30593866 14 37 123.716068526 37 295 c 0
 37 530.875647712 204.88076594 706 431 706 c 0
 552.761650231 706 646.899877135 660.164908249 698 576 c 0
 724 533 737 481 737 420 c 0
EndSplineSet
EndChar

StartChar: R
Encoding: 82 82 32
Width: 644
GlyphClass: 2
Flags: W
HStem: 0 21G<-23 142.286 380.841 557> 535 133<252 445.165>
VStem: -23 161<0 161> 463 167<415.731 516.381>
DStem2: -23 0 138 0 0.207912 0.978148<33.4738 291.194 426.131 580.485> 420 269 263 252 0.453827 -0.89109<0 226.542>
AnchorPoint: "Anchor-1" 380 668 basechar 0
AnchorPoint: "Anchor-0" 269 0 basechar 0
LayerCount: 2
Fore
SplineSet
463 473 m 0
 463 516.991453448 429.016129894 535 346 535 c 2
 252 535 l 1
 220 384 l 1
 323 384 l 2
 422.050568862 384 463 410.032138366 463 473 c 0
369 668 m 2
 545.920776645 668 630 610.336471339 630 489 c 0
 630 360.095219912 563.105750316 290.015529767 420 269 c 1
 557 0 l 1
 391 0 l 1
 263 252 l 1
 192 252 l 1
 138 0 l 1
 -23 0 l 1
 119 668 l 1
 369 668 l 2
EndSplineSet
EndChar

StartChar: S
Encoding: 83 83 33
Width: 642
GlyphClass: 2
Flags: W
HStem: -12 126<222.691 396.087> 551 129<244.024 411.073>
VStem: 61 163<447.411 530.586> 424 164<141.227 221.653>
AnchorPoint: "Anchor-1" 370 668 basechar 0
AnchorPoint: "Anchor-0" 288 0 basechar 0
LayerCount: 2
Fore
SplineSet
588 206 m 0
 588 76.9503505952 472.93578501 -12 306 -12 c 0
 160.795791654 -12 51.9410544005 50.1501709321 10 157 c 1
 165 209 l 1
 178.967207391 151.135855096 236.820960592 114 313 114 c 0
 377.946163077 114 424 140.968463063 424 179 c 0
 424 220.166892672 395.532892337 239.144964447 280 275 c 0
 115.81039161 326.058963585 61 376.11411574 61 475 c 0
 61 599.232237148 171.316944384 680 341 680 c 0
 462.982759196 680 557.993214362 628.013147173 606 535 c 1
 451 483 l 1
 435.943449725 524.15457075 387.779591366 551 329 551 c 0
 263.575650246 551 224 528.762253671 224 492 c 0
 224 449.945629987 255.138043776 428.961296138 362 399 c 0
 535.487671875 351.141331896 588 306.2967331 588 206 c 0
EndSplineSet
EndChar

StartChar: T
Encoding: 84 84 34
Width: 617
GlyphClass: 2
Flags: W
HStem: 0 21G<158 323.197> 529 139<87 270 430 644>
VStem: 158 161<0 161>
DStem2: 158 0 319 0 0.207912 0.978148<33.4738 540.726>
AnchorPoint: "Anchor-1" 395 668 basechar 0
AnchorPoint: "Anchor-0" 253 0 basechar 0
LayerCount: 2
Fore
SplineSet
158 0 m 1
 270 529 l 1
 57 529 l 1
 87 668 l 1
 673 668 l 1
 644 529 l 1
 430 529 l 1
 319 0 l 1
 158 0 l 1
EndSplineSet
EndChar

StartChar: U
Encoding: 85 85 35
Width: 679
GlyphClass: 2
Flags: W
HStem: -12 129<215.041 378.128> 648 20G<115.691 281 535.733 701>
VStem: 26 162<144.08 333.414> 120 161<507 668> 540 161<507 668>
DStem2: -25.6172 -12 136.146 -12 0.207912 0.978148<256.517 695.416> 395.146 -12 556.383 -12 0.207912 0.978148<178.293 695.257>
AnchorPoint: "Anchor-2" 376 0 basechar 0
AnchorPoint: "Anchor-1" 414 668 basechar 0
AnchorPoint: "Anchor-0" 287 0 basechar 0
LayerCount: 2
Fore
SplineSet
188 204 m 0xe8
 188 144.042444929 220.948266235 117 294 117 c 0
 387.861169327 117 432.964418999 161.826542618 457 279 c 2
 540 668 l 1
 701 668 l 1
 621 292 l 2
 571.934663962 62.6946540269 484.708998898 -12 266 -12 c 0
 106.401757848 -12 26 54.6664575491 26 187 c 0xe8
 26 217.347181131 30.1012025255 250.472278453 39 292 c 2
 120 668 l 1
 281 668 l 1xd8
 198 279 l 2
 190 237 188 222 188 204 c 0xe8
EndSplineSet
EndChar

StartChar: V
Encoding: 86 86 36
Width: 662
GlyphClass: 1
Flags: W
HStem: 0 21G<163.485 367.018> 648 20G<82 241.996 535.532 724>
VStem: 82 158<510 668>
DStem2: 240 668 82 668 0.124766 -0.992186<0 493.277> 289 177 356 0 0.482523 0.875883<0 554.067>
LayerCount: 2
Fore
SplineSet
166 0 m 1
 82 668 l 1
 240 668 l 1
 289 177 l 1
 546 668 l 1
 724 668 l 1
 356 0 l 1
 166 0 l 1
EndSplineSet
EndChar

StartChar: W
Encoding: 87 87 37
Width: 889
GlyphClass: 1
Flags: W
HStem: 0 21G<100.431 274.596 468 657.072> 648 20G<82 235 410.525 588 774.577 951>
VStem: 82 153<421.895 668> 468 120<205 470>
DStem2: 230 222 266 0 0.394863 0.91874<0 321.825>
AnchorPoint: "Anchor-1" 494 668 basechar 0
LayerCount: 2
Fore
SplineSet
101 0 m 1
 82 668 l 1
 235 668 l 1
 230 222 l 1
 419 668 l 1
 588 668 l 1
 588 205 l 1
 783 668 l 1
 951 668 l 1
 648 0 l 1
 468 0 l 1
 468 470 l 1
 266 0 l 1
 101 0 l 1
EndSplineSet
EndChar

StartChar: X
Encoding: 88 88 38
Width: 706
GlyphClass: 1
Flags: W
HStem: 0 21G<-60 169.286 438 621> 648 20G<115 296.052 539.571 768>
VStem: -60 211<0 211> 558 210<458 668>
DStem2: -60 0 151 0 0.679101 0.734045<143.29 427.827 650.302 910.026> 286 668 115 668 0.448284 -0.893891<0 213.768 434.954 669.741>
AnchorPoint: "Anchor-1" 410 668 basechar 0
AnchorPoint: "Anchor-0" 306 0 basechar 0
LayerCount: 2
Fore
SplineSet
-60 0 m 1
 270 356 l 1
 115 668 l 1
 286 668 l 1
 382 477 l 1
 558 668 l 1
 768 668 l 1
 456 331 l 1
 621 0 l 1
 448 0 l 1
 343 210 l 1
 151 0 l 1
 -60 0 l 1
EndSplineSet
EndChar

StartChar: Y
Encoding: 89 89 39
Width: 700
GlyphClass: 2
Flags: W
HStem: 0 21G<191 358.149> 648 20G<82 259.209 542.188 762>
VStem: 191 163<0 163> 558 204<464 668>
DStem2: 339 391 404 241 0.642476 0.766306<0 352.969>
AnchorPoint: "Anchor-1" 403 668 basechar 0
AnchorPoint: "Anchor-0" 297 0 basechar 0
LayerCount: 2
Fore
SplineSet
191 0 m 1
 242 241 l 1
 82 668 l 1
 253 668 l 1
 339 391 l 1
 558 668 l 1
 762 668 l 1
 404 241 l 1
 354 0 l 1
 191 0 l 1
EndSplineSet
EndChar

StartChar: Z
Encoding: 90 90 40
Width: 632
GlyphClass: 2
Flags: W
HStem: 0 139<221 530> 529 139<130 411>
DStem2: -12 121 221 139 0.719753 0.69423<180.199 587.701>
AnchorPoint: "Anchor-1" 407 668 basechar 0
AnchorPoint: "Anchor-0" 263 0 basechar 0
LayerCount: 2
Fore
SplineSet
-38 0 m 1
 -12 121 l 1
 411 529 l 1
 100 529 l 1
 130 668 l 1
 668 668 l 1
 642 547 l 1
 221 139 l 1
 560 139 l 1
 530 0 l 1
 -38 0 l 1
EndSplineSet
EndChar

StartChar: a
Encoding: 97 97 41
Width: 545
GlyphClass: 2
Flags: W
HStem: -12 103<87.4038 234.33> 0 21G<295.305 441> 407 103<201.235 333.61>
VStem: -18 161<102.974 181.558> 344 150<314.891 396.149>
AnchorPoint: "Anchor-2" 446 0 basechar 0
AnchorPoint: "Anchor-1" 298 496 basechar 0
AnchorPoint: "Anchor-0" 219 0 basechar 0
LayerCount: 2
Fore
SplineSet
143 138 m 0xb8
 143 109.899924127 169.138192942 91 208 91 c 0
 267.778904821 91 303.921889051 128.687556206 325 213 c 2
 328 225 l 1
 272.596946052 220.053298755 228.372369722 211.142376658 194 198 c 0
 160 185 143 165 143 138 c 0xb8
292 59 m 1
 248.519710013 7.43035373669 204.185663459 -12 130 -12 c 0xb8
 44.8076045921 -12 -18 43.1688418714 -18 118 c 0
 -18 232.724900705 85.3934740819 289.939828778 338 315 c 1
 342.410533616 332.642134462 344 342.973665961 344 354 c 0
 344 390.034730838 320.952841893 407 272 407 c 0
 225.016947755 407 187.006135475 385.013353681 170 348 c 1
 53 394 l 1
 103.898396324 472.842613914 180.775746847 510 293 510 c 0
 418.232581719 510 494 450.818484229 494 353 c 0
 494 256 441 97 441 0 c 1
 297 0 l 1x78
 292 59 l 1
EndSplineSet
Substitution2: "Single Substitution lookup 12 subtable" ordfeminine
Substitution2: "'aalt' Access All Alternates lookup 0 subtable" ordfeminine
EndChar

StartChar: b
Encoding: 98 98 42
Width: 592
GlyphClass: 1
Flags: W
HStem: -12 117<207.827 329.369> 0 21G<-21 125.303> 392 118<287.749 427.825> 648 20G<116.749 276>
VStem: 121 155<513 668> 395 159<178.065 360.093>
DStem2: -23.5385 -12 131.775 -12 0.207912 0.978148<490.3 695.192>
AnchorPoint: "Anchor-0" 293 0 basechar 0
AnchorPoint: "Anchor-1" 380 496 basechar 0
LayerCount: 2
Fore
SplineSet
175 208 m 0xbc
 175 144.807562825 210.169788515 105 266 105 c 0
 340.182443391 105 395 177.24019088 395 275 c 0
 395 350.35333377 364.743874961 392 310 392 c 0
 232.114096534 392 175 314.155601761 175 208 c 0xbc
554 303 m 0
 554 123.086198641 442.071435412 -12 293 -12 c 0xbc
 231.923053439 -12 181.958503239 15.0641313585 149 66 c 1
 115 0 l 1
 -21 0 l 1x7c
 121 668 l 1
 276 668 l 1
 227 436 l 1
 262.08197351 483.110078713 315.135061454 510 373 510 c 0
 482.650001508 510 554 428.400830453 554 303 c 0
EndSplineSet
EndChar

StartChar: c
Encoding: 99 99 43
Width: 531
GlyphClass: 2
Flags: W
HStem: -12 117<179.996 312.533> 392 118<233.815 361.693>
VStem: 2 154<128.746 301.299>
AnchorPoint: "Anchor-1" 318 496 basechar 0
AnchorPoint: "Anchor-0" 212 0 basechar 0
LayerCount: 2
Fore
SplineSet
156 198 m 0
 156 138.787420512 185.064447752 105 236 105 c 0
 283 105 313 119 341 154 c 1
 464 107 l 1
 407.990769367 28.987143047 324.983193953 -12 223 -12 c 0
 87.8164673876 -12 2 67.9918202798 2 194 c 0
 2 376.076439613 135.075942916 510 316 510 c 0
 357.79444609 510 396.975076869 500.542606364 432 482 c 0
 466.803846623 463.574434141 493.401849701 429.906075814 511 382 c 1
 378 336 l 1
 369.965506057 374.163846229 344.80378913 392 299 392 c 0
 217.09018625 392 156 309.122404667 156 198 c 0
EndSplineSet
EndChar

StartChar: d
Encoding: 100 100 44
Width: 592
GlyphClass: 2
Flags: W
HStem: -12 117<130.901 271.881> 0 21G<337.413 488.5> 392 118<224.748 347.647> 648 20G<453.709 613>
VStem: 3 159<139.832 318.189>
DStem2: 312.963 -12 467.988 -12 0.207912 0.978148<442.673 695.295>
AnchorPoint: "Anchor-1" 266 496 basechar 0
AnchorPoint: "Anchor-0" 188 0 basechar 0
LayerCount: 2
Fore
SplineSet
162 216 m 0xb8
 162 146.578069904 195.337371365 105 251 105 c 0
 324.165833623 105 382 186.232722239 382 289 c 0
 382 350.66891993 346.286736639 392 293 392 c 0
 214.051129221 392 162 322.068711886 162 216 c 0xb8
334 63 m 1
 296.013093323 14.0168834958 245.020001671 -12 187 -12 c 0
 74.8028797737 -12 3 67.2173075764 3 191 c 0
 3 374.076051983 115.062690685 510 266 510 c 0
 330.450131929 510 384.145204886 475.619701488 405 421 c 1
 458 668 l 1
 613 668 l 1
 607 642 l 1
 565.542897043 456.959759974 509.858731209 185.119786767 497 105 c 0xb8
 492 71 489 36 488 0 c 1
 339 0 l 1x78
 334 63 l 1
EndSplineSet
EndChar

StartChar: e
Encoding: 101 101 45
Width: 567
GlyphClass: 2
Flags: W
HStem: -12 118<181.792 339.307> 209 90<168 395.764> 399 111<228.083 368.763>
VStem: 3 149<133.392 204.374> 396 134<299.108 371.531>
AnchorPoint: "Anchor-2" 328 2 basechar 0
AnchorPoint: "Anchor-1" 321 496 basechar 0
AnchorPoint: "Anchor-0" 230 0 basechar 0
LayerCount: 2
Fore
SplineSet
396 313 m 2
 396 366.031919174 359.965120958 399 302 399 c 0
 239.469252921 399 185.128951021 358.447535895 168 299 c 1
 395 299 l 1
 395.775255129 301.325765386 396 302.898979486 396 306 c 2
 396 313 l 2
472 98 m 1
 414.302243731 26.375199114 329.527940233 -12 229 -12 c 0
 86.8316850758 -12 3 65.1548252025 3 196 c 0
 3 375.361988024 133.350177199 510 307 510 c 0
 446.950475706 510 530 431.047089012 530 298 c 0
 530 269.656282411 526.448690288 240.922958377 519 209 c 1
 154 209 l 1
 152.19089023 194.52712184 152 192.522774425 152 188 c 0
 152 136.774284372 190.28020739 106 254 106 c 0
 295.778039833 106 335.882214206 119.882214206 358 142 c 1
 472 98 l 1
EndSplineSet
EndChar

StartChar: f
Encoding: 102 102 46
Width: 379
GlyphClass: 1
Flags: W
HStem: 0 21G<18 177.211> 380 116<43 99 278 360> 608 119<305.643 409>
VStem: 18 155<0 155>
DStem2: 18 0 173 0 0.207912 0.978148<32.2263 388.537 539.218 649.556>
AnchorPoint: "Anchor-1" 152 668 basechar 0
LayerCount: 2
Fore
SplineSet
18 0 m 1
 99 380 l 1
 19 380 l 1
 43 496 l 1
 124 496 l 1
 135 547 l 2
 167.948304784 696.765021746 206.74986021 727 366 727 c 2
 434 727 l 1
 409 608 l 1
 368 608 l 2
 308.074034516 608 302.02105084 602.092871352 285 527 c 2
 278 496 l 1
 385 496 l 1
 360 380 l 1
 253 380 l 1
 173 0 l 1
 18 0 l 1
EndSplineSet
EndChar

StartChar: g
Encoding: 103 103 47
Width: 594
GlyphClass: 2
Flags: W
HStem: -207 119<128.871 270.22> 17 114<134.565 272.894> 395 116<227.284 351.593> 476 20G<432.851 577>
VStem: 6 158<161.751 324.872>
AnchorPoint: "Anchor-1" 317 496 basechar 0
AnchorPoint: "Anchor-0" 191 -251 basechar 0
LayerCount: 2
Fore
SplineSet
164 234 m 0xe8
 164 170.855348526 196.116445899 131 247 131 c 0
 327.794227342 131 384 200.744389429 384 301 c 0
 384 359.875060503 351.117077918 395 296 395 c 0
 217.645625148 395 164 329.568593569 164 234 c 0xe8
262 511 m 0
 329.213566849 511 385.075908924 479.838693537 409 429 c 1
 443 496 l 1
 577 496 l 1xd8
 491 87 491 87 476 18 c 0
 444.995632436 -120.019442702 335.980000623 -207 194 -207 c 0
 89.7621819923 -207 0.94769475362 -156.836261837 -22 -85 c 1
 112 -41 l 1
 120.995334883 -68.9854863029 154.978721065 -88 196 -88 c 0
 258.792703002 -88 306.960195651 -51.1890706589 319 6 c 2
 337 91 l 1
 297.103709052 43.1244508618 244.148741088 17 187 17 c 0
 82.1294090432 17 6 99.8590805609 6 214 c 0
 6 377.791066385 120.819821567 511 262 511 c 0
EndSplineSet
EndChar

StartChar: h
Encoding: 104 104 48
Width: 580
GlyphClass: 1
Flags: W
HStem: 0 21G<-21 139.252 302 462.27> 392 118<292.994 439.521> 648 20G<116.749 272>
VStem: -21 156<0 156> 121 151<517 668> 367 161<227.096 383.271>
DStem2: -21 0 135 0 0.207912 0.978148<32.4342 402.418 473.082 682.926>
AnchorPoint: "Anchor-0" 218 0 basechar 0
AnchorPoint: "Anchor-1" 192 668 basechar 0
LayerCount: 2
Fore
SplineSet
367 328 m 0xec
 367 371.714769977 349.25042373 392 311 392 c 0
 247.833223828 392 206.952662701 345.758053807 189 254 c 1
 135 0 l 1
 -21 0 l 1xf4
 121 668 l 1
 272 668 l 1
 222 432 l 1
 258.170173696 481.231625309 322.345778777 510 396 510 c 0
 483.041671572 510 528 460.954550806 528 366 c 0
 528 339.735066128 524.685619531 311.562832142 518 281 c 2
 458 0 l 1
 302 0 l 1
 367 305 367 305 367 328 c 0xec
EndSplineSet
EndChar

StartChar: i
Encoding: 105 105 49
Width: 338
GlyphClass: 1
Flags: W
HStem: 0 21G<48 208.234> 380 116<51 129> 578 179<207.525 323.695>
VStem: 48 156<0 156> 177 179<608.982 726.588>
DStem2: 48 0 204 0 0.207912 0.978148<32.4342 388.537>
AnchorPoint: "Anchor-2" 204 0 basechar 0
LayerCount: 2
Fore
SplineSet
48 0 m 1xf0
 129 380 l 1
 26 380 l 1
 51 496 l 1
 309 496 l 1
 204 0 l 1
 48 0 l 1xf0
356 668 m 0xe8
 356 618 316 578 266 578 c 0
 216.277477022 578 177 617.718796988 177 668 c 0
 177 718 216 757 266 757 c 0
 316.781084628 757 356 718.216850354 356 668 c 0xe8
EndSplineSet
Substitution2: "Single Substitution lookup 4 subtable" dotlessi
Substitution2: "Single Substitution lookup 3 subtable" dotlessi
EndChar

StartChar: j
Encoding: 106 106 50
Width: 263
GlyphClass: 1
Flags: W
HStem: -162 120<-148 -28.4207> 476 20G<88.7549 249> 578 180<146.982 265.018>
VStem: 93 156<340 496> 116 180<608.982 727.018>
DStem2: -46.7239 -162 108.677 -162 0.207912 0.978148<124.851 672.671>
LayerCount: 2
Fore
SplineSet
-74 -162 m 0xf0
 -103.542230954 -162 -116.653316384 -161.737778291 -174 -160 c 1
 -148 -42 l 1
 -87 -42 l 2
 -30.1356785646 -42 -19.0359413589 -31.1677263414 -4 39 c 2
 93 496 l 1
 249 496 l 1
 148 23 l 2
 114.956154762 -130.203282467 76.8000937225 -162 -74 -162 c 0xf0
296 668 m 0xe8
 296 618 256 578 206 578 c 0
 156 578 116 618 116 668 c 0
 116 718 156 758 206 758 c 0
 256 758 296 718 296 668 c 0xe8
EndSplineSet
EndChar

StartChar: k
Encoding: 107 107 51
Width: 562
GlyphClass: 2
Flags: W
HStem: 0 21G<-21 139.194 313.674 487> 476 20G<366.107 586> 648 20G<116.749 276>
VStem: 121 155<513 668> 388 198<298 496>
DStem2: -21 0 135 0 0.207912 0.978148<32.4342 159.13 366.426 682.926> 203 327 342 283 0.752467 0.65863<75.6132 250.515> 342 283 229 184 0.455997 -0.889981<36.5804 243.657>
AnchorPoint: "Anchor-1" 397 796 basechar 0
AnchorPoint: "Anchor-0" 218 0 basechar 0
LayerCount: 2
Fore
SplineSet
-21 0 m 1
 121 668 l 1
 276 668 l 1
 203 327 l 1
 388 496 l 1
 586 496 l 1
 342 283 l 1
 487 0 l 1
 324 0 l 1
 229 184 l 1
 161 124 l 1
 135 0 l 1
 -21 0 l 1
EndSplineSet
EndChar

StartChar: l
Encoding: 108 108 52
Width: 317
GlyphClass: 2
Flags: W
HStem: 0 124<174.025 244> 648 20G<116.758 277>
VStem: 4 168<65.4615 216.375> 121 156<512 668>
DStem2: -20.7579 0 135.638 0 0.207912 0.978148<196.09 682.876>
AnchorPoint: "Anchor-1" 198 668 basechar 0
AnchorPoint: "Anchor-0" 108 0 basechar 0
LayerCount: 2
Fore
SplineSet
172 159 m 0xe0
 172 134.090817449 187.856998848 124 227 124 c 2
 270 124 l 1
 244 0 l 1
 147 0 l 2
 50.1110784698 0 4 31.9230543252 4 99 c 0xe0
 4 110.447627874 5.42261628933 122.113081447 9 140 c 2
 121 668 l 1
 277 668 l 1xd0
 179 204 l 2
 174.252858186 184.062004382 172 169.579344613 172 159 c 0xe0
EndSplineSet
EndChar

StartChar: m
Encoding: 109 109 53
Width: 895
GlyphClass: 1
Flags: W
HStem: 0 21G<-20 140.264 298 458.215 617 777.276> 392 118<295.337 422.365 598.351 748.664> 476 20G<80.7661 222.562>
VStem: -20 156<0 156> 298 156<0 156> 617 156<0 156> 684 161<234.93 383.808>
DStem2: -20 0 136 0 0.207912 0.978148<32.4342 401.23> 298 0 454 0 0.207912 0.978148<32.4342 337.475> 617 0 773 0 0.207912 0.978148<32.4342 343.701>
AnchorPoint: "Anchor-1" 514 496 basechar 0
LayerCount: 2
Fore
SplineSet
363 332 m 0xda
 363 374.612088225 347.350879403 392 309 392 c 0xda
 249.313020408 392 210.10043364 347.470452315 191 258 c 2
 136 0 l 1
 -20 0 l 1
 85 496 l 1
 221 496 l 1xba
 226 432 l 1
 267.894668921 482.872097975 322.846060202 510 384 510 c 0
 460.729167437 510 503.932572164 484.202283508 523 427 c 1
 567.672114628 482.591964871 626.450792375 510 701 510 c 0
 796.328851593 510 845 462.680827937 845 370 c 0xda
 845 344.478211171 841.616760067 317.412291705 835 290 c 2
 773 0 l 1
 617 0 l 1xdc
 673 263 l 2
 680.488416816 295.761823569 684 319.704436189 684 338 c 0
 684 375.803846259 667.203988713 392 628 392 c 0
 567.483755964 392 528.153729833 348.703920814 509 261 c 2
 454 0 l 1
 298 0 l 1
 354 263 l 2
 360 292 363 315 363 332 c 0xda
EndSplineSet
EndChar

StartChar: n
Encoding: 110 110 54
Width: 579
GlyphClass: 2
Flags: W
HStem: 0 21G<-20 140.252 303 463.27> 392 118<294.864 440.521> 476 20G<80.7661 222.562>
VStem: -20 156<0 156> 303 156<0 156> 368 161<227.164 383.271>
DStem2: -20 0 136 0 0.207912 0.978148<32.4342 400.034> 303 0 459 0 0.207912 0.978148<32.4342 333.556>
AnchorPoint: "Anchor-1" 344 496 basechar 0
AnchorPoint: "Anchor-0" 218 0 basechar 0
LayerCount: 2
Fore
SplineSet
368 328 m 0xd4
 368 371.714769977 350.25042373 392 312 392 c 0xd4
 249.833222074 392 208.949231774 345.754174907 190 254 c 2
 136 0 l 1
 -20 0 l 1
 85 496 l 1
 221 496 l 1xb4
 226 432 l 1
 262.094101901 482.130697084 323.192189062 510 397 510 c 0
 484.041671572 510 529 460.954550806 529 366 c 0xd4
 529 339.735066128 525.685619531 311.562832142 519 281 c 2
 459 0 l 1
 303 0 l 1xd8
 359 263 l 2
 364.942445713 288.75059809 368 310.832934607 368 328 c 0xd4
EndSplineSet
EndChar

StartChar: o
Encoding: 111 111 55
Width: 576
GlyphClass: 2
Flags: W
HStem: -13 118<186.603 311.395> 392 118<225.003 354.8>
VStem: 5 154<132.819 313.752> 381 155<183.635 365.653>
AnchorPoint: "Anchor-2" 332 0 basechar 0
AnchorPoint: "Anchor-1" 317 496 basechar 0
AnchorPoint: "Anchor-0" 235 0 basechar 0
LayerCount: 2
Fore
SplineSet
159 206 m 0
 159 140.116229403 188.900947809 105 245 105 c 0
 326.727468184 105 381 179.624731247 381 292 c 0
 381 359.708187723 352.260287074 392 292 392 c 0
 212.314250663 392 159 317.440220878 159 206 c 0
536 295 m 0
 536 111.722133065 415.73222883 -13 239 -13 c 0
 96.3293262325 -13 5 71.6942897114 5 204 c 0
 5 384.151541731 127.147033026 510 302 510 c 0
 445.832601384 510 536 427.153885887 536 295 c 0
EndSplineSet
Substitution2: "Single Substitution lookup 12 subtable" ordmasculine
Substitution2: "'aalt' Access All Alternates lookup 0 subtable" ordmasculine
EndChar

StartChar: p
Encoding: 112 112 56
Width: 590
GlyphClass: 1
Flags: W
HStem: -161 21G<-55 105.242> -13 118<208.312 329.305> 392 118<287.342 428.65> 476 20G<80.7382 220.765>
VStem: -55 156<-161 -5> 394 158<179.001 360.457>
DStem2: -55 -161 101 -161 0.207912 0.978148<32.4342 268.574>
AnchorPoint: "Anchor-1" 373 496 basechar 0
LayerCount: 2
Fore
SplineSet
308 392 m 0xec
 230.846091836 392 174 314.791128998 174 210 c 0
 174 146.017240361 207.985713442 105 261 105 c 0
 341.200673224 105 394 175.266773229 394 282 c 0
 394 352.174520129 362.863715737 392 308 392 c 0xec
287 -13 m 0
 229.258761813 -13 180.135334958 16.7609082402 150 70 c 1
 101 -161 l 1
 -55 -161 l 1
 85 496 l 1
 219 496 l 1xdc
 225 428 l 1
 256.058405959 480.097971287 311.121897858 510 376 510 c 0
 481.300182408 510 552 427.650780646 552 305 c 0
 552 123.899989009 437.916675826 -13 287 -13 c 0
EndSplineSet
EndChar

StartChar: q
Encoding: 113 113 57
Width: 601
GlyphClass: 1
Flags: W
HStem: -173 139<412.61 579.087> -12 118<128.427 269.775> 393 117<230.508 347.056> 476 20G<429.565 575>
VStem: 4 152<143.985 305.778> 308 165<-88.0893 55.3016>
LayerCount: 2
Fore
SplineSet
156 218 m 0xec
 156 151.138237014 193.883877494 106 250 106 c 0
 325.329166713 106 381 185.469052096 381 293 c 0
 381 354.055566662 345.950009996 393 291 393 c 0
 221.285510495 393 156 308.370634543 156 218 c 0xec
326 56 m 1
 290.168386061 12.2058051854 239.265001627 -12 183 -12 c 0
 73.853322183 -12 4 69.1703408607 4 196 c 0
 4 373.502205834 116.588944869 510 263 510 c 0xec
 326.018073504 510 377.007740305 479.984806067 404 427 c 1
 440 496 l 1
 575 496 l 1xdc
 553 390 478 38 476 28 c 0
 474.045199175 18.2259958739 473 9.16760302581 473 2 c 0
 473 -23.1385019446 487.180289128 -34 520 -34 c 0
 542.484439198 -34 573.225031337 -29.4587761612 608 -21 c 1
 580 -151 l 1
 547.426360452 -164.819119808 503.547093969 -173 462 -173 c 0
 363.219884332 -173 308 -128.178665315 308 -48 c 0
 308 -32.7449712416 309.584695054 -18.7996547657 313 -4 c 0
 322.954038541 39.134167009 322.421750851 36.6774545978 326 56 c 1
EndSplineSet
EndChar

StartChar: r
Encoding: 114 114 58
Width: 391
GlyphClass: 2
Flags: W
HStem: 0 21G<-20 140.242> 361 149<287.582 371.859> 476 20G<80.7661 209.609>
VStem: -20 156<0 156>
DStem2: -20 0 136 0 0.207912 0.978148<32.4342 368.013>
AnchorPoint: "Anchor-1" 249 496 basechar 0
AnchorPoint: "Anchor-0" 57 0 basechar 0
LayerCount: 2
Fore
SplineSet
215 409 m 1xb0
 255.139507542 480.247625886 301.262721583 509.003456863 377 510 c 1
 403 510 l 1
 371 358 l 1
 353.792046979 360.024465061 338.833844586 361 325 361 c 0xd0
 246 361 204 322 185 231 c 2
 136 0 l 1
 -20 0 l 1
 85 496 l 1
 208 496 l 1
 215 409 l 1xb0
EndSplineSet
EndChar

StartChar: s
Encoding: 115 115 59
Width: 515
GlyphClass: 2
Flags: W
HStem: -13 109<149.863 293.746> 399 111<179.568 323.32>
VStem: 30 144<331.711 390.017> 306 148<110.711 166.812>
AnchorPoint: "Anchor-1" 274 496 basechar 0
AnchorPoint: "Anchor-0" 215 0 basechar 0
LayerCount: 2
Fore
SplineSet
454 156 m 0
 454 56 373 -13 229 -13 c 0
 118 -13 32 24 -10 116 c 1
 120 160 l 1
 134 99 208 96 224 96 c 0
 262 96 306 111 306 139 c 0
 306 170 259 181 203 197 c 0
 125 219 30 250 30 357 c 0
 30 447 125 510 243 510 c 0
 281 510 409 510 471 400 c 1
 339 355 l 1
 334 367 322 399 241 399 c 256
 174 399 174 363 174 362 c 0
 174 328 222 317 279 302 c 0
 358 281 454 255 454 156 c 0
EndSplineSet
EndChar

StartChar: t
Encoding: 116 116 60
Width: 391
GlyphClass: 2
Flags: W
HStem: 0 124<219.415 289> 380 116<53 106 286 370>
VStem: 50 167<79.5832 218.477>
DStem2: 25.1165 0 180.426 0 0.207912 0.978148<196.887 388.513 539.402 633.872>
AnchorPoint: "Anchor-1" 230 620 basechar 0
AnchorPoint: "Anchor-0" 143 0 basechar 0
LayerCount: 2
Fore
SplineSet
217 160 m 0
 217 134.735620054 233.401641749 124 272 124 c 2
 315 124 l 1
 289 0 l 1
 193 0 l 2
 151.39736838 0 115.919349872 7.50496545372 89 22 c 0
 62.8816835782 36.0637088425 50 61.1664768411 50 98 c 0
 50 111.093073681 52.3711355672 128.707223609 57 150 c 2
 106 380 l 1
 28 380 l 1
 53 496 l 1
 131 496 l 1
 157 620 l 1
 312 620 l 1
 286 496 l 1
 394 496 l 1
 370 380 l 1
 261 380 l 1
 224 205 l 2
 219.252858186 185.062004382 217 170.579344613 217 160 c 0
EndSplineSet
EndChar

StartChar: u
Encoding: 117 117 61
Width: 578
GlyphClass: 2
Flags: W
HStem: -12 118<111.914 255.133> 0 21G<319.438 460.234> 476 20G<81.7246 241 401.725 561>
VStem: 17 162<115.713 275.922> 86 155<341 496> 406 155<341 496>
DStem2: -22.3131 -12 133.499 -12 0.207912 0.978148<225.593 519.419> 297.711 -12 453.449 -12 0.207912 0.978148<152.208 519.414>
AnchorPoint: "Anchor-2" 456 0 basechar 0
AnchorPoint: "Anchor-1" 322 496 basechar 0
AnchorPoint: "Anchor-0" 236 0 basechar 0
LayerCount: 2
Fore
SplineSet
316 64 m 1x74
 286.257188456 15.4200744774 229.613087232 -12 159 -12 c 0
 64.8286898939 -12 17 37.1759769332 17 134 c 0xb4
 17 157.110043759 19.7130492653 180.44226744 27 220 c 1
 86 496 l 1
 241 496 l 1xac
 186 235 l 2
 181.242933419 212.16608041 179 192.940936821 179 175 c 0
 179 129.441249534 196.665869214 106 231 106 c 0xb4
 290.117242078 106 333.033616623 152.162150771 350 234 c 2
 406 496 l 1
 561 496 l 1
 456 0 l 1
 321 0 l 1
 316 64 l 1x74
EndSplineSet
EndChar

StartChar: v
Encoding: 118 118 62
Width: 533
GlyphClass: 1
Flags: W
HStem: 0 21G<104.097 296.411> 476 20G<35 187.947 387.44 568>
VStem: 35 151<345 496>
DStem2: 219 157 285 0 0.495573 0.868566<0 383.152>
LayerCount: 2
Fore
SplineSet
107 0 m 1
 35 496 l 1
 186 496 l 1
 219 157 l 1
 398 496 l 1
 568 496 l 1
 285 0 l 1
 107 0 l 1
EndSplineSet
EndChar

StartChar: w
Encoding: 119 119 63
Width: 727
GlyphClass: 1
Flags: W
HStem: 0 21G<53.2339 222.315 359 542.234> 476 20G<35 181.249 305.025 463 595.157 762>
VStem: 35 146<313.263 496> 359 96<159 356> 362 101<201.125 356>
DStem2: 185 175 214 0 0.383879 0.923384<0 235.079> 455 159 533 0 0.419174 0.907906<0 368.421>
LayerCount: 2
Fore
SplineSet
54 0 m 1xe8
 35 496 l 1
 181 496 l 1
 185 175 l 1
 313 496 l 1
 463 496 l 1xe8
 455 159 l 1
 604 496 l 1
 762 496 l 1
 533 0 l 1
 359 0 l 1xf0
 362 356 l 1
 214 0 l 1
 54 0 l 1xe8
EndSplineSet
EndChar

StartChar: x
Encoding: 120 120 64
Width: 536
GlyphClass: 1
Flags: W
HStem: 0 21G<-71 131.298 302.929 464> 476 20G<66 226 368.5 571>
VStem: -71 184<0 184>
DStem2: -71 0 113 0 0.678403 0.73469<124.826 315.931 511.649 675.115> 216 496 66 496 0.447214 -0.894427<0 134.164 329.149 487.016>
AnchorPoint: "Anchor-1" 300 496 basechar 0
AnchorPoint: "Anchor-0" 216 0 basechar 0
LayerCount: 2
Fore
SplineSet
-71 0 m 1
 179 270 l 1
 66 496 l 1
 216 496 l 1
 276 376 l 1
 387 496 l 1
 571 496 l 1
 340 246 l 1
 464 0 l 1
 313 0 l 1
 242 141 l 1
 113 0 l 1
 -71 0 l 1
EndSplineSet
EndChar

StartChar: y
Encoding: 121 121 65
Width: 527
GlyphClass: 2
Flags: W
HStem: -161 110<-21 102.673> 476 20G<35 191.899 375.494 562>
AnchorPoint: "Anchor-1" 302 496 basechar 0
AnchorPoint: "Anchor-0" 383 0 basechar 0
LayerCount: 2
Fore
SplineSet
-44 -161 m 1
 -21 -51 l 1
 10 -51 l 2
 84.882423245 -51 99.9669354064 -44.0692781961 121 0 c 1
 35 496 l 1
 190 496 l 1
 220 180 l 1
 386 496 l 1
 562 496 l 1
 266 0 l 1
 178.978796389 -148.036070511 157.962736782 -161 5 -161 c 2
 -44 -161 l 1
EndSplineSet
EndChar

StartChar: z
Encoding: 122 122 66
Width: 528
GlyphClass: 2
Flags: W
HStem: 0 121<203 437> 375 121<91 296>
DStem2: -14 121 203 121 0.773512 0.633781<167.852 400.769>
AnchorPoint: "Anchor-1" 317 496 basechar 0
AnchorPoint: "Anchor-0" 211 0 basechar 0
LayerCount: 2
Fore
SplineSet
-40 0 m 1
 -14 121 l 1
 296 375 l 1
 65 375 l 1
 91 496 l 1
 539 496 l 1
 513 375 l 1
 203 121 l 1
 462 121 l 1
 437 0 l 1
 -40 0 l 1
EndSplineSet
EndChar

StartChar: circumflex
Encoding: 710 710 67
Width: 480
GlyphClass: 1
Flags: W
HStem: 574 152
LayerCount: 2
Fore
SplineSet
89 574 m 1
 278 711 l 2
 290.867683624 720.898218172 305.832910319 726 322 726 c 0
 344.200457853 726 362.133621973 717.848561764 377 701 c 2
 495 574 l 1
 379 574 l 1
 320 635 l 1
 236 574 l 1
 89 574 l 1
EndSplineSet
EndChar

StartChar: caron
Encoding: 711 711 68
Width: 476
GlyphClass: 1
Flags: W
HStem: 568 152
LayerCount: 2
Fore
SplineSet
288 568 m 0
 266.638476068 568 248.752433654 576.280575192 234 593 c 2
 120 720 l 1
 235 720 l 1
 291 659 l 1
 375 720 l 1
 522 720 l 1
 332 583 l 2
 318.733326284 572.794866372 304.668384925 568 288 568 c 0
EndSplineSet
EndChar

StartChar: breve
Encoding: 728 728 69
Width: 385
GlyphClass: 1
Flags: W
HStem: 567 82<222.28 327.421>
LayerCount: 2
Fore
SplineSet
457 702 m 1
 420.656618663 607.103393176 365.10599256 567 270 567 c 0
 173.656675462 567 116.938220242 611.517392179 98 702 c 1
 208 702 l 1
 214.033177749 666.806463129 236.20726391 649 274 649 c 0
 311.132185814 649 336.024789399 668.120405652 343 702 c 1
 457 702 l 1
EndSplineSet
EndChar

StartChar: dotaccent
Encoding: 729 729 70
Width: 204
GlyphClass: 1
Flags: W
HStem: 578 141<119.875 219.625>
VStem: 99 141<598.375 698.125>
LayerCount: 2
Fore
SplineSet
240 648 m 0
 240 609 209 578 170 578 c 0
 130.72105084 578 99 609.274275476 99 648 c 0
 99 687 131 719 170 719 c 0
 208.725724524 719 240 687.27894916 240 648 c 0
EndSplineSet
EndChar

StartChar: ring
Encoding: 730 730 71
Width: 301
GlyphClass: 1
Flags: W
HStem: 535 86<182.696 261.494> 715 85<182.552 261.762>
VStem: 90 85<628.548 707.448> 269 86<628.506 707.613>
LayerCount: 2
Fore
SplineSet
175 668 m 0
 175 642 196 621 222 621 c 0
 248 621 269 642 269 668 c 0
 269 695 249 715 222 715 c 0
 196 715 175 694 175 668 c 0
355 668 m 0
 355 595 295 535 222 535 c 0
 149.774303437 535 90 595.227139069 90 668 c 0
 90 741 149 800 222 800 c 0
 295.776645067 800 355 741.22193345 355 668 c 0
EndSplineSet
EndChar

StartChar: ogonek
Encoding: 731 731 72
Width: 296
GlyphClass: 1
Flags: W
HStem: -173 76<33.7691 154.469> -20 20G<13.7502 183>
VStem: -52 128<-120.166 -44.4839>
LayerCount: 2
Fore
SplineSet
76 -75 m 0
 76 -89.9187185593 89.8406864523 -97 119 -97 c 0
 132 -97 149 -94 170 -88 c 1
 154 -164 l 1
 133.86809894 -168.793309776 96.0078869259 -173 73 -173 c 0
 -5.46188564834 -173 -52 -144.332521559 -52 -96 c 0
 -52 -55.5981365048 -11.4996090712 -12.8724493711 39 0 c 1
 183 0 l 1
 95.9612413017 -40.0178200912 76 -54.0093443681 76 -75 c 0
EndSplineSet
EndChar

StartChar: quoteleft
Encoding: 8216 8216 73
Width: 281
GlyphClass: 1
Flags: W
HStem: 340 328<193 201.214>
VStem: 67 194<376.822 496.438> 193 99<569 668>
DStem2: 81 488 203 526 0.528302 0.849057<96.717 212>
LayerCount: 2
Fore
SplineSet
261 438 m 0xc0
 261 382.282543173 218.286002304 340 162 340 c 0
 108.341408207 340 67 382.646926361 67 438 c 0xc0
 67 455.573996668 71.7736517492 472.622752915 81 488 c 2
 193 668 l 1
 292 668 l 1xa0
 203 526 l 1
 238.412816666 510.823078572 261 476.552869376 261 438 c 0xc0
EndSplineSet
EndChar

StartChar: quoteright
Encoding: 8217 8217 74
Width: 282
GlyphClass: 1
Flags: W
HStem: 351 329<156.484 165>
VStem: 66 99<351 450> 97 196<522.562 642.875>
DStem2: 66 351 165 351 0.53169 0.846939<52.6373 167.586>
LayerCount: 2
Fore
SplineSet
195 680 m 0xa0
 249.052092889 680 293 636.948988952 293 584 c 0xa0
 293 566.598092166 286.798717444 544.686893802 278 531 c 2
 165 351 l 1
 66 351 l 1xc0
 155 493 l 1
 119.860142292 510.067930887 97 545.146425094 97 582 c 0
 97 637 140 680 195 680 c 0xa0
EndSplineSet
EndChar

StartChar: quotesinglbase
Encoding: 8218 8218 75
Width: 282
GlyphClass: 1
Flags: W
HStem: -145 329<50.4844 59>
VStem: -40 99<-145 -46> -9 196<26.5625 146.875>
DStem2: -40 -145 59 -145 0.53169 0.846939<52.6373 167.586>
LayerCount: 2
Fore
SplineSet
89 184 m 0xa0
 143.052092889 184 187 140.948988952 187 88 c 0xa0
 187 70.5980921665 180.798717444 48.6868938017 172 35 c 2
 59 -145 l 1
 -40 -145 l 1xc0
 49 -3 l 1
 13.8601422924 14.0679308865 -9 49.1464250939 -9 86 c 0
 -9 141 34 184 89 184 c 0xa0
EndSplineSet
EndChar

StartChar: quotedblleft
Encoding: 8220 8220 76
Width: 505
GlyphClass: 1
Flags: W
HStem: 340 328<193 201.214 417 425.028>
VStem: 67 194<376.822 498.975> 193 99<569 668> 291 194<376.293 496.438> 417 99<569 668>
DStem2: 92 506 203 526 0.529057 0.848586<75.697 190.906> 305 488 427 526 0.528302 0.849057<96.717 212>
LayerCount: 2
Fore
SplineSet
485 436 m 0x90
 485 381.84840158 441.843835871 340 386 340 c 0
 334.881972362 340 291 381.110479371 291 429 c 0x90
 291 455.574731737 295.20930936 473.31396404 305 488 c 2
 417 668 l 1
 516 668 l 1x88
 427 526 l 1
 461.858359663 510.064749868 485 474.155307966 485 436 c 0x90
261 438 m 0xc0
 261 382.282543173 218.286002304 340 162 340 c 0
 108 340 67 381 67 435 c 0xc0
 67 457.980005342 72.9834450569 474.972989303 92 506 c 2
 193 668 l 1
 292 668 l 1xa0
 203 526 l 1
 238.412816666 510.823078572 261 476.552869376 261 438 c 0xc0
EndSplineSet
EndChar

StartChar: quotedblright
Encoding: 8221 8221 77
Width: 505
GlyphClass: 1
Flags: W
HStem: 350 328<156.972 165 380.575 389>
VStem: 66 99<350 449> 97 194<521.562 641.707> 290 99<350 449> 321 194<520.373 642.3>
DStem2: 66 350 165 350 0.528302 0.849057<52.3019 167.585> 290 350 389 350 0.529057 0.848586<52.3766 167.585>
LayerCount: 2
Fore
SplineSet
196 678 m 0xa0
 247.118027638 678 291 636.889520629 291 589 c 0xa0
 291 565.024390094 286.410987066 545.684978443 277 530 c 2
 165 350 l 1
 66 350 l 1xc0
 155 492 l 1
 120.141640337 507.935250132 97 543.844692034 97 582 c 0
 97 636.15159842 140.156164129 678 196 678 c 0xa0
420 678 m 0
 474 678 515 637 515 583 c 0x88
 515 560.019994658 509.016554943 543.027010697 490 512 c 2
 389 350 l 1
 290 350 l 1x90
 379 492 l 1
 344.047497386 506.979643977 321 541.948260701 321 580 c 0x88
 321 636.212282154 363.21412313 678 420 678 c 0
EndSplineSet
EndChar

StartChar: dagger
Encoding: 8224 8224 79
Width: 594
GlyphClass: 1
Flags: W
HStem: 1 21G<155 304.222> 380 116<77 236 405 564> 648 20G<292.698 442>
VStem: 155 145<1 146> 297 145<523 668>
DStem2: 155 1 300 1 0.207912 0.978148<30.1472 387.559 536.161 681.948>
LayerCount: 2
Fore
SplineSet
155 1 m 1xf0
 236 380 l 1
 52 380 l 1
 77 496 l 1
 260 496 l 1
 297 668 l 1
 442 668 l 1xe8
 405 496 l 1
 588 496 l 1
 564 380 l 1
 380 380 l 1
 300 1 l 1
 155 1 l 1xf0
EndSplineSet
EndChar

StartChar: daggerdbl
Encoding: 8225 8225 80
Width: 595
GlyphClass: 1
Flags: W
HStem: 1 21G<155 305.07> 173 115<33 192 361 520> 380 116<77 236 405 564> 648 20G<292.698 442>
VStem: 155 146<1 147> 297 145<523 668>
DStem2: 155 1 301 1 0.207912 0.978148<30.3551 175.934 323.558 387.559 536.161 681.948>
LayerCount: 2
Fore
SplineSet
155 1 m 1xf8
 192 173 l 1
 8 173 l 1
 33 288 l 1
 216 288 l 1
 236 380 l 1
 52 380 l 1
 77 496 l 1
 260 496 l 1
 297 668 l 1
 442 668 l 1xf4
 405 496 l 1
 589 496 l 1
 564 380 l 1
 381 380 l 1
 361 288 l 1
 544 288 l 1
 520 173 l 1
 336 173 l 1
 301 1 l 1
 155 1 l 1xf8
EndSplineSet
EndChar

StartChar: bullet
Encoding: 8226 8226 81
Width: 446
GlyphClass: 1
Flags: W
HStem: 88 332<124.23 289.77>
VStem: 41 332<171.23 336.77>
LayerCount: 2
Fore
SplineSet
373 254 m 0
 373 162 299 88 207 88 c 0
 115 88 41 162 41 254 c 0
 41 346 115 420 207 420 c 0
 299 420 373 346 373 254 c 0
EndSplineSet
EndChar

StartChar: ellipsis
Encoding: 8230 8230 82
Width: 807
GlyphClass: 1
Flags: W
HStem: -12 196<28.5485 148.951 291.761 411.875 554.548 675.161>
VStem: -9 195<25.5485 146.781> 255 194<25.1255 146.875> 517 195<25.5485 146.875>
LayerCount: 2
Fore
SplineSet
449 86 m 0
 449 31 406 -12 351 -12 c 0
 298.051011048 -12 255 31.9479071115 255 86 c 0
 255 141.062513858 297.061210915 184 351 184 c 0
 406 184 449 141 449 86 c 0
186 86 m 0
 186 31.721376135 142.724760356 -12 89 -12 c 0
 35 -12 -9 32 -9 86 c 0
 -9 141 34 184 89 184 c 0
 143.219559921 184 186 140.778524457 186 86 c 0
712 86 m 0
 712 31.2214755433 669.219559921 -12 615 -12 c 0
 561 -12 517 32 517 86 c 0
 517 141 560 184 615 184 c 0
 669.719670434 184 712 141.283790748 712 86 c 0
EndSplineSet
EndChar

StartChar: perthousand
Encoding: 8240 8240 83
Width: 1472
GlyphClass: 1
Flags: W
HStem: -12 119<731.123 838.416 1160.12 1267.42> 0 21G<226 366.012> 263 119<741.64 848.824 1170.64 1277.82> 286 119<192.9 303.382> 561 119<205.927 313.288> 648 20G<679.018 820>
VStem: 56 119<424.204 530.249> 226 126<0 126> 334 119<437.277 540.956> 592 119<126.991 230.704> 693 127<541 668> 869 119<136.55 242.824> 1021 119<126.991 230.704> 1298 119<136.55 242.824>
DStem2: 226 0 352 0 0.573791 0.819001<72.2977 815.054>
LayerCount: 2
Fore
SplineSet
1140 177 m 0xa21c
 1140 136.288312575 1169.70671704 107 1211 107 c 0
 1258.04118315 107 1298 146.040223361 1298 192 c 0
 1298 233 1268 263 1227 263 c 0
 1180.2323456 263 1140 223.230095152 1140 177 c 0xa21c
711 177 m 0xa25c
 711 136.288312575 740.706717041 107 782 107 c 0
 829.041183148 107 869 146.040223361 869 192 c 0
 869 233 839 263 798 263 c 0
 751.232345602 263 711 223.230095152 711 177 c 0xa25c
1417 205 m 0
 1417 87.5430496522 1316.53950289 -12 1198 -12 c 0
 1097 -12 1021 64 1021 165 c 0
 1021 282.456950348 1121.46049711 382 1240 382 c 0
 1341 382 1417 306 1417 205 c 0
988 205 m 0
 988 87.5430496522 887.539502886 -12 769 -12 c 0
 668 -12 592 64 592 165 c 0
 592 282.456950348 692.460497114 382 811 382 c 0
 912 382 988 306 988 205 c 0
175 474 m 0
 175 434.077434197 204.920258376 405 246 405 c 0
 294.276159977 405 334 444.27243275 334 492 c 0
 334 530.936639994 303.065238254 561 263 561 c 0x1a9c
 215.729601665 561 175 520.733234718 175 474 c 0
226 0 m 1x473c
 693 668 l 1
 820 668 l 1
 352 0 l 1
 226 0 l 1x473c
453 503 m 0x1a9c
 453 385.543049652 352.539502886 286 234 286 c 0
 133.151383636 286 56 361.851079418 56 461 c 0
 56 579 157 680 275 680 c 0
 376.785401389 680 453 604.213573291 453 503 c 0x1a9c
EndSplineSet
EndChar

StartChar: guilsinglleft
Encoding: 8249 8249 84
Width: 401
GlyphClass: 1
Flags: W
VStem: 217 171<289 460>
DStem2: 24 250 191 244 0.673864 0.738856<108.102 285.215>
LayerCount: 2
Fore
SplineSet
127 40 m 1
 24 250 l 1
 217 460 l 1
 388 460 l 1
 191 244 l 1
 291 40 l 1
 127 40 l 1
EndSplineSet
EndChar

StartChar: guilsinglright
Encoding: 8250 8250 85
Width: 402
GlyphClass: 1
Flags: W
VStem: -20 171<40 211>
DStem2: -20 40 151 40 0.673864 0.738856<115.231 292.344>
LayerCount: 2
Fore
SplineSet
-20 40 m 1
 177 256 l 1
 77 460 l 1
 241 460 l 1
 344 250 l 1
 151 40 l 1
 -20 40 l 1
EndSplineSet
EndChar

StartChar: fraction
Encoding: 8260 8260 86
Width: 482
GlyphClass: 1
Flags: W
HStem: 0 21G<-55 85.982> 648 20G<398.988 539>
VStem: -55 127<0 127> 413 126<542 668>
DStem2: -55 0 72 0 0.573791 0.819001<72.8715 815.627>
LayerCount: 2
Fore
SplineSet
-55 0 m 1
 413 668 l 1
 539 668 l 1
 72 0 l 1
 -55 0 l 1
EndSplineSet
EndChar

StartChar: ordfeminine
Encoding: 170 170 87
Width: 395
GlyphClass: 1
Flags: W
HStem: 396 68<147.191 250.956> 625 67<188.635 292.395>
VStem: 86 107<465.244 515.87> 272 86<403 435> 294 94<582.294 621.857>
LayerCount: 2
Fore
SplineSet
193 489 m 0xe0
 193 474.171991208 204.799509801 464 222 464 c 0
 248.337930555 464 269.100767364 481.365281694 277 510 c 2
 282 528 l 1
 256 525 l 2
 208.838876788 518.979431079 193 509.928644343 193 489 c 0xe0
270 435 m 1
 247 409 215 396 174 396 c 0
 120.382117632 396 86 427.647176457 86 477 c 0
 86 544.017242638 142.037805883 573.002314646 289 582 c 1
 291.721746571 585.628995428 294 594.286358458 294 601 c 0
 294 616 279 625 254 625 c 0
 232.038446532 625 214.012285493 615.028081128 207 599 c 1
 127 631 l 1
 156.282239855 673.408761169 198.645882436 692 266 692 c 0
 346.031252978 692 388 658.975412179 388 596 c 0xe8
 388 553 371 529 358 403 c 1
 272 403 l 1xf0
 270 435 l 1
EndSplineSet
EndChar

StartChar: guillemotleft
Encoding: 171 171 88
Width: 665
GlyphClass: 1
Flags: W
VStem: 229 171<289 460> 469 171<289 460>
DStem2: 36 250 203 244 0.673864 0.738856<108.102 285.215> 276 250 443 244 0.673864 0.738856<108.102 285.215>
LayerCount: 2
Fore
SplineSet
139 40 m 1
 36 250 l 1
 229 460 l 1
 400 460 l 1
 203 244 l 1
 303 40 l 1
 139 40 l 1
379 40 m 1
 276 250 l 1
 469 460 l 1
 640 460 l 1
 443 244 l 1
 543 40 l 1
 379 40 l 1
EndSplineSet
EndChar

StartChar: logicalnot
Encoding: 172 172 89
Width: 696
GlyphClass: 1
Flags: W
HStem: 295 127<73 457>
VStem: 457 128<56 295>
LayerCount: 2
Fore
SplineSet
457 56 m 1
 457 295 l 1
 73 295 l 1
 73 422 l 1
 585 422 l 1
 585 56 l 1
 457 56 l 1
EndSplineSet
EndChar

StartChar: registered
Encoding: 174 174 90
Width: 814
GlyphClass: 1
Flags: W
HStem: -12 69<302.226 512.532> 300 75<347 379> 453 76<347 459.251> 610 69<302.42 512.549>
VStem: 62 70<228.688 438.774> 250 97<161 300 375 453> 467 101<381.92 446.057> 480 108<161 269> 684 70<228.616 439.057>
DStem2: 481 310 379 300 0.583299 -0.812258<0 120.443>
LayerCount: 2
Fore
SplineSet
467 414 m 0xfe80
 467 441.265396424 446.53966556 453 399 453 c 2
 347 453 l 1
 347 375 l 1
 399 375 l 2
 446.53966556 375 467 386.734603576 467 414 c 0xfe80
568 415 m 0
 568 361 539 326 481 310 c 1
 588 161 l 1
 480 161 l 1xfd80
 379 300 l 1
 347 300 l 1
 347 161 l 1
 250 161 l 1
 250 529 l 1
 401 529 l 2
 516.364338152 529 568 493.751703888 568 415 c 0
132 334 m 0
 132 180.94726926 255.052343128 57 407 57 c 0
 560 57 684 181 684 334 c 0
 684 486.723922227 560.277269772 610 407 610 c 0
 255.775299048 610 132 485.774608956 132 334 c 0
754 334 m 0
 754 142.776607256 598.776061509 -12 407 -12 c 0
 216.775961367 -12 62 143.224587342 62 334 c 0
 62 524 217 679 407 679 c 0
 598.550925502 679 754 524.446885586 754 334 c 0
EndSplineSet
EndChar

StartChar: macron
Encoding: 175 175 91
Width: 405
GlyphClass: 1
Flags: W
HStem: 570 98<125 403>
VStem: 104 320
LayerCount: 2
Fore
SplineSet
104 570 m 1
 125 668 l 1
 424 668 l 1
 403 570 l 1
 104 570 l 1
EndSplineSet
EndChar

StartChar: degree
Encoding: 176 176 92
Width: 411
GlyphClass: 1
Flags: W
HStem: 354 90<193.319 297.159> 590 89<193.362 297.019>
VStem: 83 89<467.06 568.638> 318 89<466.593 569.019>
LayerCount: 2
Fore
SplineSet
172 517 m 0
 172 477 205 444 245 444 c 0
 286 444 318 476 318 517 c 0
 318 558 286 590 245 590 c 0
 205 590 172 557 172 517 c 0
407 517 m 0
 407 425.718967762 335.721025905 354 245 354 c 0
 155.775966831 354 83 427.225201194 83 517 c 0
 83 606 156 679 245 679 c 0
 335 679 407 607 407 517 c 0
EndSplineSet
EndChar

StartChar: plusminus
Encoding: 177 177 93
Width: 701
GlyphClass: 1
Flags: W
HStem: 0 128<56 568> 283 108<56 248 376 568> 475 20G<248 376>
VStem: 248 128<180 283 391 495>
LayerCount: 2
Fore
SplineSet
56 0 m 1
 56 128 l 1
 568 128 l 1
 568 0 l 1
 56 0 l 1
248 180 m 1
 248 283 l 1
 56 283 l 1
 56 391 l 1
 248 391 l 1
 248 495 l 1
 376 495 l 1
 376 391 l 1
 568 391 l 1
 568 283 l 1
 376 283 l 1
 376 180 l 1
 248 180 l 1
EndSplineSet
EndChar

StartChar: uni00B2
Encoding: 178 178 94
Width: 407
GlyphClass: 1
Flags: W
HStem: 403 88<240 370> 667 21G<165.091 221.575> 711 77<229.186 316.937>
VStem: 321 106<625.093 706.427>
LayerCount: 2
Fore
SplineSet
427 689 m 0
 427 620.793990379 348.672171822 537.858642896 240 491 c 1
 388 491 l 1
 370 403 l 1
 70 403 l 1
 87 484 l 1
 267.960698439 583.428955186 321 626.721718426 321 675 c 0
 321 696.63767642 303.446048958 711 277 711 c 0
 247.396387108 711 227.150310225 696.396272412 216 667 c 1
 132 700 l 1
 160.886762118 758.769619481 212.704254856 788 288 788 c 0
 377.929306221 788 427 753.050369179 427 689 c 0
EndSplineSet
EndChar

StartChar: uni00B3
Encoding: 179 179 95
Width: 425
GlyphClass: 1
Flags: W
HStem: 396 76<206.163 298.7> 491 20G<136.606 200.45> 552 84<236 300.097> 676 21G<166.697 222.916> 713 75<226.262 321.257>
VStem: 305 105<480.685 544.109> 324 104<646.12 708.131>
LayerCount: 2
Fore
SplineSet
410 521 m 0xfc
 410 446.579114583 346.472632084 396 253 396 c 0
 184.353232354 396 128.155544359 425.730389778 98 478 c 1
 196 511 l 1
 204.899158875 485.291318806 224.665735561 472 254 472 c 0
 283.071463551 472 305 490.058794723 305 514 c 0xfc
 305 540.194824008 282.632298121 552 233 552 c 2
 218 552 l 1
 236 636 l 1
 251 636 l 2
 297.727647353 636 324 651.835390636 324 680 c 0
 324 700.043498828 305.939422608 713 278 713 c 0
 247.565939033 713 228.832507066 701.637098643 217 676 c 1
 134 709 l 1
 166.234877938 762.389016586 215.511706787 788 286 788 c 0
 372.810091536 788 428 749.133867279 428 688 c 0xfa
 428 645.355382658 403.34587407 612.109667388 362 599 c 1
 391.667504193 584.166247904 410 554.375942217 410 521 c 0xfc
EndSplineSet
EndChar

StartChar: acute
Encoding: 180 180 96
Width: 320
GlyphClass: 1
Flags: W
HStem: 574 153
VStem: 105 234
LayerCount: 2
Fore
SplineSet
282 727 m 0
 313.777088699 727 339 702.219595915 339 671 c 0
 339 640.223755402 333.678230224 635.390719586 241 582 c 1
 228 574 l 1
 105 574 l 1
 120 588 l 2
 130 597 141 609 155 623 c 2
 232 700 l 2
 244.679491924 712.679491924 247.154700538 715 248 715 c 0
 258.132014644 723.105611715 269.166114784 727 282 727 c 0
EndSplineSet
EndChar

StartChar: uni03BC
Encoding: 956 956 97
Width: 577
GlyphClass: 1
Flags: W
HStem: -161 21G<-55 105.179> -5 111<188.155 285.034> 475 20G<80.7317 240 399.758 560>
VStem: -55 156<-161 -5> 85 155<340 495> 404 156<339 495>
DStem2: -55 -161 101 -161 0.207912 0.978148<32.4342 237.774 378.507 670.772> 264.678 -161 420.778 -161 0.207912 0.978148<293.484 670.632>
LayerCount: 2
Fore
SplineSet
177 176 m 0xec
 177 125.424361434 195.591888801 106 244 106 c 0
 298.192180558 106 330.063488341 144.306860317 348 231 c 2
 404 495 l 1
 560 495 l 1
 455 0 l 1
 314 0 l 1
 310 43 l 1
 294.235640853 14.4270990467 256.59563645 -5 217 -5 c 0
 180.476339107 -5 153.132951542 11.6277356811 143 40 c 1
 101 -161 l 1
 -55 -161 l 1xf4
 85 495 l 1
 240 495 l 1
 184 231 l 2
 179.16515139 206.82575695 177 189.813853172 177 176 c 0xec
EndSplineSet
EndChar

StartChar: paragraph
Encoding: 182 182 98
Width: 530
GlyphClass: 1
Flags: W
HStem: -161 21G<62 162.258 252 351.258> 600 68<320 413 509 557>
VStem: 62 96<-161 -65> 252 95<-161 -66>
DStem2: 62 -161 158 -161 0.207912 0.978148<19.9595 469.52> 252 -161 347 -161 0.207912 0.978148<19.7516 777.844>
LayerCount: 2
Fore
SplineSet
51 438 m 0
 51 556.965813679 163.965215648 668 285 668 c 2
 572 668 l 1
 557 600 l 1
 509 600 l 1
 347 -161 l 1
 252 -161 l 1
 413 600 l 1
 320 600 l 1
 158 -161 l 1
 62 -161 l 1
 159 296 l 1
 92.0448873689 314.987270746 51 368.953696731 51 438 c 0
EndSplineSet
EndChar

StartChar: periodcentered
Encoding: 183 183 99
Width: 305
GlyphClass: 1
Flags: W
HStem: 151 194<75.4306 196.068>
VStem: 38 195<188.049 308.161>
LayerCount: 2
Fore
SplineSet
233 248 m 0
 233 194 190 151 136 151 c 0
 81.721376135 151 38 194.275239644 38 248 c 0
 38 302.219559921 81.2214755433 345 136 345 c 0
 191 345 233 303 233 248 c 0
EndSplineSet
EndChar

StartChar: cedilla
Encoding: 184 184 100
Width: 322
GlyphClass: 1
Flags: W
HStem: -195 54<-17.6423 99.314>
VStem: 103 91<-135.643 -86.8579>
DStem2: 22 -57 87 -47 0.639273 0.76898<49.2425 107.935>
LayerCount: 2
Fore
SplineSet
194 -103 m 0
 194 -161.052642576 144.923928941 -195 61 -195 c 0
 26.2642810377 -195 -12.8307868739 -188.076915057 -35 -178 c 1
 -9 -128 l 1
 9.35729075348 -136.695558778 29.2239425475 -141 51 -141 c 0
 82.4396802653 -141 103 -128.347495548 103 -109 c 0
 103 -94.1279711765 87.2003649647 -84 64 -84 c 0
 47 -84 52 -89 35 -89 c 0
 23.6926956301 -89 16 -81.7121830873 16 -71 c 0
 16 -66.3266639979 17.6861513826 -62.3923107717 22 -57 c 2
 91 26 l 1
 127 1 l 1
 87 -47 l 1
 97.1932412468 -44.9613517506 106.165857586 -44 115 -44 c 0
 161.932224082 -44 194 -67.9493516353 194 -103 c 0
EndSplineSet
EndChar

StartChar: uni00B9
Encoding: 185 185 101
Width: 294
GlyphClass: 1
Flags: W
HStem: 647 88<140 203.934>
VStem: 153 104<403 507>
DStem2: 153 403 257 403 0.207912 0.978148<21.6228 249.479>
LayerCount: 2
Fore
SplineSet
140 735 m 1
 207.741248524 735 232.247214236 744.376195577 255 779 c 1
 337 779 l 1
 257 403 l 1
 153 403 l 1
 205 647 l 1
 121 647 l 1
 140 735 l 1
EndSplineSet
EndChar

StartChar: ordmasculine
Encoding: 186 186 102
Width: 412
GlyphClass: 1
Flags: W
HStem: 396 77<212.493 287.1> 612 77<221.516 298.05>
VStem: 102 103<479.36 595.475> 305 103<489.526 606.066>
LayerCount: 2
Fore
SplineSet
205 528 m 0
 205 493.232198698 220.8179008 473 248 473 c 0
 283.142986543 473 305 505.210335622 305 557 c 0
 305 591.525311717 289.364783493 612 263 612 c 0
 227.047604884 612 205 580.06898603 205 528 c 0
408 565 m 0
 408 461.193372482 343.192387119 396 240 396 c 0
 153.943991745 396 102 443.05071716 102 521 c 0
 102 622.698419192 168.696233075 689 271 689 c 0
 357.088730617 689 408 642.919726981 408 565 c 0
EndSplineSet
EndChar

StartChar: guillemotright
Encoding: 187 187 103
Width: 666
GlyphClass: 1
Flags: W
VStem: -8 171<40 211> 232 171<40 211>
DStem2: -8 40 163 40 0.673864 0.738856<115.231 292.344> 232 40 403 40 0.673864 0.738856<115.231 292.344>
LayerCount: 2
Fore
SplineSet
-8 40 m 1
 189 256 l 1
 89 460 l 1
 253 460 l 1
 356 250 l 1
 163 40 l 1
 -8 40 l 1
232 40 m 1
 429 256 l 1
 329 460 l 1
 493 460 l 1
 596 250 l 1
 403 40 l 1
 232 40 l 1
EndSplineSet
EndChar

StartChar: onequarter
Encoding: 188 188 104
Width: 930
GlyphClass: 1
Flags: W
HStem: 0 21G<129 270.033 646 753.267> 75 86<602 662 784 822> 536 87<116 180.494> 647 20G<218.949 313 582.967 724>
VStem: 129 127<0 127> 129 104<292 396> 597 127<540 667>
DStem2: 66.9335 0 170.933 0 0.207912 0.978148<320.146 548.003> 129 0 256 0 0.574368 0.818597<72.9447 814.809> 487 152 602 161 0.714902 0.699224<88.5068 225.693>
LayerCount: 2
Fore
SplineSet
602 161 m 1xf2
 680 161 l 1
 700 257 l 1
 602 161 l 1xf2
646 0 m 1
 662 75 l 1
 470 75 l 1
 487 152 l 1
 715 375 l 1
 829 375 l 1
 784 161 l 1
 841 161 l 1
 822 75 l 1
 765 75 l 1
 749 0 l 1
 646 0 l 1
129 0 m 1xfa
 597 667 l 1
 724 667 l 1
 256 0 l 1
 129 0 l 1xfa
116 623 m 1
 181.722598383 623 206.897994481 632.851241952 231 668 c 1
 313 668 l 1
 233 292 l 1
 129 292 l 1xf6
 181 536 l 1
 97 536 l 1
 116 623 l 1
EndSplineSet
Ligature2: "'frac' Diagonal Fractions lookup 10 subtable" one slash four
EndChar

StartChar: onehalf
Encoding: 189 189 105
Width: 919
GlyphClass: 1
Flags: W
HStem: 0 88<666 796> 308 76<654.295 742.898> 536 87<116 180.494> 647 20G<218.949 313 582.967 724>
VStem: 129 127<0 127> 129 104<292 396> 597 127<540 667> 747 107<222.738 303.256>
DStem2: 66.9335 0 170.933 0 0.207912 0.978148<320.146 548.003> 129 0 256 0 0.574368 0.818597<72.9447 814.809>
LayerCount: 2
Fore
SplineSet
854 286 m 0xf3
 854 218.074451178 776.12075491 136.052693052 666 88 c 1
 815 88 l 1
 796 0 l 1
 496 0 l 1
 513 81 l 1
 689.152697652 175.545233203 747 222.762475718 747 272 c 0
 747 293.300887582 728.626109477 308 702 308 c 0
 672.22684144 308 652.077069051 293.223500248 642 264 c 1
 558 297 l 1
 585 355 637 384 714 384 c 0
 804 384 854 349 854 286 c 0xf3
129 0 m 1xfb
 597 667 l 1
 724 667 l 1
 256 0 l 1
 129 0 l 1xfb
116 623 m 1
 181.722598383 623 206.897994481 632.851241952 231 668 c 1
 313 668 l 1
 233 292 l 1
 129 292 l 1xf7
 181 536 l 1
 97 536 l 1
 116 623 l 1
EndSplineSet
LCarets2: 2 0 0
Ligature2: "'frac' Diagonal Fractions lookup 10 subtable" one slash two
EndChar

StartChar: threequarters
Encoding: 190 190 106
Width: 958
GlyphClass: 1
Flags: W
HStem: 0 21G<198 339.033 674 782.267> 75 86<630 690 812 851> 287 76<183.163 275.7> 443 84<213 277.097> 604 75<203.262 298.257> 647 20G<651.967 793>
VStem: 198 127<0 127> 282 105<371.685 435.109> 301 104<537.12 599.131> 666 127<540 667>
DStem2: 198 0 325 0 0.574368 0.818597<72.9447 814.809> 515 152 630 161 0.71643 0.697659<88.6684 226.57>
LayerCount: 2
Fore
SplineSet
630 161 m 1xf040
 709 161 l 1
 729 257 l 1
 630 161 l 1xf040
674 0 m 1
 690 75 l 1
 499 75 l 1
 515 152 l 1
 744 375 l 1
 858 375 l 1
 812 161 l 1
 869 161 l 1
 851 75 l 1
 794 75 l 1
 778 0 l 1
 674 0 l 1
198 0 m 1xf640
 666 667 l 1
 793 667 l 1
 325 0 l 1
 198 0 l 1xf640
387 412 m 0xf940
 387 337.579114583 323.472632084 287 230 287 c 0
 161.353232354 287 105.155544359 316.730389778 75 369 c 1
 173 402 l 1
 181.899158875 376.291318806 201.665735561 363 231 363 c 0
 260.071463551 363 282 381.058794723 282 405 c 0xf940
 282 431.194824008 259.632298121 443 210 443 c 2
 195 443 l 1
 213 527 l 1
 228 527 l 2
 274.727647353 527 301 542.835390636 301 571 c 0
 301 591.043498828 282.939422608 604 255 604 c 0
 224.565939033 604 205.832507066 592.637098643 194 567 c 1
 111 600 l 1
 143.234877938 653.389016586 192.511706787 679 263 679 c 0
 349.810091536 679 405 640.133867279 405 579 c 0xf8c0
 405 536.355382658 380.34587407 503.109667388 339 490 c 1
 368.667504193 475.166247904 387 445.375942217 387 412 c 0xf940
EndSplineSet
Ligature2: "'frac' Diagonal Fractions lookup 10 subtable" three slash four
EndChar

StartChar: less
Encoding: 60 60 107
Width: 640
GlyphClass: 1
Flags: W
HStem: 490 20G<480.27 527>
LayerCount: 2
Fore
SplineSet
527 -12 m 1
 34 200 l 1
 34 299 l 1
 527 510 l 1
 527 368 l 1
 203 250 l 1
 527 130 l 1
 527 -12 l 1
EndSplineSet
EndChar

StartChar: equal
Encoding: 61 61 108
Width: 685
GlyphClass: 1
Flags: W
HStem: 96 129<60 572> 283 127<60 572>
LayerCount: 2
Fore
SplineSet
60 96 m 1
 60 225 l 1
 572 225 l 1
 572 96 l 1
 60 96 l 1
60 283 m 1
 60 410 l 1
 572 410 l 1
 572 283 l 1
 60 283 l 1
EndSplineSet
EndChar

StartChar: greater
Encoding: 62 62 109
Width: 638
GlyphClass: 1
Flags: W
HStem: 490 20G<78 124.73>
LayerCount: 2
Fore
SplineSet
78 -12 m 1
 78 130 l 1
 403 250 l 1
 78 368 l 1
 78 510 l 1
 571 299 l 1
 571 200 l 1
 78 -12 l 1
EndSplineSet
EndChar

StartChar: question
Encoding: 63 63 110
Width: 634
GlyphClass: 1
Flags: W
HStem: -12 195<177.049 297.875> 552 128<263.019 433.355>
VStem: 140 195<25.4306 146.372> 448 175<461.486 538.01>
LayerCount: 2
Fore
SplineSet
335 86 m 0
 335 31 292 -12 237 -12 c 0
 183.275239644 -12 140 31.721376135 140 86 c 0
 140 141 182 183 237 183 c 0
 292.283790748 183 335 140.719670434 335 86 c 0
368 680 m 0
 525.02649106 680 623 621.984314314 623 529 c 0
 623 445.896739982 575.866059758 389.944191566 468 345 c 0
 392.260062126 314.507297739 366.342122841 292.83820096 346 243 c 1
 185 243 l 1
 195.963534052 329.711587502 243.548563263 376.806049402 379 435 c 0
 428.123615259 456.052977968 448 475.065172068 448 501 c 0
 448 534.907671376 417.166779738 552 356 552 c 0
 289.68146447 552 240.914147387 527.799677237 223 486 c 1
 85 541 l 1
 138.127319384 634.223409485 231.32714036 680 368 680 c 0
EndSplineSet
EndChar

StartChar: at
Encoding: 64 64 111
Width: 753
GlyphClass: 1
Flags: W
HStem: -12 68<268.239 491.027> 153 97<288.393 373.95> 153 78<507.062 606.172> 428 90<333.963 433.513> 610 70<285.214 493.537>
VStem: 41 69<211.895 427.546> 181 101<255.589 373.516> 429 72<324.673 393> 648 72<276.339 460.035>
LayerCount: 2
Fore
SplineSet
282 298 m 0xdf80
 282 267.930195644 298.062466931 250 325 250 c 0
 364.624343379 250 399.894293682 286.500297407 411 339 c 2
 421.544155877 388.791847198 429 424.414213562 429 425 c 0
 419.707297566 427.065044985 410.669399091 428 400 428 c 0
 333.869180435 428 282 370.855987657 282 298 c 0xdf80
386 56 m 0
 436.52771902 56 480.43183528 68.267326602 522 94 c 1
 522 16 l 1
 479.559003689 -2.75299836987 434.644995771 -12 386 -12 c 0
 181.029849828 -12 41 123.971013601 41 323 c 0
 41 516.75223294 198.760447158 680 386 680 c 0
 567.993589786 680 720 538.005988063 720 368 c 0
 720 241.441019828 646.367709074 153 541 153 c 0xbf80
 486.386721245 153 443.093001634 180.692379211 430 224 c 1
 395.010263232 179.013195583 347.014085465 153 299 153 c 0xdf80
 228.983739041 153 181 203.016948322 181 276 c 0
 181 417.042512756 284.043385741 518 428 518 c 0
 466.526436165 518 506.524189901 511.162777139 545 498 c 1
 509 330 l 1
 501 286 501 286 501 280 c 0
 501 248.319227981 518.672681613 231 551 231 c 0xbf80
 609.026517737 231 648 284.036078956 648 363 c 0
 648 501.792045641 533.220712381 610 386 610 c 0
 235.989546902 610 110 478.989130576 110 323 c 0
 110 162.706406502 220.303251665 56 386 56 c 0
EndSplineSet
EndChar

StartChar: colon
Encoding: 58 58 112
Width: 247
GlyphClass: 1
Flags: W
HStem: -12 195<11.5485 131.951> 316 195<81.4306 202.372>
VStem: -26 195<25.5485 146.161> 44 195<353.049 473.875>
LayerCount: 2
Fore
SplineSet
169 86 m 0xe0
 169 31.721376135 125.724760356 -12 72 -12 c 0
 18 -12 -26 32 -26 86 c 0
 -26 140.219559921 17.2214755433 183 72 183 c 0
 127 183 169 141 169 86 c 0xe0
239 413 m 0xd0
 239 358 197 316 142 316 c 0
 87.721376135 316 44 359.275239644 44 413 c 0
 44 468 87 511 142 511 c 0
 196.719670434 511 239 468.283790748 239 413 c 0xd0
EndSplineSet
EndChar

StartChar: bracketleft
Encoding: 91 91 114
Width: 340
GlyphClass: 1
Flags: W
HStem: -161 115<99 202> 552 116<226 353>
DStem2: -57 -161 74.556 -161 0.207912 0.978148<144.921 756.258>
LayerCount: 2
Fore
SplineSet
-57 -161 m 1
 119 668 l 1
 378 668 l 1
 353 552 l 1
 226 552 l 1
 99 -46 l 1
 227 -46 l 1
 202 -161 l 1
 -57 -161 l 1
EndSplineSet
EndChar

StartChar: backslash
Encoding: 92 92 115
Width: 584
GlyphClass: 1
Flags: W
HStem: 0 21G<340.186 499> 648 20G<87 247.754>
DStem2: 240 668 87 668 0.363926 -0.931428<0 661.498>
LayerCount: 2
Fore
SplineSet
348 0 m 1
 87 668 l 1
 240 668 l 1
 499 0 l 1
 348 0 l 1
EndSplineSet
EndChar

StartChar: bracketright
Encoding: 93 93 116
Width: 342
GlyphClass: 1
Flags: W
HStem: -161 115<-46 82> 552 116<105 209>
DStem2: 57.556 -161 188 -161 0.207912 0.978148<117.569 728.906>
LayerCount: 2
Fore
SplineSet
-71 -161 m 1
 -46 -46 l 1
 82 -46 l 1
 209 552 l 1
 81 552 l 1
 105 668 l 1
 364 668 l 1
 188 -161 l 1
 -71 -161 l 1
EndSplineSet
EndChar

StartChar: asciicircum
Encoding: 94 94 117
Width: 589
GlyphClass: 1
Flags: W
HStem: 648 20G<223.607 357.393>
DStem2: 49 312 192 312 0.461117 0.887339<65.9398 283.734> 347 668 291 506 0.461117 -0.887339<117.926 335.26>
LayerCount: 2
Fore
SplineSet
49 312 m 1
 234 668 l 1
 347 668 l 1
 532 312 l 1
 389 312 l 1
 291 506 l 1
 192 312 l 1
 49 312 l 1
EndSplineSet
EndChar

StartChar: underscore
Encoding: 95 95 118
Width: 457
GlyphClass: 1
Flags: W
HStem: -128 128<-30 380>
LayerCount: 2
Fore
SplineSet
-30 -128 m 1
 -30 0 l 1
 380 0 l 1
 380 -128 l 1
 -30 -128 l 1
EndSplineSet
EndChar

StartChar: grave
Encoding: 96 96 119
Width: 315
GlyphClass: 1
Flags: W
HStem: 574 153<206 225.83>
VStem: 127 187
LayerCount: 2
Fore
SplineSet
127 670 m 0
 127 701.277248768 152.271474895 727 183 727 c 0
 212.646443968 727 228.113778686 711.213751164 280 628 c 0
 290 613 297 600 304 590 c 2
 314 574 l 1
 206 574 l 1
 193 585 l 2
 137.134982663 631.88671098 127 644.939340166 127 670 c 0
EndSplineSet
EndChar

StartChar: exclam
Encoding: 33 33 120
Width: 298
GlyphClass: 1
Flags: W
HStem: -12 196<36.5485 156.951> 648 20G<115.698 318>
VStem: -1 195<25.5485 146.781>
LayerCount: 2
Fore
SplineSet
194 86 m 0
 194 31.721376135 150.724760356 -12 97 -12 c 0
 43 -12 -1 32 -1 86 c 0
 -1 141 42 184 97 184 c 0
 151.219559921 184 194 140.778524457 194 86 c 0
71 243 m 1
 83 496 l 1
 120 668 l 1
 318 668 l 1
 281 496 l 1
 186 243 l 1
 71 243 l 1
EndSplineSet
EndChar

StartChar: quotedbl
Encoding: 34 34 121
Width: 444
GlyphClass: 1
Flags: W
HStem: 434 234<116 230 305 418>
VStem: 116 114<434 551> 305 113<434 543.2>
LayerCount: 2
Fore
SplineSet
116 434 m 1
 102 668 l 1
 244 668 l 1
 230 434 l 1
 116 434 l 1
305 434 m 1
 290 668 l 1
 432 668 l 1
 418 434 l 1
 305 434 l 1
EndSplineSet
EndChar

StartChar: numbersign
Encoding: 35 35 122
Width: 750
GlyphClass: 1
Flags: W
HStem: 0 21G<118 261.835 395 538.835> 127 140<28 136 297 413 575 683> 401 140<68 176 336 453 614 722> 648 20G<212.008 355 489.008 633>
DStem2: 118 0 259 0 0.143702 0.989621<20.262 128.269 289.952 405.173 566.712 675.006> 395 0 536 0 0.143702 0.989621<20.262 128.269 290.095 405.173 566.856 675.006>
LayerCount: 2
Fore
SplineSet
297 267 m 1
 434 267 l 1
 453 401 l 1
 316 401 l 1
 297 267 l 1
118 0 m 1
 136 127 l 1
 8 127 l 1
 28 266 l 1
 156 266 l 1
 176 401 l 1
 48 401 l 1
 68 541 l 1
 196 541 l 1
 215 668 l 1
 355 668 l 1
 336 541 l 1
 473 541 l 1
 492 668 l 1
 633 668 l 1
 614 541 l 1
 743 541 l 1
 722 402 l 1
 594 402 l 1
 575 267 l 1
 703 267 l 1
 683 127 l 1
 554 127 l 1
 536 0 l 1
 395 0 l 1
 413 127 l 1
 277 127 l 1
 259 0 l 1
 118 0 l 1
EndSplineSet
EndChar

StartChar: dollar
Encoding: 36 36 123
Width: 643
GlyphClass: 1
Flags: W
HStem: -12 126<307.105 393.933> 552 128<245.021 324>
VStem: 61 163<449.665 531.098> 188 76<-86 -10> 425 164<140.486 222.465>
DStem2: 188 -86 264 -86 0.207912 0.978148<15.8013 87.9736 221.349 365.505 518.375 652.334 788.647 851.805>
LayerCount: 2
Fore
SplineSet
326 114 m 1xc8
 385.216958466 117.011031786 425 143.131210571 425 179 c 0
 425 212.125127526 398.767155086 235.078866826 337 256 c 1
 307 115 l 1
 309.239300977 114.253566341 311.774964387 114 317 114 c 2
 326 114 l 1xc8
324 552 m 1
 262.504418203 551.008135777 224 528.290529038 224 493 c 0xe8
 224 462.497763819 245.162939699 441.33482412 296 421 c 1
 324 552 l 1
589 205 m 0
 589 75.9348521972 473.91475565 -12 305 -12 c 2
 292 -12 l 2
 285.797958971 -12 283.101020514 -11.7752551286 280 -11 c 1
 264 -86 l 1
 188 -86 l 1xd8
 207 -1 l 1
 109.874162229 22.029837822 39.9612057199 78.1021582708 10 157 c 1
 165 210 l 1
 171.926115639 175.369421807 196.588137053 147.184254476 235 130 c 1
 266 280 l 1
 115.534587319 329.152034809 61 381.292420734 61 476 c 0
 61 600.293008294 170.401753322 680 341 680 c 2
 352 680 l 1
 366 747 l 1
 441 747 l 1
 425 671 l 1
 508.990316788 650.761369449 570.428703135 605.188940016 607 536 c 1
 452 484 l 1
 442.897203451 508.27412413 423.700113675 527.12217591 397 538 c 1
 367 398 l 1
 528.025910423 355.993240759 589 302.984234956 589 205 c 0
EndSplineSet
EndChar

StartChar: percent
Encoding: 37 37 124
Width: 1043
GlyphClass: 1
Flags: W
HStem: -12 119<731.123 838.416> 0 21G<226 366.012> 263 119<741.64 848.824> 286 119<192.9 303.382> 561 119<205.927 313.288> 648 20G<679.018 820>
VStem: 56 119<424.204 530.249> 226 126<0 126> 334 119<437.277 540.956> 592 119<126.991 230.704> 693 127<541 668> 869 119<136.55 242.824>
DStem2: 226 0 352 0 0.573791 0.819001<72.2977 815.054>
LayerCount: 2
Fore
SplineSet
711 177 m 0xa250
 711 136.288312575 740.706717041 107 782 107 c 0
 829.041183148 107 869 146.040223361 869 192 c 0
 869 233 839 263 798 263 c 0
 751.232345602 263 711 223.230095152 711 177 c 0xa250
988 205 m 0
 988 87.5430496522 887.539502886 -12 769 -12 c 0
 668 -12 592 64 592 165 c 0
 592 282.456950348 692.460497114 382 811 382 c 0
 912 382 988 306 988 205 c 0
175 474 m 0
 175 434.077434197 204.920258376 405 246 405 c 0
 294.276159977 405 334 444.27243275 334 492 c 0
 334 530.936639994 303.065238254 561 263 561 c 0x1a90
 215.729601665 561 175 520.733234718 175 474 c 0
226 0 m 1x4730
 693 668 l 1
 820 668 l 1
 352 0 l 1
 226 0 l 1x4730
453 503 m 0x1a90
 453 385.543049652 352.539502886 286 234 286 c 0
 133.151383636 286 56 361.851079418 56 461 c 0
 56 579 157 680 275 680 c 0
 376.785401389 680 453 604.213573291 453 503 c 0x1a90
EndSplineSet
EndChar

StartChar: ampersand
Encoding: 38 38 125
Width: 683
GlyphClass: 1
Flags: W
HStem: -10 126<185.981 319.039> 0 21G<428.792 608> 592 114<294.498 395.359>
VStem: -7 164<143.863 248.031> 139 139<471.901 575.704> 408 126<482.401 578.665>
DStem2: 383 348 247 290 0.557161 -0.830405<-209.41 -146.593 0 124.249 256.591 321.853>
LayerCount: 2
Fore
SplineSet
157 196 m 0xb4
 157 152.048770235 193.949989491 116 239 116 c 0
 274.090003544 116 303.214634697 124.68138044 343 147 c 1
 247 290 l 1
 190.646037061 271.886226198 157 236.744809713 157 196 c 0xb4
350 592 m 0
 306.163800274 592 278 568.139002546 278 531 c 0x2c
 278 504.145642955 294.830512259 471.18588978 326 437 c 1
 379.22039161 463.108116639 408 497.152287539 408 534 c 0
 408 567 383 592 350 592 c 0
407 53 m 1
 336.871708617 11.5156586185 265.835883337 -10 199 -10 c 0
 80.7317211715 -10 -7 66.232903348 -7 169 c 0xb4
 -7 261.042557687 63.0545228895 343.021254686 181 389 c 1
 153 431 139 475 139 521 c 0
 139 629.962619499 226.95675366 706 353 706 c 0
 455.895082979 706 534 636.093941671 534 544 c 0
 534 465.695089652 478.628305004 393.821896148 383 348 c 1
 451 244 l 1
 493.305564351 285.273721318 526.678546559 334.65211336 549 389 c 1
 676 389 l 1
 640.662500505 294.766668014 583.291814684 208.176129787 515 146 c 1
 608 0 l 1
 442 0 l 1x6c
 407 53 l 1
EndSplineSet
EndChar

StartChar: quotesingle
Encoding: 39 39 126
Width: 258
GlyphClass: 1
Flags: W
HStem: 434 234<103 217>
VStem: 103 114<434 551>
LayerCount: 2
Fore
SplineSet
103 434 m 1
 89 668 l 1
 231 668 l 1
 217 434 l 1
 103 434 l 1
EndSplineSet
EndChar

StartChar: parenleft
Encoding: 40 40 127
Width: 377
GlyphClass: 1
Flags: W
HStem: -161 21G<63.9177 238> 649 20G<159.325 387>
VStem: 14 145<1.91736 306.758> 236 151<518 669>
LayerCount: 2
Fore
SplineSet
387 669 m 1
 229.569973184 478.689018216 159 319.597061126 159 155 c 0
 159 56.9974636131 185.533995672 -49.1385190735 238 -161 c 1
 89 -161 l 1
 38.8353908349 -40.6049380038 14 69.3330587587 14 171 c 0
 14 342.608344199 82.649591711 496.606076956 236 669 c 1
 387 669 l 1
EndSplineSet
EndChar

StartChar: parenright
Encoding: 41 41 128
Width: 378
GlyphClass: 1
Flags: W
HStem: -161 21G<-42 184.559> 649 20G<107 281.082>
VStem: -42 151<-161 -10> 186 145<200.778 506.083>
LayerCount: 2
Fore
SplineSet
331 337 m 0
 331 165.135107723 260.118846892 6.13143994036 109 -161 c 1
 -42 -161 l 1
 115.430026816 29.3109817841 186 188.402938874 186 353 c 0
 186 451.002536387 159.466004328 557.138519074 107 669 c 1
 256 669 l 1
 306.164609165 548.604938004 331 438.666941241 331 337 c 0
EndSplineSet
EndChar

StartChar: asterisk
Encoding: 42 42 129
Width: 443
GlyphClass: 1
Flags: W
HStem: 336 332
VStem: 76 326
LayerCount: 2
Fore
SplineSet
263 336 m 1
 222 428 l 1
 148 361 l 1
 89 426 l 1
 164 494 l 1
 76 544 l 1
 120 619 l 1
 207 569 l 1
 228 668 l 1
 314 650 l 1
 293 551 l 1
 392 562 l 1
 402 475 l 1
 302 464 l 1
 343 372 l 1
 263 336 l 1
EndSplineSet
EndChar

StartChar: plus
Encoding: 43 43 130
Width: 645
GlyphClass: 1
Flags: W
HStem: 0 21G<231 359> 184 128<39 231 359 551> 476 20G<231 359>
VStem: 231 128<0 184 312 496>
LayerCount: 2
Fore
SplineSet
231 0 m 1
 231 184 l 1
 39 184 l 1
 39 312 l 1
 231 312 l 1
 231 496 l 1
 359 496 l 1
 359 312 l 1
 551 312 l 1
 551 184 l 1
 359 184 l 1
 359 0 l 1
 231 0 l 1
EndSplineSet
EndChar

StartChar: comma
Encoding: 44 44 131
Width: 282
GlyphClass: 1
Flags: W
HStem: -145 328<52.8297 59>
VStem: -40 99<-145 -46> -9 196<25.4343 147.272>
DStem2: -40 -145 59 -145 0.536538 0.843876<53.1173 168.655>
LayerCount: 2
Fore
SplineSet
90 183 m 0xa0
 145.068437901 183 187 141.933006191 187 88 c 0xa0
 187 65.0199946583 181.016554943 48.0270106966 162 17 c 2
 59 -145 l 1
 -40 -145 l 1xc0
 51 -3 l 1
 14.9047078536 12.039705061 -9 47.0999432463 -9 85 c 0
 -9 141.212282154 33.2141231302 183 90 183 c 0xa0
EndSplineSet
EndChar

StartChar: hyphen
Encoding: 45 45 132
Width: 376
GlyphClass: 1
Flags: W
HStem: 184 129<38 336>
LayerCount: 2
Fore
SplineSet
10 184 m 1
 38 313 l 1
 364 313 l 1
 336 184 l 1
 10 184 l 1
EndSplineSet
EndChar

StartChar: period
Encoding: 46 46 133
Width: 247
GlyphClass: 1
Flags: W
HStem: -12 195<21.5485 141.951>
VStem: -16 195<25.5485 146.161>
LayerCount: 2
Fore
SplineSet
179 86 m 0
 179 31.721376135 135.724760356 -12 82 -12 c 0
 28 -12 -16 32 -16 86 c 0
 -16 140.219559921 27.2214755433 183 82 183 c 0
 137 183 179 141 179 86 c 0
EndSplineSet
EndChar

StartChar: slash
Encoding: 47 47 134
Width: 442
GlyphClass: 1
Flags: W
HStem: 0 21G<-55 110.006> 648 20G<335.934 499>
VStem: -55 153<0 153> 348 151<517 668>
DStem2: -55 0 98 0 0.516568 0.856246<79.0349 780.149>
LayerCount: 2
Fore
SplineSet
-55 0 m 1
 348 668 l 1
 499 668 l 1
 98 0 l 1
 -55 0 l 1
EndSplineSet
EndChar

StartChar: braceleft
Encoding: 123 123 135
Width: 373
GlyphClass: 1
Flags: W
HStem: -162 120<170.333 234> 548 119<286.371 384>
VStem: 51 151<50.4531 184.79>
DStem2: -11.6467 -162 134.803 -162 0.207912 0.978148<187.484 310.909 496.502 752.35>
LayerCount: 2
Fore
SplineSet
180 -162 m 2
 75.3726308801 -162 19 -119.282851134 19 -40 c 0
 19 -25.5907593226 20.2553827281 -12.7230863594 23 1 c 2
 44 97 l 2
 49.3908393522 122.606486923 51 133.18097118 51 143 c 0
 51 177.193274292 33.7758496863 192 -6 192 c 1
 20 315 l 1
 72.9893623504 315 94.9969877683 337.985742103 110 409 c 2
 131 505 l 2
 159.927625827 634.675564054 204.623142197 667 355 667 c 2
 410 667 l 1
 384 548 l 1
 351 548 l 2
 303.365839574 548 284.054424323 536.256571806 277 503 c 2
 251 380 l 2
 241.940644242 337.723006461 225.850771429 307.889700622 203 291 c 0
 180 274 156 262 131 255 c 1
 130 252 l 1
 178.716408641 239.075238524 202 211.264282179 202 166 c 0
 202 155.259006127 200.427976768 142.997224917 197 127 c 2
 172 13 l 2
 169.940737465 3.73331859059 169 -3.1654228163 169 -9 c 0
 169 -32.9705985263 182.95452955 -42 220 -42 c 2
 260 -42 l 1
 234 -162 l 1
 180 -162 l 2
EndSplineSet
EndChar

StartChar: bar
Encoding: 124 124 136
Width: 299
GlyphClass: 1
Flags: W
HStem: -161 21G<59 205> 648 20G<59 205>
VStem: 59 146<-161 668>
LayerCount: 2
Fore
SplineSet
59 -161 m 1
 59 668 l 1
 205 668 l 1
 205 -161 l 1
 59 -161 l 1
EndSplineSet
EndChar

StartChar: braceright
Encoding: 125 125 137
Width: 373
GlyphClass: 1
Flags: W
HStem: -162 120<-45 53.6458> 548 119<106 170.686>
VStem: 140 150<320.947 460.406> 172 149<423.812 587.023>
DStem2: -70 -162 175.353 -162 0.207912 0.978148<85.3629 732.678 733.988 775.229> 29.1407 -162 175.353 -162 0.207912 0.978148<126.885 382.672 569.294 692.716>
LayerCount: 2
Fore
SplineSet
-70 -162 m 1xe0
 -45 -42 l 1
 -11 -42 l 2
 36.7730385205 -42 56.9664933727 -30.1531731534 64 2 c 2
 90 126 l 2
 99 169 115 199 138 216 c 0
 161 233 185 245 210 252 c 1
 211 255 l 1
 162.391537976 269.880141436 140 297.633033575 140 343 c 0xe0
 140 355.54534341 141.311712126 367.350752548 144 379 c 2
 170 498 l 2
 171.878679656 511.150757595 172 512.242640687 172 516 c 0
 172 539.192760823 157.688236338 548 120 548 c 2
 81 548 l 1
 106 667 l 1
 161 667 l 2
 265.936984025 667 321 626.046881868 321 548 c 0xd0
 321 536.074883177 319.312532451 521.562662254 316 505 c 2
 296 409 l 2
 292 391 290 376 290 364 c 0
 290 329 306 315 346 315 c 1
 320 192 l 1
 267.973680331 192 243.9924177 166.964615935 229 97 c 1
 210 1 l 1
 182.898432656 -128.485266198 136.430151434 -162 -16 -162 c 2
 -70 -162 l 1xe0
EndSplineSet
EndChar

StartChar: asciitilde
Encoding: 126 126 138
Width: 533
GlyphClass: 1
Flags: W
HStem: 167 123<272.833 376.12> 227 123<125.454 230.682>
LayerCount: 2
Fore
SplineSet
494 333 m 1x80
 461.152738134 217.536897682 409.398083881 167 324 167 c 0x80
 257 167 231 227 164 227 c 0
 132.950596588 227 114.985714604 201.911113092 106 146 c 1
 9 184 l 1
 42.1035964314 299.361017867 94.2678491107 350 180 350 c 0x40
 246 350 273 290 339 290 c 0
 369.738078475 290 387.930939203 315.533839617 396 370 c 1
 494 333 l 1x80
EndSplineSet
EndChar

StartChar: exclamdown
Encoding: 161 161 139
Width: 297
GlyphClass: 1
Flags: W
HStem: -162 21G<-55 147.277> 324 194<105.839 226.372>
VStem: 69 194<360.224 480.995>
LayerCount: 2
Fore
SplineSet
-55 -162 m 1
 -18 11 l 1
 77 264 l 1
 192 264 l 1
 180 11 l 1
 143 -162 l 1
 -55 -162 l 1
263 420 m 0
 263 365.783335069 220.781421858 324 166 324 c 0
 111.718466925 324 69 366.278070359 69 420 c 0
 69 474.778524457 111.780440079 518 166 518 c 0
 220.719670434 518 263 475.283790748 263 420 c 0
EndSplineSet
EndChar

StartChar: cent
Encoding: 162 162 140
Width: 531
GlyphClass: 1
Flags: W
VStem: 2 154<130.54 299.506> 155 74<-87 -13>
DStem2: 155 -87 229 -87 0.207912 0.978148<15.3855 80.8082 215.627 480.521 622.394 672.729>
LayerCount: 2
Fore
SplineSet
255 383 m 1x80
 195.738033925 356.884557323 156 282.62661514 156 198 c 0
 156 155.498554901 170.324640401 126.8492741 198 114 c 1
 255 383 l 1x80
270 109 m 1
 299.288190305 115.05962558 321.193880392 129.25204451 341 155 c 1
 464 107 l 1
 412.857930195 34.7994308635 337.742715582 -6.01659899471 245 -12 c 1
 229 -87 l 1
 155 -87 l 1x40
 172 -8 l 1
 64.8881624313 10.0188137966 2 85.1146783469 2 195 c 0
 2 363.164318903 118.16002877 493.014636778 282 508 c 1
 295 571 l 1
 368 571 l 1
 354 507 l 1
 432.355910555 497.081530309 482.766938319 456.624272359 511 381 c 1
 378 335 l 1
 370.057255618 364.785291431 354.182197573 381.956272583 329 388 c 1
 270 109 l 1
EndSplineSet
EndChar

StartChar: sterling
Encoding: 163 163 141
Width: 617
GlyphClass: 1
Flags: W
HStem: -12 125<265.991 497.138> 24 110<151.095 282.067> 295 73<58 133 315 443> 556 123<299.138 445.934>
VStem: 113 158<380.99 528.388> 158 159<217.096 294.765>
LayerCount: 2
Fore
SplineSet
175 24 m 0x74
 127.190925078 24 82.1750484916 12.5875242458 33 -12 c 1
 2 104 l 1
 58.3353759914 128.582709524 98.5493889414 156.732518589 122 188 c 0
 145.853880941 219.805174587 158 249.83308004 158 277 c 0xb4
 158 284 157 290 155 295 c 1
 43 295 l 1
 58 368 l 1
 133 368 l 1
 117.30862174 425.535053619 113 449.23247319 113 478 c 0
 113 598.800071124 222.726270851 679 388 679 c 0
 506.119748759 679 587.045551247 631.903836257 632 537 c 1
 485 487 l 1
 456.952073226 536.083871855 424.913084471 556 374 556 c 0
 306.070570191 556 271 527.058267318 271 471 c 0xb8
 271 443.665668654 280.21621816 408.507503079 298 368 c 1
 458 368 l 1
 443 295 l 1
 315 295 l 1
 316.354248689 288.228756555 317 283.062746067 317 279 c 0
 317 227.257079591 262.40531437 162.22517465 181 117 c 1
 204.369261197 129.658349815 226.843685683 134 269 134 c 0x74
 329 134 347 113 407 113 c 0
 442.258542953 113 478.282853379 123.152305665 517 144 c 1
 535 23 l 1
 480.646454987 -1.1571311167 428.600684348 -12 367 -12 c 0xb4
 290 -12 252 24 175 24 c 0x74
EndSplineSet
EndChar

StartChar: currency
Encoding: 164 164 142
Width: 678
GlyphClass: 1
Flags: W
HStem: 102 119<275.849 398.151> 419 120<275.779 398.914>
VStem: 118 120<258.957 381.836> 436 119<258.77 381.632>
DStem2: 144 565 92 513 0.707107 -0.707107<0 98.7662 520.581 619.426> 92 127 144 75 0.707107 0.707107<0 98.9995 520.441 619.426>
LayerCount: 2
Fore
SplineSet
238 321 m 0
 238 265.721955641 282.274736084 221 337 221 c 0
 391.725263916 221 436 265.721955641 436 321 c 0
 436 375.722495303 392.280888112 419 337 419 c 0
 281.719111888 419 238 375.722495303 238 321 c 0
555 321 m 0
 555 275.224731799 541.128583386 231.182984049 515 194 c 1
 582 127 l 1
 530 75 l 1
 463 142 l 1
 426.403147508 115.294188722 384.526453034 102 337 102 c 0
 289.473546966 102 247.596852492 115.294188722 211 142 c 1
 144 75 l 1
 92 127 l 1
 159 194 l 1
 132.187281356 231.736418832 118 275.682387911 118 321 c 0
 118 365.158675548 132.09650312 408.135819206 159 446 c 1
 92 513 l 1
 144 565 l 1
 211 498 l 1
 246.62711624 524.72033718 290.510958077 539 337 539 c 0
 383.489213192 539 425.586665033 525.301622813 463 498 c 1
 530 565 l 1
 582 513 l 1
 515 446 l 1
 541.893247352 409.146290665 555 368.187688641 555 321 c 0
EndSplineSet
EndChar

StartChar: yen
Encoding: 165 165 143
Width: 700
GlyphClass: 1
Flags: W
HStem: 0 21G<191 358.267> 75 73<99 207 385 499> 212 74<128 225 442 528> 647 20G<82 259.209 542.188 762>
VStem: 558 204<463 667>
DStem2: 339 390 442 286 0.643145 0.765744<0 352.96>
LayerCount: 2
Fore
SplineSet
191 0 m 1
 207 75 l 1
 83 75 l 1
 99 148 l 1
 222 148 l 1
 236 212 l 1
 112 212 l 1
 128 286 l 1
 225 286 l 1
 82 667 l 1
 253 667 l 1
 339 390 l 1
 558 667 l 1
 762 667 l 1
 442 286 l 1
 544 286 l 1
 528 212 l 1
 398 212 l 1
 385 148 l 1
 515 148 l 1
 499 75 l 1
 370 75 l 1
 354 0 l 1
 191 0 l 1
EndSplineSet
EndChar

StartChar: brokenbar
Encoding: 166 166 144
Width: 281
GlyphClass: 1
Flags: W
HStem: -161 21G<59 187> 648 20G<59 187>
VStem: 59 128<-161 150 358 668>
LayerCount: 2
Fore
SplineSet
59 -161 m 1
 59 150 l 1
 187 150 l 1
 187 -161 l 1
 59 -161 l 1
59 358 m 1
 59 668 l 1
 187 668 l 1
 187 358 l 1
 59 358 l 1
EndSplineSet
EndChar

StartChar: section
Encoding: 167 167 145
Width: 563
GlyphClass: 1
Flags: W
HStem: -174 120<95.6111 212.687> 563 116<306.728 426.308>
VStem: 15 156<230.483 335.88> 147 152<485.903 552.876> 231 157<-34.6681 47.6639> 365 161<198.502 287.834>
LayerCount: 2
Fore
SplineSet
233 352 m 1xe4
 194.391746362 343.871946603 171 324.630348789 171 301 c 0
 171 278.123332551 181.575394849 267.31028838 260 210 c 0
 272 201 282 194 291 187 c 2
 304 177 l 1
 345.033668738 194.013960208 365 212.016390035 365 232 c 0
 365 253.954586038 355.25333802 262.815187838 233 352 c 1xe4
388 40 m 0xc8
 388 -77.1360297493 274.841156249 -174 138 -174 c 0
 35.535526683 -174 -39.0900681414 -126.648734248 -59 -49 c 1
 81 -2 l 1
 85.0155172529 -34.1241380234 112.153713413 -54 152 -54 c 0
 197.263017964 -54 231 -28.8040260742 231 5 c 0
 231 28.7469093651 212.498532418 50.6640325012 166 82 c 0
 47.0645152518 161.956628402 15 199.966881581 15 261 c 0xe8
 15 338.166759198 61.2110896365 392.079697108 159 429 c 1
 151.122607157 447.708808002 147 468.665394384 147 490 c 0
 147 599.843795522 240.814760863 679 371 679 c 0
 474.336904471 679 542.094089085 644.78262177 571 578 c 1
 432 532 l 1
 425.98569313 551.045305087 400.919397345 563 367 563 c 0
 327.448950228 563 299 546.265323396 299 523 c 0
 299 507.670629502 308.416222711 493.708644102 328 480 c 0
 371.154497375 450.202847051 461.440095473 381.585792496 478 366 c 0
 510.320804025 335.699246226 526 304.667504193 526 271 c 0xd4
 526 238.498077599 515.329386576 206.486237326 494 175 c 0
 472.732952066 143.605786383 433.272857447 117.741186549 375 97 c 1
 383.733225274 82.4446245431 388 63.7364584374 388 40 c 0xc8
EndSplineSet
EndChar

StartChar: dieresis
Encoding: 168 168 146
Width: 455
GlyphClass: 1
Flags: W
HStem: 578 141<148.875 248.625 342.875 443.17>
VStem: 128 141<598.375 698.125> 322 140<598.269 698.125>
LayerCount: 2
Fore
SplineSet
462 648 m 0
 462 608.71699481 431.721819402 578 393 578 c 0
 353.72105084 578 322 609.274275476 322 648 c 0
 322 687 354 719 393 719 c 0
 431.936639994 719 462 688.065238254 462 648 c 0
269 648 m 0
 269 609 238 578 199 578 c 0
 159.72105084 578 128 609.274275476 128 648 c 0
 128 687 160 719 199 719 c 0
 237.725724524 719 269 687.27894916 269 648 c 0
EndSplineSet
EndChar

StartChar: copyright
Encoding: 169 169 147
Width: 814
GlyphClass: 1
Flags: W
HStem: -12 69<302.226 512.532> 145 85<364.662 472.987> 437 85<365.488 467.564> 610 69<302.42 512.549>
VStem: 62 70<228.688 438.774> 227 112<257.572 410.899> 684 70<228.616 439.057>
LayerCount: 2
Fore
SplineSet
572 231 m 1
 539.911602234 175.84806634 481.802454013 145 410 145 c 0
 295.872983863 145 227 216.131114481 227 334 c 0
 227 445.989071264 300.989361482 522 410 522 c 0
 486.888336929 522 543.957793201 489.088779819 573 428 c 1
 481 394 l 1
 469.88127943 422.302197814 447.663671474 437 416 437 c 0
 368.077641468 437 339 398.10393414 339 334 c 0
 339 269.084390683 367.937481563 230 416 230 c 0
 447.324370263 230 469.132554223 241.23451901 482 264 c 1
 572 231 l 1
132 334 m 0
 132 180.94726926 255.052343128 57 407 57 c 0
 560 57 684 181 684 334 c 0
 684 486.723922227 560.277269772 610 407 610 c 0
 255.775299048 610 132 485.774608956 132 334 c 0
754 334 m 0
 754 142.776607256 598.776061509 -12 407 -12 c 0
 216.775961367 -12 62 143.224587342 62 334 c 0
 62 524 217 679 407 679 c 0
 598.550925502 679 754 524.446885586 754 334 c 0
EndSplineSet
EndChar

StartChar: questiondown
Encoding: 191 191 148
Width: 634
GlyphClass: 1
Flags: W
HStem: -172 128<168.681 339.133> 325 194<304.342 424.875>
VStem: -21 175<-29.7108 45.9293> 268 194<361.342 481.875>
LayerCount: 2
Fore
SplineSet
234 -172 m 0
 76.9735089398 -172 -21 -113.984314314 -21 -21 c 0
 -21 61.1969014505 25.260147991 116.112173904 134 163 c 0
 214.28827153 198.126118794 237.067808356 217.171305321 256 265 c 1
 417 265 l 1
 408.028103574 193.224828594 359.261205125 135.119587889 276 97 c 0
 169.023254549 49.5669147528 154 38.7304688487 154 9 c 0
 154 -26.070687362 185.122580428 -44 246 -44 c 0
 312.31224539 -44 361.820979144 -19.431756182 379 22 c 1
 517 -33 l 1
 463.872680616 -126.223409485 370.67285964 -172 234 -172 c 0
462 421 m 0
 462 367.061210915 419.062513858 325 364 325 c 0
 310 325 268 367 268 421 c 0
 268 476.062513858 310.061210915 519 364 519 c 0
 419 519 462 476 462 421 c 0
EndSplineSet
EndChar

StartChar: germandbls
Encoding: 223 223 149
Width: 631
GlyphClass: 1
Flags: W
HStem: -13 125<252.758 384.279> 0 21G<-23 138.245> 298 117<302 394.397> 566 113<284.7 433.001>
VStem: -23 157<0 157> 424 162<149.568 269.483> 452 150<453.584 547.39>
DStem2: -25.7632 -13 131.237 -13 0.207912 0.978148<45.9326 592.141>
LayerCount: 2
Fore
SplineSet
452 502 m 0xba
 452 542.730303083 420.367755753 566 365 566 c 0
 282.869657848 566 245.965173263 528.833781481 224 424 c 2
 134 0 l 1
 -23 0 l 1
 70 435 l 2
 107.977534836 608.897133196 195.893425172 679 376 679 c 0
 515.147833654 679 602 617.896042261 602 520 c 0x7a
 602 455.243950469 574.219750372 406.143974381 516 368 c 1
 560.178383555 345.910808223 586 295.743096272 586 232 c 0
 586 76.08479489 483.097971617 -13 303 -13 c 0
 289.649503306 -13 276.734216345 -12.4833885216 253 -11 c 1
 241 123 l 1
 269.366128582 115.645818516 292.898229911 112 312 112 c 0
 382.637683899 112 424 149.669252164 424 214 c 0xbc
 424 270 385 298 307 298 c 2
 277 298 l 1
 302 415 l 1
 328 415 l 2
 395.494961385 415 452 454.64466419 452 502 c 0xba
EndSplineSet
EndChar

StartChar: AE
Encoding: 198 198 150
Width: 1016
GlyphClass: 1
Flags: W
HStem: 0 139<602 929> 119 128<354 437> 275 138<660 849> 529 139<685 1042>
DStem2: -65 0 136 0 0.679101 0.734045<136.499 295.156 465.852 630.421>
AnchorPoint: "Anchor-0" 763 668 basechar 0
LayerCount: 2
Fore
SplineSet
354 247 m 1x70
 464 247 l 1
 501 421 l 1
 354 247 l 1x70
-65 0 m 1xb0
 553 668 l 1
 1071 668 l 1
 1042 529 l 1
 685 529 l 1
 660 413 l 1
 879 413 l 1
 849 275 l 1
 631 275 l 1
 602 139 l 1
 959 139 l 1
 929 0 l 1
 411 0 l 1xb0
 437 119 l 1
 241 119 l 1x70
 136 0 l 1
 -65 0 l 1xb0
EndSplineSet
EndChar

StartChar: florin
Encoding: 402 402 151
Width: 390
GlyphClass: 1
Flags: W
HStem: -173 140<-60.9918 18.5789> 381 115<53 111 287 371> 608 121<310.771 419>
DStem2: -7.06199 -173 145.629 -173 0.207912 0.978148<145.844 566.44 715.52 829.722>
LayerCount: 2
Fore
SplineSet
-59 -31 m 1
 -47.6559111798 -32.4180111025 -40.3810499614 -33 -34 -33 c 0
 9.50174339637 -33 27.1245641509 -15.3771792455 38 39 c 2
 111 381 l 1
 29 381 l 1
 53 496 l 1
 135 496 l 1
 153 578 l 2
 177.00624781 689.028896123 236.036421086 729 376 729 c 2
 445 729 l 1
 419 608 l 1
 377 608 l 2
 323.317522382 608 310.04779903 600.215095633 302 564 c 2
 287 496 l 1
 395 496 l 1
 371 381 l 1
 263 381 l 1
 179 -16 l 2
 157.999350644 -119.003184934 92.9968153107 -173 -10 -173 c 0
 -35.6708334961 -173 -62.6289555417 -169.84905067 -87 -164 c 1
 -59 -31 l 1
EndSplineSet
EndChar

StartChar: integral
Encoding: 8747 8747 152
Width: 344
GlyphClass: 1
Flags: W
HStem: -174 144<-11.812 54.9343> 536 144<255.788 323.891>
VStem: -45 112<-104.712 -42.0649> 85 135<155.479 558.693> 93 135<-53.3116 350.521> 246 111<547.477 610.632>
LayerCount: 2
Fore
SplineSet
85 396 m 0xf4
 85 583.499050528 142.764652853 680 255 680 c 0
 312.109797102 680 357 643.911797671 357 598 c 0
 357 560.899942463 334.911341364 536 302 536 c 0
 269.122546461 536 246 557.883838615 246 589 c 0
 246 597.834142414 246.961351751 604.884055252 249 611 c 1
 229.860359488 601.933854494 220 565.552528109 220 504 c 0xf4
 220 470 228 144 228 110 c 0
 228 -79.6668135096 170.204315319 -174 54 -174 c 0
 1.22205219747 -174 -45 -136.181957293 -45 -93 c 0
 -45 -56.6721300577 -21.7148070925 -30 10 -30 c 0
 41.7770886987 -30 67 -54.7804040855 67 -86 c 0
 67 -92.8343882279 66.0503164684 -98.8490505949 64 -105 c 1
 84.9249611204 -95.0357327998 93 -65.2416238304 93 2 c 0xec
 93 35 85 363 85 396 c 0xf4
EndSplineSet
EndChar

StartChar: approxequal
Encoding: 8776 8776 153
Width: 556
GlyphClass: 1
Flags: W
HStem: 59 123<280.805 373.507> 118 125<147.296 239.721> 257 123<282.048 373.441> 317 124<147.254 239.721>
VStem: 36 104<92.4423 113.534 291.442 312.187> 382 104<187.673 208.558 385.776 406.49>
LayerCount: 2
Fore
SplineSet
36 95 m 1x4c
 47.3758596435 197.382736791 88.6779763325 243 170 243 c 0x4c
 240 243 272 182 342 182 c 0
 368.048410051 182 381.001853261 202.077836976 382 244 c 1
 486 206 l 1
 475.981022443 104.808326673 434.847014818 59 354 59 c 0x8c
 282 59 252 118 180 118 c 0
 152.90154272 118 140.996386916 99.8446373985 140 57 c 1
 36 95 l 1x4c
486 404 m 1
 476.042946176 303.433756383 434.3473282 257 354 257 c 0x2c
 282 257 252 317 180 317 c 0
 152.90154272 317 140.996386916 298.844637399 140 256 c 1
 36 294 l 1
 45.9350407832 394.34391191 88.4650802664 441 170 441 c 0x1c
 240 441 272 380 342 380 c 0x2c
 367.942655175 380 380.997782162 399.909068656 382 441 c 1x1c
 486 404 l 1
EndSplineSet
EndChar

StartChar: notequal
Encoding: 8800 8800 154
Width: 661
GlyphClass: 1
Flags: W
HStem: 0 21G<64 231.167> 96 129<58 131 374 570> 283 127<58 262 504 570> 475 20G<397.118 564>
LayerCount: 2
Fore
SplineSet
64 0 m 1
 131 96 l 1
 58 96 l 1
 58 225 l 1
 221 225 l 1
 262 283 l 1
 58 283 l 1
 58 410 l 1
 352 410 l 1
 411 495 l 1
 564 495 l 1
 504 410 l 1
 570 410 l 1
 570 283 l 1
 414 283 l 1
 374 225 l 1
 570 225 l 1
 570 96 l 1
 285 96 l 1
 217 0 l 1
 64 0 l 1
EndSplineSet
EndChar

StartChar: lessequal
Encoding: 8804 8804 155
Width: 676
GlyphClass: 1
Flags: W
HStem: 0 128<53 565> 490 20G<482.419 565>
LayerCount: 2
Fore
SplineSet
53 0 m 1
 53 128 l 1
 565 128 l 1
 565 0 l 1
 53 0 l 1
565 136 m 1
 53 260 l 1
 53 386 l 1
 565 510 l 1
 565 381 l 1
 228 324 l 1
 565 265 l 1
 565 136 l 1
EndSplineSet
EndChar

StartChar: greaterequal
Encoding: 8805 8805 156
Width: 702
GlyphClass: 1
Flags: W
HStem: 0 128<79 591> 490 20G<79 161.581>
LayerCount: 2
Fore
SplineSet
79 0 m 1
 79 128 l 1
 591 128 l 1
 591 0 l 1
 79 0 l 1
79 136 m 1
 79 265 l 1
 416 324 l 1
 79 381 l 1
 79 510 l 1
 591 386 l 1
 591 260 l 1
 79 136 l 1
EndSplineSet
EndChar

StartChar: lozenge
Encoding: 9674 9674 157
Width: 607
GlyphClass: 1
Flags: W
DStem2: 38 313 176 313 0.546521 0.837445<75.4199 302.012> 176 313 38 313 0.545572 -0.838064<0 226.591> 301 716 301 502 0.545061 -0.838396<179.417 405.461> 301 124 301 -91 0.544112 0.839013<0 226.043>
LayerCount: 2
Fore
SplineSet
301 124 m 1
 425 313 l 1
 301 502 l 1
 176 313 l 1
 301 124 l 1
301 -91 m 1
 38 313 l 1
 301 716 l 1
 563 313 l 1
 301 -91 l 1
EndSplineSet
EndChar

StartChar: summation
Encoding: 8721 8721 158
Width: 793
GlyphClass: 1
Flags: W
HStem: -162 128<283 648> 540 128<283 648>
DStem2: 283 540 113 540 0.641239 -0.767341<0 262.423> 113 -34 283 -34 0.638606 0.769534<108.563 372.975>
LayerCount: 2
Fore
SplineSet
113 -162 m 1
 113 -34 l 1
 350 254 l 1
 113 540 l 1
 113 668 l 1
 648 668 l 1
 648 540 l 1
 283 540 l 1
 522 254 l 1
 283 -34 l 1
 648 -34 l 1
 648 -162 l 1
 113 -162 l 1
EndSplineSet
EndChar

StartChar: minus
Encoding: 8722 8722 159
Width: 645
GlyphClass: 1
Flags: W
HStem: 184 128<39 551>
LayerCount: 2
Fore
SplineSet
39 184 m 1
 39 312 l 1
 551 312 l 1
 551 184 l 1
 39 184 l 1
EndSplineSet
EndChar

StartChar: uni2215
Encoding: 8725 8725 160
Width: 482
GlyphClass: 1
Flags: W
HStem: 0 21G<-55 85.982> 648 20G<398.988 539>
VStem: -55 127<0 127> 413 126<542 668>
DStem2: -55 0 72 0 0.573791 0.819001<72.8715 815.627>
LayerCount: 2
Fore
SplineSet
-55 0 m 1
 413 668 l 1
 539 668 l 1
 72 0 l 1
 -55 0 l 1
EndSplineSet
EndChar

StartChar: uni2219
Encoding: 8729 8729 161
Width: 281
GlyphClass: 1
Flags: W
HStem: 157 194<64.5485 184.951>
VStem: 27 195<194.548 314.658>
LayerCount: 2
Fore
SplineSet
222 255 m 0
 222 200.721376135 178.724760356 157 125 157 c 0
 71 157 27 201 27 255 c 0
 27 308.938789085 69.9374861419 351 125 351 c 0
 179.781421858 351 222 309.216664931 222 255 c 0
EndSplineSet
EndChar

StartChar: radical
Encoding: 8730 8730 162
Width: 615
GlyphClass: 1
Flags: W
HStem: -162 21G<262.373 432.277> 93 132<19 161> 648 20G<496.679 646>
VStem: 502 144<524 668>
DStem2: 332 29 427 -162 0.255124 0.966908<0 661.226>
LayerCount: 2
Fore
SplineSet
271 -162 m 1
 161 93 l 1
 19 93 l 1
 19 225 l 1
 252 225 l 1
 332 29 l 1
 502 668 l 1
 646 668 l 1
 427 -162 l 1
 271 -162 l 1
EndSplineSet
EndChar

StartChar: infinity
Encoding: 8734 8734 163
Width: 757
GlyphClass: 1
Flags: W
HStem: 97 107<160.191 264.985 459.741 564.809> 306 106<159.505 265.711 458.021 565.753>
VStem: 29 120<216.431 295.074> 576 120<216.431 295.312>
LayerCount: 2
Fore
SplineSet
429 256 m 1
 457.58231533 220.518505108 485.536708589 204 517 204 c 0
 551.019232971 204 576 226.016947212 576 256 c 0
 576 285.754528762 551.300525089 306 515 306 c 0
 486.11987644 306 457.116949224 289.137833013 429 256 c 1
149 256 m 0
 149 226.016947212 173.980767029 204 208 204 c 0
 239.463291411 204 267.41768467 220.518505108 296 256 c 1
 267.235599257 289.723780181 239.240501169 306 210 306 c 0
 174.309443284 306 149 285.254554685 149 256 c 0
362 176 m 1
 309.604843939 120.582046473 261.545230239 97 201 97 c 0
 101.968352386 97 29 164.02906789 29 255 c 0
 29 344.102295982 105.114623613 412 205 412 c 0
 263.210723197 412 313.176411445 387.812787855 362 336 c 1
 411.525626678 387.506651745 462.446008576 412 520 412 c 0
 620.94586571 412 696 345.048300662 696 255 c 0
 696 164.02906789 623.031647614 97 524 97 c 0
 463.107544039 97 414.092088523 120.902598678 362 176 c 1
EndSplineSet
EndChar

StartChar: uni03A9
Encoding: 937 937 164
Width: 744
GlyphClass: 1
Flags: W
HStem: 0 115<53 190 502 639> 564 116<264.607 427.105>
VStem: 53 121<312.171 474.004> 371 268<0 115> 517 122<309.696 473.955>
LayerCount: 2
Fore
SplineSet
174 392 m 0xe8
 174 307.714092925 237.283592297 234.959486815 321 223 c 1
 321 0 l 1
 53 0 l 1
 53 115 l 1
 190 115 l 1
 190 139 l 1
 105.106243581 192.932504078 53 286.875877542 53 386 c 0
 53 548.776509274 183.777152322 680 346 680 c 0
 508.222847678 680 639 548.776509274 639 386 c 0xe8
 639 286.375591694 587.32222069 193.204704909 502 139 c 1
 502 115 l 1
 639 115 l 1
 639 0 l 1
 371 0 l 1
 371 223 l 1xf0
 454.885277539 234.983611077 517 306.883529542 517 392 c 0
 517 487.777877251 441.221029127 564 346 564 c 0
 250 564 174 488 174 392 c 0xe8
EndSplineSet
EndChar

StartChar: estimated
Encoding: 8494 8494 165
Width: 610
GlyphClass: 1
Flags: W
HStem: -12 70<202.498 378.812> 249 66<167 415> 440 70<202.598 378.052>
VStem: 30 137<147.164 249 315 350.625>
LayerCount: 2
Fore
SplineSet
292 440 m 0
 244.738784891 440 200.813604954 423.835533783 167 394 c 1
 167 315 l 1
 415 315 l 1
 415 394 l 1
 380.324925756 424.712208616 339.446700969 440 292 440 c 0
507 103 m 1
 457.887955845 30.8353636911 377.804449814 -12 292 -12 c 0
 146.722120353 -12 30 104.276616077 30 249 c 0
 30 393.223348428 147.224071693 510 292 510 c 0
 435.724239054 510 552 393.277024588 552 249 c 1
 167 249 l 1
 167 104 l 1
 200.813604954 74.1644662168 244.738784891 58 292 58 c 0
 348.700366586 58 402.808276647 83.7656714579 439 128 c 1
 507 103 l 1
EndSplineSet
EndChar

StartChar: partialdiff
Encoding: 8706 8706 166
Width: 594
GlyphClass: 1
Flags: W
HStem: -12 119<214.667 338.608> 315 120<213.695 338.953> 561 119<152 307.92>
VStem: 21 151<147.815 274.647> 379 157<160.312 397.995>
LayerCount: 2
Fore
SplineSet
172 211 m 0
 172 153 218 107 276 107 c 0
 333.721416039 107 379 152.718181864 379 211 c 0
 379 269.781713294 334.216504513 315 276 315 c 0
 217 315 172 270 172 211 c 0
536 315 m 0
 536 103.061793433 442.050462243 -12 269 -12 c 0
 120.821382732 -12 21 78.1612489194 21 212 c 0
 21 336.221058023 120.221896874 435 245 435 c 0
 318.513413416 435 382.739326273 406.334197087 422 356 c 1
 413.020680462 494.680601751 336.348985902 561 185 561 c 0
 168.514701644 561 161.420170489 560.785014207 152 560 c 1
 152 680 l 1
 423.715150287 680 536 573.27091108 536 315 c 0
EndSplineSet
EndChar

StartChar: uni0394
Encoding: 916 916 167
Width: 715
GlyphClass: 1
Flags: W
HStem: 0 115<159 415> 660 20G<277.706 296.324>
DStem2: -29 0 159 115 0.421425 0.906863<183.517 512.239> 287 680 287 418 0.422521 -0.906353<237.465 566.172>
LayerCount: 2
Fore
SplineSet
159 115 m 1
 415 115 l 1
 287 418 l 1
 159 115 l 1
-29 0 m 1
 287 680 l 1
 604 0 l 1
 -29 0 l 1
EndSplineSet
EndChar

StartChar: product
Encoding: 8719 8719 168
Width: 790
GlyphClass: 1
Flags: W
HStem: -161 21G<113 241 517 645> 552 116<241 517>
VStem: 113 128<-161 552> 517 128<-161 552>
LayerCount: 2
Fore
SplineSet
113 -161 m 1
 113 668 l 1
 645 668 l 1
 645 -161 l 1
 517 -161 l 1
 517 552 l 1
 241 552 l 1
 241 -161 l 1
 113 -161 l 1
EndSplineSet
EndChar

StartChar: pi
Encoding: 960 960 169
Width: 638
GlyphClass: 1
Flags: W
HStem: 1 104<477.164 536> 380 116<53 117 248 398 529 617>
VStem: 36 131<0 131> 338 139<56.4166 200.875>
DStem2: 36 0 167 0 0.207912 0.978148<27.2364 388.537> 316.918 0 447.691 0 0.207912 0.978148<160.71 388.554>
LayerCount: 2
Fore
SplineSet
458 1 m 2
 378.240782679 1 338 28.83320802 338 84 c 0
 338 97.2807563138 339.252257314 107.924943486 342 118 c 2
 398 380 l 1
 248 380 l 1
 167 0 l 1
 36 0 l 1
 117 380 l 1
 28 380 l 1
 53 496 l 1
 642 496 l 1
 617 380 l 1
 529 380 l 1
 480 152 l 2
 477.940737465 142.733318591 477 135.834577184 477 130 c 0
 477 112.071349029 490.859844098 105 526 105 c 2
 559 105 l 1
 536 1 l 1
 458 1 l 2
EndSplineSet
EndChar

StartChar: hungarumlaut
Encoding: 733 733 170
Width: 502
GlyphClass: 1
Flags: W
HStem: 572 154
LayerCount: 2
Fore
SplineSet
474 726 m 0
 504.948292366 726 530 700.053588522 530 668 c 0
 530 643.715044339 523.643392896 634.781434356 493 616 c 0
 433 580 433 581 432 580 c 2
 419 572 l 1
 297 572 l 1
 424 698 l 2
 434 708 438 713 439 713 c 0
 447.640171765 721.640171765 459.37817086 726 474 726 c 0
267 726 m 0
 297.948292366 726 323 700.053588522 323 668 c 0
 323 643.715044339 316.643392896 634.781434356 286 616 c 0
 226 580 226 581 225 580 c 2
 212 572 l 1
 89 572 l 1
 104 586 l 2
 114 595 125 607 139 621 c 2
 216 698 l 2
 228.679491924 710.679491924 231.154700538 713 232 713 c 0
 240.640171765 721.640171765 252.37817086 726 267 726 c 0
EndSplineSet
EndChar

StartChar: tilde
Encoding: 732 732 171
Width: 461
GlyphClass: 1
Flags: W
HStem: 568 80<296.096 408.904> 607 82<186.345 296.096>
LayerCount: 2
Fore
SplineSet
453 690 m 0x80
 475 690 492 673 492 651 c 0
 492 630.90204175 478.840366656 612.879065648 446 588 c 0
 427.538553405 574.666733015 402.204967949 568 370 568 c 0x80
 303 568 296 607 229 607 c 0
 208 607 191 596 178 574 c 1
 89 574 l 1
 109.926294597 641.761334887 165.791150731 689 225 689 c 0x40
 293 689 296 648 364 648 c 0
 411 648 406 690 453 690 c 0x80
EndSplineSet
EndChar

StartChar: endash
Encoding: 8211 8211 172
Width: 536
GlyphClass: 1
Flags: W
HStem: 185 128<38 464>
LayerCount: 2
Fore
SplineSet
38 185 m 1
 38 313 l 1
 464 313 l 1
 464 185 l 1
 38 185 l 1
EndSplineSet
EndChar

StartChar: emdash
Encoding: 8212 8212 173
Width: 870
GlyphClass: 1
Flags: W
HStem: 185 128<38 798>
LayerCount: 2
Fore
SplineSet
38 185 m 1
 38 313 l 1
 798 313 l 1
 798 185 l 1
 38 185 l 1
EndSplineSet
EndChar

StartChar: trademark
Encoding: 8482 8482 174
Width: 1013
GlyphClass: 1
Flags: W
HStem: 301 367<234 343 487 594 859 966> 575 93<113 234 343 463>
VStem: 234 109<301 575> 487 107<301 558> 859 107<301 558>
DStem2: 726 432 775 301 0.310675 0.950516<0 161.085>
LayerCount: 2
Fore
SplineSet
234 301 m 1xb8
 234 575 l 1
 113 575 l 1
 113 668 l 1
 463 668 l 1
 463 575 l 1
 343 575 l 1x78
 343 301 l 1
 234 301 l 1xb8
487 301 m 1xb8
 487 668 l 1xb8
 660 668 l 1
 726 432 l 1
 793 668 l 1x78
 966 668 l 1
 966 301 l 1
 859 301 l 1
 859 558 l 1
 775 301 l 1
 678 301 l 1
 594 558 l 1
 594 301 l 1
 487 301 l 1xb8
EndSplineSet
EndChar

StartChar: Euro
Encoding: 8364 8364 175
Width: 704
GlyphClass: 1
Flags: W
HStem: -12 130<302.893 460.047> 231 74<43 96.3987 250 314> 366 74<71 103 279 418> 553 127<362.299 517.547>
LayerCount: 2
Fore
SplineSet
647 140 m 1
 584.76303307 38.6139732269 491.526766599 -12 367 -12 c 0
 206.993827105 -12 106.9994985 77.0059408465 94 231 c 1
 -13 231 l 1
 43 305 l 1
 94 305 l 1
 95.9257466284 322.331719655 98.8362235063 342.058285161 103 366 c 1
 15 366 l 1
 71 440 l 1
 123 440 l 1
 177.063628424 592.179102229 298.183283266 680 454 680 c 0
 581.148428868 680 667.038456558 625.882299626 700 525 c 1
 561 475 l 1
 538.844583103 528.374413434 501.590490605 553 443 553 c 0
 372.525797328 553 313.766804486 512.513620786 279 440 c 1
 474 440 l 1
 418 366 l 1
 254 366 l 1
 251 352 251 352 245 305 c 1
 370 305 l 1
 314 231 l 1
 250 231 l 1
 263.997003999 160.015194005 308.986725013 118 371 118 c 0
 435.322773276 118 484.169337239 143.254005859 518 194 c 1
 647 140 l 1
EndSplineSet
EndChar

StartChar: uni2113
Encoding: 8467 8467 176
Width: 506
GlyphClass: 1
Flags: W
HStem: -12 122<169.45 326.911> 573 107<316.458 383.395>
VStem: 64 163<73.0403 156.261> 385 125<470.493 571.826>
DStem2: 18 218 69 157 0.851774 0.523909<0 11.4821 295.853 398.282> 33.3738 -12 188.166 -12 0.207912 0.978148<283.136 330.345 425.784 617.95>
LayerCount: 2
Fore
SplineSet
270 373 m 1
 334.036115488 412.022007875 385 486.030431472 385 540 c 0
 385 562.177778505 374.833670717 573 354 573 c 0
 323.958317522 573 306.984770325 551.929389686 296 501 c 2
 270 373 l 1
276 110 m 0
 301.630438187 110 328.513488806 119.690401967 362 141 c 1
 400 52 l 1
 381.34144832 38.5243793425 356.960846672 24.4971838735 327 10 c 0
 296.591959349 -4.71356805705 260.822202538 -12 219 -12 c 0
 119.899976292 -12 64 33.080626042 64 113 c 0
 64 124.60952621 65.1935979638 135.113188292 69 157 c 1
 -5 112 l 1
 18 218 l 1
 92 265 l 1
 132 452 l 2
 165.099577291 607.467711518 236.359369484 680 356 680 c 0
 455.823604209 680 510 638.136421434 510 561 c 0
 510 460.119725635 454.246151573 397.158155359 247 264 c 1
 231 191 l 2
 228.268311118 178.252118553 227 167.154396266 227 156 c 0
 227 124.040802453 241.956506961 110 276 110 c 0
EndSplineSet
EndChar

StartChar: Lslash
Encoding: 321 321 177
Width: 595
GlyphClass: 1
Flags: W
HStem: 0 140<219 510> 648 20G<166.75 331>
VStem: 171 160<508 668>
DStem2: 11 300 76 225 0.883116 0.469155<0 22.2159 308.235 426.159> 28.1748 0 189.242 0 0.207912 0.978148<176.615 230.027 355.952 362.747 488.257 683.098>
LayerCount: 2
Fore
SplineSet
28 0 m 1
 76 225 l 1
 -15 177 l 1
 11 300 l 1
 103 348 l 1
 171 668 l 1
 331 668 l 1
 283 445 l 1
 459 538 l 1
 433 414 l 1
 258 322 l 1
 219 140 l 1
 539 140 l 1
 510 0 l 1
 28 0 l 1
EndSplineSet
EndChar

StartChar: lslash
Encoding: 322 322 178
Width: 342
GlyphClass: 1
Flags: W
HStem: 0 124<199.274 269> 487 20G<338.462 371.738> 648 20G<141.799 301>
VStem: 29 168<79.5832 218.031> 146 155<513 668>
DStem2: 4.24208 0 160.426 0 0.207912 0.978148<197.068 233.155 356.917 360.715 484.269 682.876>
LayerCount: 2
Fore
SplineSet
197 160 m 0xf0
 197 133.9090009 212.138751375 124 252 124 c 2
 294 124 l 1
 269 0 l 1
 172 0 l 2
 130.39736838 0 94.9193498717 7.50496545372 68 22 c 0
 41.8816835782 36.0637088425 29 61.1664768411 29 98 c 0xf0
 29 110.338975094 30.3708896784 121.854448392 34 140 c 2
 53 228 l 1
 -23 188 l 1
 3 309 l 1
 79 349 l 1
 146 668 l 1
 301 668 l 1xe8
 254 442 l 1
 376 507 l 1
 350 385 l 1
 229 321 l 1
 204 205 l 2
 199.252858186 185.062004382 197 170.579344613 197 160 c 0xf0
EndSplineSet
EndChar

StartChar: oslash
Encoding: 248 248 179
Width: 577
GlyphClass: 1
Flags: W
HStem: -12 118<189.924 313.563> 392 118<230.89 350.36>
VStem: 5 156<201.887 306.423> 382 156<184.349 304.023>
DStem2: 38 85 88 32 0.731777 0.681544<-85.1142 4.70201 168.386 402.353 562.979 650.931>
AnchorPoint: "Anchor-1" 317 496 basechar 0
LayerCount: 2
Fore
SplineSet
189 125 m 1
 205.208046769 111.830962 223.314718244 106 248 106 c 0
 327.837907715 106 382 180.77602293 382 291 c 2
 382 306 l 1
 189 125 l 1
161 200 m 1
 351 376 l 1
 336.265888897 386.805014809 318.408127302 392 296 392 c 0
 214.718540425 392 161 315.600298063 161 200 c 1
538 295 m 0
 538 112.729645133 417.739495247 -12 242 -12 c 0
 180.747700986 -12 129.509822472 2.6393938611 88 32 c 1
 26 -27 l 1
 -25 27 l 1
 38 85 l 1
 16.0808081489 118.875114679 5 158.833180428 5 204 c 0
 5 384.060204864 128.05881943 510 304 510 c 0
 360.775215931 510 411.844678668 496.103547555 451 470 c 1
 514 529 l 1
 565 475 l 1
 503 418 l 1
 526.674573234 383.4745807 538 343.673795209 538 295 c 0
EndSplineSet
EndChar

StartChar: Oslash
Encoding: 216 216 180
Width: 761
GlyphClass: 1
Flags: W
HStem: -12 130<268.897 429.111> 550 130<331.464 490.335>
VStem: 30 169<232.137 402.29> 562 168<267.219 448.928>
DStem2: 4 43 55 -11 0.731548 0.68179<0.492286 99.2845 275.949 678.327 848.576 943.891>
AnchorPoint: "Anchor-1" 456 668 basechar 0
LayerCount: 2
Fore
SplineSet
241 163 m 1
 267.89859146 133.112676156 303.833176985 118 348 118 c 0
 468.443066774 118 562 232.541665913 562 380 c 0
 562 402.613487803 558.473126871 425.377850729 551 451 c 1
 241 163 l 1
413 550 m 0
 293.015151142 550 199 434.018692049 199 286 c 0
 199 263.84197287 201.242141414 246.225147476 206 231 c 1
 510 514 l 1
 483.98996048 537.008881114 448.98611237 550 413 550 c 0
730 394 m 0
 730 158.89293717 562.89532991 -12 333 -12 c 0
 249.416161157 -12 177.265853211 10.7843077723 124 54 c 1
 55 -11 l 1
 4 43 l 1
 75 109 l 1
 45.1619436144 153.757084578 30 207.66621743 30 269 c 0
 30 502.036710005 201.035278706 680 425 680 c 0
 506.578610915 680 573.371951741 660.726299662 626 622 c 1
 695 686 l 1
 746 633 l 1
 678 569 l 1
 712.808062296 523.252260982 730 465.394778325 730 394 c 0
EndSplineSet
EndChar

StartChar: Thorn
Encoding: 222 222 181
Width: 623
GlyphClass: 1
Flags: W
HStem: 0 21G<-23 143.219> 128 141<196 397.35> 426 137<259 425.249> 648 20G<114.749 280>
VStem: 444 168<309.062 410.836>
DStem2: -23 0 139 0 0.207912 0.978148<33.6817 164.498 308.654 469.293 609.328 682.926>
LayerCount: 2
Fore
SplineSet
444 372 m 0
 444 410.786045998 412.445132441 426 332 426 c 2
 230 426 l 1
 196 269 l 1
 294 269 l 2
 397.199129767 269 444 301.13659756 444 372 c 0
612 389 m 0
 612 209.075621891 501.103459712 128 255 128 c 2
 166 128 l 1
 139 0 l 1
 -23 0 l 1
 119 668 l 1
 280 668 l 1
 259 563 l 1
 347 563 l 2
 529.379517289 563 612 508.751079277 612 389 c 0
EndSplineSet
EndChar

StartChar: ae
Encoding: 230 230 182
Width: 886
GlyphClass: 1
Flags: W
HStem: -13 102<149.331 265.665> -12 118<498.95 656.184> 209 90<170.254 332 487 715.763> 398 112<546.886 689.124> 407 103<212.02 343.161>
VStem: -18 161<96.1601 184.347> 716 134<299.108 369.489>
AnchorPoint: "Anchor-1" 451 496 basechar 0
LayerCount: 2
Fore
SplineSet
313 209 m 2xa6
 183.293337201 209 143 191.697566967 143 136 c 0
 143 106.366872999 162.583920615 89 196 89 c 0
 248.393828988 89 304.133905058 128.371958494 322 178 c 0
 326 190 329 201 332 209 c 1
 313 209 l 2xa6
716 313 m 2
 716 365.223616137 679.753175493 398 622 398 c 0x36
 558.272478046 398 504.073132673 358.253813393 487 299 c 1
 715 299 l 1
 715.775255129 301.325765386 716 302.898979486 716 306 c 2
 716 313 l 2
372 78 m 1
 318.7415109 18.7122479834 246.604858894 -13 165 -13 c 0
 53.1221080534 -13 -18 37.9125472951 -18 118 c 0
 -18 237.834767153 104.668395158 299 345 299 c 1
 352.599679492 338.084065959 354 346.485989007 354 353 c 0
 354 389 330 407 282 407 c 0
 235.830367119 407 197.937871902 384.864780021 181 348 c 1
 63 394 l 1
 114.143494936 472.219462843 192.310123536 510 303 510 c 0xae
 365.838762902 510 417.32732028 488.515565986 442 452 c 1
 491.811298523 491.849038818 549.70660574 510 627 510 c 0
 698.474926586 510 753.256581851 490.743418149 792 452 c 0
 830.933018824 413.066981176 850 362.112117688 850 297 c 0
 850 273.475345454 846.485117356 245.356284298 839 209 c 1
 473 209 l 1
 471.19089023 194.52712184 471 192.522774425 471 188 c 0
 471 136.774284372 509.28020739 106 573 106 c 0
 613.716638814 106 655.845358292 120.845358292 678 143 c 1
 791 98 l 1
 733.481740207 26.354448328 649.101953885 -12 549 -12 c 0x76
 469.983332477 -12 408.992197786 19.012441368 372 78 c 1
EndSplineSet
EndChar

StartChar: eth
Encoding: 240 240 183
Width: 581
GlyphClass: 1
Flags: W
HStem: -12 113<177.393 306.24> 338 118<193.208 324.997> 604 122<233 311.978>
VStem: 2 139<137.699 281.878> 410 138<266.719 512.01>
DStem2: 252 530 289 483 0.769758 0.638336<0 82.9649 233.556 317.422>
LayerCount: 2
Fore
SplineSet
141 205 m 0
 141 144.166572291 180.846066731 101 237 101 c 0
 312.664576591 101 357 151.616275058 357 238 c 0
 357 300.25022686 320.760217786 338 261 338 c 0
 190.81192604 338 141 282.791781972 141 205 c 0
233 726 m 1
 312.010834287 722.961121758 374.627587284 705.585792392 424 673 c 1
 498 734 l 1
 535 686 l 1
 470 633 l 1
 519.138091362 578.847817683 548 486.711724722 548 384 c 0
 548 149.437216196 417.545683882 -12 228 -12 c 0
 89.002347409 -12 2 69.9977876023 2 201 c 0
 2 350.038463588 110.039213597 456 262 456 c 0
 320.854238837 456 383.937868487 425.101895682 409 384 c 1
 409.775255129 390.977296157 410 397.045407685 410 411 c 0
 410 466.775175632 393.618575715 517.408668877 366 547 c 1
 289 483 l 1
 252 530 l 1
 315 584 l 1
 286.733988753 597.123505222 249.600916951 604 207 604 c 1
 233 726 l 1
EndSplineSet
EndChar

StartChar: thorn
Encoding: 254 254 184
Width: 589
GlyphClass: 1
Flags: W
HStem: -161 21G<-55 105.237> -12 119<209.468 328.485> 392 119<288.883 430.567> 648 20G<116.754 276>
VStem: -55 156<-161 -5> 121 155<513 668> 393 158<178.721 362.466>
DStem2: -55 -161 101 -161 0.207912 0.978148<32.4342 273.673 640.629 847.477>
LayerCount: 2
Fore
SplineSet
173 214 m 0
 173 150.886320845 209.093422751 107 261 107 c 0
 338.066276805 107 393 176.083318563 393 273 c 0
 393 353.850645753 365.109295635 392 306 392 c 0
 231.140397837 392 173 314.188038985 173 214 c 0
287 -12 m 0
 227.418415461 -12 168.826664385 25.4814878208 151 75 c 1
 101 -161 l 1
 -55 -161 l 1
 121 668 l 1
 276 668 l 1
 227 434 l 1
 261.331096123 483.477167942 314.589563353 511 376 511 c 0
 485.134183697 511 551 433.842900902 551 306 c 0
 551 124.056814627 438.047172763 -12 287 -12 c 0
EndSplineSet
EndChar

StartChar: multiply
Encoding: 215 215 185
Width: 618
GlyphClass: 1
Flags: W
DStem2: 58 112 149 22 0.706133 0.708079<0.531059 192.158 318.904 513.89> 284 337 194 248 0.706133 -0.708079<-195.692 -0.533004 126.746 317.667>
LayerCount: 2
Fore
SplineSet
149 22 m 1
 58 112 l 1
 194 248 l 1
 55 385 l 1
 146 476 l 1
 284 337 l 1
 421 476 l 1
 512 385 l 1
 373 248 l 1
 509 112 l 1
 418 22 l 1
 284 158 l 1
 149 22 l 1
EndSplineSet
EndChar

StartChar: divide
Encoding: 247 247 186
Width: 645
GlyphClass: 1
Flags: W
HStem: -12 159<243.132 348.868> 186 128<40 552> 351 159<242.845 349.155>
VStem: 217 158<12.7677 120.868 375.768 485.648>
LayerCount: 2
Fore
SplineSet
375 68 m 0
 375 23.721183908 339.725330891 -12 296 -12 c 0
 252.274669109 -12 217 23.721183908 217 68 c 0
 217 111 253 147 296 147 c 0
 339 147 375 111 375 68 c 0
40 186 m 1
 40 314 l 1
 552 314 l 1
 552 186 l 1
 40 186 l 1
375 431 m 0
 375 386.721183908 339.725330891 351 296 351 c 0
 252.274669109 351 217 386.721183908 217 431 c 0
 217 475 252 510 296 510 c 0
 340 510 375 475 375 431 c 0
EndSplineSet
EndChar

StartChar: OE
Encoding: 338 338 187
Width: 1095
GlyphClass: 1
Flags: W
HStem: -12 131<271.083 434.199> 0 140<681 1008> 275 138<739 928> 529 139<764 1120> 550 130<331.398 491.879>
VStem: 31 169<192.925 402.78>
LayerCount: 2
Fore
SplineSet
200 286 m 0xac
 200 185.286985423 258.745352351 119 348 119 c 0
 469.957857289 119 563 231.948833709 563 380 c 0
 563 483.066676046 503.941184746 550 413 550 c 0
 293.795386359 550 200 433.746563387 200 286 c 0xac
528 59 m 1
 482.934086132 13.9340861321 409.88032238 -12 328 -12 c 0
 147.631508605 -12 31 98.3483296905 31 269 c 0
 31 504.875647712 198.88076594 680 425 680 c 0xac
 518.958337594 680 598.980920853 649.023516158 642 596 c 1
 657 668 l 1
 1150 668 l 1
 1120 529 l 1
 764 529 l 1
 739 413 l 1
 957 413 l 1
 928 275 l 1
 710 275 l 1
 681 140 l 1
 1037 140 l 1
 1008 0 l 1
 515 0 l 1x74
 528 59 l 1
EndSplineSet
EndChar

StartChar: oe
Encoding: 339 339 188
Width: 937
GlyphClass: 1
Flags: W
HStem: -12 119<179.7 305.456 547.005 703.227> 210 90<540 767.999> 392 119<232.076 358.826 590.415 748.49>
VStem: -1 156<131.345 301.113> 768 134<300.058 374.371>
LayerCount: 2
Fore
SplineSet
155 198 m 0
 155 139.091429434 183.917551797 107 237 107 c 0
 320.64133787 107 382 189.516821485 382 302 c 0
 382 360.964290983 353.033338251 392 298 392 c 0
 216.09018625 392 155 309.122404667 155 198 c 0
768 321 m 0
 768 368.027781384 732.967536683 398 678 398 c 0
 612.662903255 398 555.918049673 357.702930065 540 300 c 1
 766 300 l 1
 767.291987198 307.751923191 768 315.186057607 768 321 c 0
-1 181 m 0
 -1 371.833362937 131.840880833 511 314 511 c 0
 389.815580049 511 451.924323871 480.129381769 483 427 c 1
 522.342106318 475.42105393 611.713030375 511 694 511 c 0
 826.774599566 511 902 437.221241882 902 307 c 0
 902 277.665735561 897.910363444 244.607840069 890 210 c 1
 522 210 l 1
 520.236067977 195.88854382 520 193.291796068 520 188 c 0
 520 137.737070527 558.3167071 106 619 106 c 0
 660.324891823 106 700.178791083 120.178791083 723 143 c 1
 834 99 l 1
 765.430923137 24.468394714 684.609075392 -12 588 -12 c 0
 513.955876485 -12 446.979756563 14.0250065984 413 56 c 1
 361.465589477 14.3760530395 286.604144821 -12 220 -12 c 0
 79.0777101759 -12 -1 57.9321179364 -1 181 c 0
EndSplineSet
EndChar

StartChar: Aring
Encoding: 197 197 192
Width: 698
GlyphClass: 2
Flags: W
HStem: 0 21G<-65 132.092 455.311 623> 119 128<255 427> 794 85<392.552 471.762>
VStem: 300 85<707.427 786.448> 479 86<707.391 786.613>
DStem2: -65 0 121 0 0.508206 0.861235<94.5264 230.555 375.351 521.057> 328 666 395 501 0.508206 0.861235<-397.957 -108.054> 516 644 395 501 0.163902 -0.986477<121.234 377.044> 623 0 427 247 0.163902 -0.986477<-531.594 -275.785 -147.057 -109.526>
AnchorPoint: "Anchor-2" 577 10 basechar 0
AnchorPoint: "Anchor-1" 461 879 basechar 0
AnchorPoint: "Anchor-0" 296 0 basechar 0
LayerCount: 2
Fore
SplineSet
565 747 m 0
 565 707.417328269 547.331984554 670.278438658 516 644 c 1
 623 0 l 1
 458 0 l 1
 442 119 l 1
 187 119 l 1
 121 0 l 1
 -65 0 l 1
 328 666 l 1
 309.376565299 690.831246267 300 717.956310169 300 747 c 0
 300 820 359 879 432 879 c 0
 505.776645067 879 565 820.22193345 565 747 c 0
255 247 m 1
 427 247 l 1
 395 501 l 1
 255 247 l 1
385 747 m 0
 385 721 406 700 432 700 c 0
 458 700 479 721 479 747 c 0
 479 774 459 794 432 794 c 0
 406 794 385 773 385 747 c 0
EndSplineSet
EndChar

StartChar: Ccedilla
Encoding: 199 199 203
Width: 673
GlyphClass: 2
Flags: W
HStem: -195 54<183.358 300.314> -12 132<317 418.566> 550 130<323.656 482.461>
VStem: 32 168<184.717 405.03> 304 91<-135.643 -86.8579>
AnchorPoint: "Anchor-1" 428 668 basechar 0
AnchorPoint: "Anchor-0" 270 -195 basechar 0
LayerCount: 2
Fore
SplineSet
395 -103 m 0
 395 -161.052642576 345.923928941 -195 262 -195 c 0
 227.264281038 -195 188.169213126 -188.076915057 166 -178 c 1
 192 -128 l 1
 210.357290753 -136.695558778 230.223942547 -141 252 -141 c 0
 283.439680265 -141 304 -128.347495548 304 -109 c 0
 304 -94.1279711765 288.200364965 -84 265 -84 c 0
 248 -84 253 -89 236 -89 c 0
 224.69269563 -89 217 -81.7121830873 217 -71 c 0
 217 -66.3266639979 218.686151383 -62.3923107717 223 -57 c 2
 264 -8 l 1
 115.588854343 14.0611162462 32 112.422138814 32 265 c 0
 32 510.383242417 189.355305228 680 417 680 c 0
 547.116153315 680 639.028528661 623.911739454 671 525 c 1
 525 476 l 1
 503.963823964 526.086133418 463.891939422 550 401 550 c 0
 288.039323167 550 200 433.05224236 200 283 c 0
 200 228.101563068 212.41525675 188.568771836 238 162 c 0
 264.11330747 134.88233455 297.176749148 120.995689045 338 120 c 0
 395.97297619 120 441.98227401 143.976676329 480 194 c 1
 616 141 l 1
 551.019746358 40.0306828018 451.039218621 -12 322 -12 c 2
 317 -12 l 1
 288 -47 l 1
 298.193241247 -44.9613517506 307.165857586 -44 316 -44 c 0
 362.932224082 -44 395 -67.9493516353 395 -103 c 0
EndSplineSet
EndChar

StartChar: ccedilla
Encoding: 231 231 204
Width: 531
GlyphClass: 2
Flags: W
HStem: -195 54<84.3577 201.314> -12 117<218 312.262> 392 118<233.815 361.693>
VStem: 2 154<129.289 301.299> 205 91<-135.643 -86.8579>
AnchorPoint: "Anchor-1" 318 496 basechar 0
AnchorPoint: "Anchor-0" 212 0 basechar 0
LayerCount: 2
Fore
SplineSet
156 198 m 0
 156 138.787420512 185.064447752 105 236 105 c 0
 283 105 313 119 341 154 c 1
 464 107 l 1
 407.990769367 28.987143047 324.983193953 -12 223 -12 c 2
 218 -12 l 1
 189 -47 l 1
 199.193241247 -44.9613517506 208.165857586 -44 217 -44 c 0
 263.932224082 -44 296 -67.9493516353 296 -103 c 0
 296 -161.052642576 246.923928941 -195 163 -195 c 0
 128.264281038 -195 89.1692131261 -188.076915057 67 -178 c 1
 93 -128 l 1
 111.357290753 -136.695558778 131.223942547 -141 153 -141 c 0
 184.439680265 -141 205 -128.347495548 205 -109 c 0
 205 -94.1279711765 189.200364965 -84 166 -84 c 0
 149 -84 154 -89 137 -89 c 0
 125.69269563 -89 118 -81.7121830873 118 -71 c 0
 118 -66.3266639979 119.686151383 -62.3923107717 124 -57 c 2
 166 -7 l 1
 64.414461571 12.1101507936 2 88.6059238166 2 194 c 0
 2 376.076439613 135.075942916 510 316 510 c 0
 357.79444609 510 396.975076869 500.542606364 432 482 c 0
 466.803846623 463.574434141 493.401849701 429.906075814 511 382 c 1
 378 336 l 1
 369.965506057 374.163846229 344.80378913 392 299 392 c 0
 217.09018625 392 156 309.122404667 156 198 c 0
EndSplineSet
EndChar

StartChar: Eth
Encoding: 208 208 249
AltUni2: 000189.ffffffff.0 000110.ffffffff.0
Width: 738
GlyphClass: 1
Flags: W
HStem: 0 133<214 393.785> 275 137<36 82 273 399> 537 131<300 475.102>
VStem: 538 168<283.484 484.56>
DStem2: 24 0 185.73 0 0.207912 0.978148<169.597 281.049 454.767 582.649>
LayerCount: 2
Fore
SplineSet
538 402 m 0
 538 498.875045126 487.166726835 537 358 537 c 2
 300 537 l 1
 273 412 l 1
 429 412 l 1
 399 275 l 1
 244 275 l 1
 214 133 l 1
 277 133 l 2
 442.957251637 133 538 230.955936052 538 402 c 0
706 393 m 0
 706 147.633863031 533.572663788 0 247 0 c 2
 24 0 l 1
 82 275 l 1
 6 275 l 1
 36 412 l 1
 112 412 l 1
 166 668 l 1
 360 668 l 2
 583.978182327 668 706 571.017341445 706 393 c 0
EndSplineSet
EndChar

StartChar: one.tf
Encoding: 1114115 -1 251
Width: 640
GlyphClass: 1
Flags: W
HStem: 0 124<51 207 360 474> 447 123<147 271.488> 647 20G<333.92 475>
DStem2: 180.643 0 333.643 0 0.207912 0.978148<158.581 456.642>
LayerCount: 2
Fore
SplineSet
147 570 m 1
 261.603519011 570 310.839961922 592.74254744 357 667 c 1
 475 667 l 1
 360 124 l 1
 501 124 l 1
 474 0 l 1
 25 0 l 1
 51 124 l 1
 207 124 l 1
 274 447 l 1
 120 447 l 1
 147 570 l 1
EndSplineSet
Substitution2: "'pnum' Proportional Numbers lookup 13 subtable" one
Substitution2: "'aalt' Access All Alternates lookup 0 subtable" one
EndChar

StartChar: Aogonek
Encoding: 260 260 262
Width: 698
GlyphClass: 2
Flags: W
HStem: -173 76<473.769 594.469> 0 21G<-65 132.092> 119 128<255 427> 648 20G<317.204 515.323>
VStem: 388 128<-120.166 -44.4839>
DStem2: -65 0 121 0 0.508034 0.861337<94.4943 230.524 375.321 578.832> 512 668 395 501 0.16392 -0.986474<145.562 401.372> 623 0 442 119 0.16392 -0.986474<-480.395 -275.787 -147.06 -27.0468>
AnchorPoint: "Anchor-2" 577 10 basechar 0
AnchorPoint: "Anchor-1" 427 668 basechar 0
AnchorPoint: "Anchor-0" 296 0 basechar 0
LayerCount: 2
Fore
SplineSet
255 247 m 1
 427 247 l 1
 395 501 l 1
 255 247 l 1
516 -75 m 0
 516 -89.9187185593 529.840686452 -97 559 -97 c 0
 572 -97 589 -94 610 -88 c 1
 594 -164 l 1
 573.86809894 -168.793309776 536.007886926 -173 513 -173 c 0
 434.538114352 -173 388 -144.332521559 388 -96 c 0
 388 -55.5981365048 428.500390929 -12.8724493711 479 0 c 1
 458 0 l 1
 442 119 l 1
 187 119 l 1
 121 0 l 1
 -65 0 l 1
 329 668 l 1
 512 668 l 1
 623 0 l 1
 535.961241302 -40.0178200912 516 -54.0093443681 516 -75 c 0
EndSplineSet
EndChar

StartChar: aogonek
Encoding: 261 261 263
Width: 545
GlyphClass: 2
Flags: W
HStem: -173 76<296.769 417.469> -12 103<87.4038 234.33> 407 103<201.235 333.61>
VStem: -18 161<102.974 181.558> 211 128<-120.166 -44.4839> 344 150<314.891 396.149>
AnchorPoint: "Anchor-2" 446 0 basechar 0
AnchorPoint: "Anchor-1" 298 496 basechar 0
AnchorPoint: "Anchor-0" 219 0 basechar 0
LayerCount: 2
Fore
SplineSet
143 138 m 0
 143 109.899924127 169.138192942 91 208 91 c 0
 267.778904821 91 303.921889051 128.687556206 325 213 c 2
 328 225 l 1
 272.596946052 220.053298755 228.372369722 211.142376658 194 198 c 0
 160 185 143 165 143 138 c 0
339 -75 m 0
 339 -89.9187185593 352.840686452 -97 382 -97 c 0
 395 -97 412 -94 433 -88 c 1
 417 -164 l 1
 396.86809894 -168.793309776 359.007886926 -173 336 -173 c 0
 257.538114352 -173 211 -144.332521559 211 -96 c 0
 211 -55.5981365048 251.500390929 -12.8724493711 302 0 c 1
 297 0 l 1
 292 59 l 1
 248.519710013 7.43035373669 204.185663459 -12 130 -12 c 0
 44.8076045921 -12 -18 43.1688418714 -18 118 c 0
 -18 232.724900705 85.3934740819 289.939828778 338 315 c 1
 342.410533616 332.642134462 344 342.973665961 344 354 c 0
 344 390.034730838 320.952841893 407 272 407 c 0
 225.016947755 407 187.006135475 385.013353681 170 348 c 1
 53 394 l 1
 103.898396324 472.842613914 180.775746847 510 293 510 c 0
 418.232581719 510 494 450.818484229 494 353 c 0
 494 256 441 97 441 0 c 1
 446 0 l 1
 358.961241302 -40.0178200912 339 -54.0093443681 339 -75 c 0
EndSplineSet
EndChar

StartChar: Eogonek
Encoding: 280 280 268
Width: 582
GlyphClass: 2
Flags: W
HStem: -173 76<313.769 434.469> 0 139<168 319 417.869 495> 274 139<226 414> 529 139<251 607>
VStem: 228 128<-120.166 -44.4839>
DStem2: -59.7723 -173 101.682 -173 0.207912 0.978148<352.539 490.618 632.61 751.273>
AnchorPoint: "Anchor-2" 463 -12 basechar 0
AnchorPoint: "Anchor-1" 384 668 basechar 0
AnchorPoint: "Anchor-0" 238 0 basechar 0
LayerCount: 2
Fore
SplineSet
356 -75 m 0
 356 -89.9187185593 369.840686452 -97 399 -97 c 0
 412 -97 429 -94 450 -88 c 1
 434 -164 l 1
 413.86809894 -168.793309776 376.007886926 -173 353 -173 c 0
 274.538114352 -173 228 -144.332521559 228 -96 c 0
 228 -55.5981365048 268.500390929 -12.8724493711 319 0 c 1
 -23 0 l 1
 119 668 l 1
 637 668 l 1
 607 529 l 1
 251 529 l 1
 226 413 l 1
 443 413 l 1
 414 274 l 1
 197 274 l 1
 168 139 l 1
 524 139 l 1
 495 0 l 1
 463 0 l 1
 375.961241302 -40.0178200912 356 -54.0093443681 356 -75 c 0
EndSplineSet
EndChar

StartChar: eogonek
Encoding: 281 281 269
Width: 567
GlyphClass: 2
Flags: W
HStem: -171 76<178.769 299.469> 209 90<168 395.764> 399 111<228.083 368.646>
VStem: 3 149<133.959 204.374> 93 128<-118.166 -43.698> 396 134<299.108 371.531>
AnchorPoint: "Anchor-2" 333 2 basechar 0
AnchorPoint: "Anchor-1" 321 496 basechar 0
AnchorPoint: "Anchor-0" 230 0 basechar 0
LayerCount: 2
Fore
SplineSet
396 313 m 2xe4
 396 366.031919174 359.965120958 399 302 399 c 0
 239.469252921 399 185.128951021 358.447535895 168 299 c 1
 395 299 l 1
 395.775255129 301.325765386 396 302.898979486 396 306 c 2
 396 313 l 2xe4
307 510 m 0
 446.249561107 510 530 430.380748676 530 298 c 0
 530 269.656282411 526.448690288 240.922958377 519 209 c 1
 154 209 l 1
 152.19089023 194.52712184 152 192.522774425 152 188 c 0xf4
 152 136.774284372 190.28020739 106 254 106 c 0
 295.778039833 106 335.882214206 119.882214206 358 142 c 1
 472 98 l 1
 432.865018946 50.6260755658 383.387630838 17.5274090388 327 1 c 1
 241.080953279 -38.9623473122 221 -52.9811260162 221 -73 c 0
 221 -87.9187185593 234.840686452 -95 264 -95 c 0
 277 -95 294 -92 315 -86 c 1
 299 -162 l 1
 278.86809894 -166.793309776 241.007886926 -171 218 -171 c 0
 139.538114352 -171 93 -142.332521559 93 -94 c 0xec
 93 -59.8549432397 121.173133738 -23.9239900661 162 -6 c 1
 60.2745431601 14.9434764082 3 87.7073614292 3 196 c 0xf4
 3 375.361988024 133.350177199 510 307 510 c 0
EndSplineSet
EndChar

StartChar: Iogonek
Encoding: 302 302 276
Width: 459
GlyphClass: 2
Flags: W
HStem: -173 76<92.7691 213.469> 0 124<13 98 267 331> 544 124<129 195 355 447>
VStem: 7 128<-120.166 -44.4839>
DStem2: 41.8707 -173 203.871 -173 0.207912 0.978148<337.317 733.169>
AnchorPoint: "Anchor-2" 242 0 basechar 0
AnchorPoint: "Anchor-1" 301 668 basechar 0
AnchorPoint: "Anchor-0" 151 0 basechar 0
LayerCount: 2
Fore
SplineSet
135 -75 m 0
 135 -89.9187185593 148.840686452 -97 178 -97 c 0
 191 -97 208 -94 229 -88 c 1
 213 -164 l 1
 192.86809894 -168.793309776 155.007886926 -173 132 -173 c 0
 53.5381143517 -173 7 -144.332521559 7 -96 c 0
 7 -55.5981365048 47.5003909288 -12.8724493711 98 0 c 1
 -13 0 l 1
 13 124 l 1
 105 124 l 1
 195 544 l 1
 103 544 l 1
 129 668 l 1
 474 668 l 1
 447 544 l 1
 355 544 l 1
 267 124 l 1
 358 124 l 1
 331 0 l 1
 242 0 l 1
 154.961241302 -40.0178200912 135 -54.0093443681 135 -75 c 0
EndSplineSet
EndChar

StartChar: iogonek
Encoding: 303 303 277
Width: 338
GlyphClass: 2
Flags: W
HStem: -173 76<54.7691 175.469> 380 116<51 129> 578 179<207.525 323.695>
VStem: -31 128<-120.166 -44.4839> 177 179<608.982 726.588>
DStem2: 11.2277 -173 167.228 -173 0.207912 0.978148<194.205 565.402>
AnchorPoint: "Anchor-2" 204 0 basechar 0
AnchorPoint: "Anchor-1" 247 719 basechar 0
AnchorPoint: "Anchor-0" 110 0 basechar 0
LayerCount: 2
Fore
SplineSet
356 668 m 0
 356 618 316 578 266 578 c 0
 216.277477022 578 177 617.718796988 177 668 c 0
 177 718 216 757 266 757 c 0
 316.781084628 757 356 718.216850354 356 668 c 0
97 -75 m 0
 97 -89.9187185593 110.840686452 -97 140 -97 c 0
 153 -97 170 -94 191 -88 c 1
 175 -164 l 1
 154.86809894 -168.793309776 117.007886926 -173 94 -173 c 0
 15.5381143517 -173 -31 -144.332521559 -31 -96 c 0
 -31 -55.5981365048 9.50039092883 -12.8724493711 60 0 c 1
 48 0 l 1
 129 380 l 1
 26 380 l 1
 51 496 l 1
 309 496 l 1
 204 0 l 1
 116.961241302 -40.0178200912 97 -54.0093443681 97 -75 c 0
EndSplineSet
EndChar

StartChar: uni0326
Encoding: 806 806 282
Width: 0
GlyphClass: 4
Flags: W
HStem: -246 45<-38 7.74293>
VStem: 30 120<-178.137 -89.6921>
AnchorPoint: "Anchor-3" 38 -251 basemark 0
AnchorPoint: "Anchor-3" 91 0 mark 0
AnchorPoint: "Anchor-0" 91 0 mark 0
LayerCount: 2
Fore
SplineSet
86 -40 m 1
 126.902646262 -56.9596338162 150 -86.9140144445 150 -123 c 0
 150 -195.697407488 78.4312708161 -246 -25 -246 c 2
 -38 -246 l 1
 -81 -201 l 1
 -9.88054976871 -201 30 -176.927956446 30 -134 c 0
 30 -105.699292767 12.7069861026 -84.9476760898 -15 -80 c 1
 86 -40 l 1
EndSplineSet
EndChar

StartChar: Uogonek
Encoding: 370 370 291
Width: 679
GlyphClass: 2
Flags: W
HStem: -173 76<226.769 347.469> 648 20G<115.691 281 535.733 701>
VStem: 26 162<141.928 333.414> 120 161<507 668> 141 128<-120.166 -44.134> 540 161<507 668>
DStem2: -59.8388 -173 101.924 -173 0.207912 0.978148<421.114 860.013> 360.924 -173 522.161 -173 0.207912 0.978148<340.493 859.854>
AnchorPoint: "Anchor-2" 376 0 basechar 0
AnchorPoint: "Anchor-1" 414 668 basechar 0
AnchorPoint: "Anchor-0" 287 0 basechar 0
LayerCount: 2
Fore
SplineSet
269 -75 m 0xcc
 269 -89.9187185593 282.840686452 -97 312 -97 c 0
 325 -97 342 -94 363 -88 c 1
 347 -164 l 1
 326.86809894 -168.793309776 289.007886926 -173 266 -173 c 0
 187.538114352 -173 141 -144.332521559 141 -96 c 0xcc
 141 -63.1789023015 168.785766673 -27.0988769202 208 -9 c 1
 89.0801755606 4.9905675811 26 72.9230643387 26 187 c 0xe4
 26 217.347181131 30.1012025255 250.472278453 39 292 c 2
 120 668 l 1
 281 668 l 1xd4
 198 279 l 2
 190 237 188 222 188 204 c 0xe4
 188 144.042444929 220.948266235 117 294 117 c 0
 387.861169327 117 432.964418999 161.826542618 457 279 c 2
 540 668 l 1
 701 668 l 1
 621 292 l 2
 580.16845607 98.7970848182 508.597950663 16.0872011384 364 -5 c 1
 286.898707929 -41.5736898288 269 -54.7622114603 269 -75 c 0xcc
EndSplineSet
EndChar

StartChar: uogonek
Encoding: 371 371 292
Width: 578
GlyphClass: 2
Flags: W
HStem: -173 76<306.769 427.469> -12 118<111.914 255.133> 476 20G<81.7246 241 401.725 561>
VStem: 17 162<115.713 275.922> 86 155<341 496> 221 128<-120.166 -44.4429> 406 155<341 496>
DStem2: -56.5347 -173 99.2769 -173 0.207912 0.978148<390.19 684.015> 263.489 -173 419.228 -173 0.207912 0.978148<316.805 684.01>
AnchorPoint: "Anchor-2" 456 0 basechar 0
AnchorPoint: "Anchor-1" 322 496 basechar 0
AnchorPoint: "Anchor-0" 236 0 basechar 0
LayerCount: 2
Fore
SplineSet
349 -75 m 0xf6
 349 -89.9187185593 362.840686452 -97 392 -97 c 0
 405 -97 422 -94 443 -88 c 1
 427 -164 l 1
 406.86809894 -168.793309776 369.007886926 -173 346 -173 c 0
 267.538114352 -173 221 -144.332521559 221 -96 c 0
 221 -53.0699772 263.906875884 -11.0212388334 321 2 c 1
 316 64 l 1
 286.257188456 15.4200744774 229.613087232 -12 159 -12 c 0
 64.8286898939 -12 17 37.1759769332 17 134 c 0xf6
 17 157.110043759 19.7130492653 180.44226744 27 220 c 1
 86 496 l 1
 241 496 l 1xea
 186 235 l 2
 181.242933419 212.16608041 179 192.940936821 179 175 c 0
 179 129.441249534 196.665869214 106 231 106 c 0
 290.117242078 106 333.033616623 152.162150771 350 234 c 2
 406 496 l 1
 561 496 l 1
 456 0 l 1
 368.961241302 -40.0178200912 349 -54.0093443681 349 -75 c 0xf6
EndSplineSet
EndChar

StartChar: Hbar
Encoding: 294 294 301
Width: 740
GlyphClass: 1
Flags: W
HStem: 0 21G<3 168.307 440 605.234> 274 139<252 498> 496 98<71 108 290 546 727 760> 648 20G<140.676 305 577.676 743>
VStem: 3 161<0 161> 440 161<0 161>
DStem2: 3 0 164 0 0.207912 0.978148<33.4738 313.753 455.745 506.992 640.69 682.926> 440 0 601 0 0.207912 0.978148<33.4738 280.071 422.271 507.2 640.69 682.926>
LayerCount: 2
Fore
SplineSet
252 413 m 1
 528 413 l 1
 546 496 l 1
 269 496 l 1
 252 413 l 1
3 0 m 1
 108 496 l 1
 50 496 l 1
 71 594 l 1
 129 594 l 1
 145 668 l 1
 305 668 l 1
 290 594 l 1
 566 594 l 1
 582 668 l 1
 743 668 l 1
 727 594 l 1
 781 594 l 1
 760 496 l 1
 706 496 l 1
 601 0 l 1
 440 0 l 1
 498 274 l 1
 223 274 l 1
 164 0 l 1
 3 0 l 1
EndSplineSet
EndChar

StartChar: hbar
Encoding: 295 295 302
Width: 644
GlyphClass: 1
Flags: W
HStem: 0 21G<43 203.252 366 526.27> 392 118<356.994 503.521> 555 78<82 161 328 434>
VStem: 43 156<0 156> 366 156<0 156> 431 161<227.164 383.271>
DStem2: 43 0 199 0 0.207912 0.978148<32.4342 402.418 473.082 567.405 678.422 713.518> 366 0 522 0 0.207912 0.978148<32.4342 333.556>
LayerCount: 2
Fore
SplineSet
431 328 m 0xf4
 431 371.714769977 413.25042373 392 375 392 c 0
 311.833223828 392 270.952662701 345.758053807 253 254 c 1
 199 0 l 1
 43 0 l 1
 161 555 l 1
 65 555 l 1
 82 633 l 1
 177 633 l 1
 191 698 l 1
 342 698 l 1
 328 633 l 1
 451 633 l 1
 434 555 l 1
 312 555 l 1
 286 432 l 1
 322.170173696 481.231625309 386.345778777 510 460 510 c 0
 547.041671572 510 592 460.954550806 592 366 c 0xf4
 592 339.735066128 588.685619531 311.562832142 582 281 c 2
 522 0 l 1
 366 0 l 1xf8
 422 263 l 2
 427.942445713 288.75059809 431 310.832934607 431 328 c 0xf4
EndSplineSet
EndChar

StartChar: dcroat
Encoding: 273 273 318
Width: 638
GlyphClass: 1
Flags: W
HStem: -13 118<131.039 272.159> -1 21G<338.438 490.003> 392 118<223.592 348.299> 555 78<304 435 606 656>
VStem: 3 155<139.613 317.918> 379 110<-1 289>
LayerCount: 2
Fore
SplineSet
158 216 m 0xbc
 158 145.849925914 191.121561552 105 248 105 c 0
 321.165833623 105 379 186.232722239 379 289 c 0
 379 350.66891993 343.286736639 392 290 392 c 0
 211.124957799 392 158 321.166722935 158 216 c 0xbc
335 63 m 1
 295.788718556 12.7291263542 245.684630393 -13 187 -13 c 0xbc
 75.0784193616 -13 3 66.9130301618 3 191 c 0
 3 373.729247224 115.775795401 510 267 510 c 0
 331.450131929 510 385.145204886 475.619701488 406 421 c 1
 435 555 l 1
 287 555 l 1
 304 633 l 1
 451 633 l 1
 465 698 l 1
 620 698 l 1
 616 680 l 2
 613.585685828 670.342743312 611.633399735 661.166998673 606 633 c 1
 673 633 l 1
 656 555 l 1
 589 555 l 1
 508.254300292 182.174176659 491.006332816 86.2754774891 489 -1 c 1
 340 -1 l 1x7c
 335 63 l 1
EndSplineSet
EndChar

StartChar: Scedilla
Encoding: 350 350 323
Width: 642
GlyphClass: 2
Flags: W
HStem: -195 54<160.358 277.314> -12 126<294 394.014> 551 129<244.024 411.073>
VStem: 61 163<447.411 530.586> 281 91<-135.643 -86.8579> 424 164<141.227 221.653>
AnchorPoint: "Anchor-1" 370 668 basechar 0
AnchorPoint: "Anchor-0" 247 -195 basechar 0
LayerCount: 2
Fore
SplineSet
372 -103 m 0
 372 -161.052642576 322.923928941 -195 239 -195 c 0
 204.264281038 -195 165.169213126 -188.076915057 143 -178 c 1
 169 -128 l 1
 187.357290753 -136.695558778 207.223942547 -141 229 -141 c 0
 260.439680265 -141 281 -128.347495548 281 -109 c 0
 281 -94.1279711765 265.200364965 -84 242 -84 c 0
 225 -84 230 -89 213 -89 c 0
 201.69269563 -89 194 -81.7121830873 194 -71 c 0
 194 -66.3266639979 195.686151383 -62.3923107717 200 -57 c 2
 241 -8 l 1
 128.622808194 7.91181476901 45.1955668475 67.502701445 10 157 c 1
 165 209 l 1
 178.967207391 151.135855096 236.820960592 114 313 114 c 0
 377.946163077 114 424 140.968463063 424 179 c 0
 424 220.166892672 395.532892337 239.144964447 280 275 c 0
 115.81039161 326.058963585 61 376.11411574 61 475 c 0
 61 599.232237148 171.316944384 680 341 680 c 0
 462.982759196 680 557.993214362 628.013147173 606 535 c 1
 451 483 l 1
 435.943449725 524.15457075 387.779591366 551 329 551 c 0
 263.575650246 551 224 528.762253671 224 492 c 0
 224 449.945629987 255.138043776 428.961296138 362 399 c 0
 535.487671875 351.141331896 588 306.2967331 588 206 c 0
 588 76.9503505952 472.93578501 -12 306 -12 c 2
 294 -12 l 1
 265 -47 l 1
 275.193241247 -44.9613517506 284.165857586 -44 293 -44 c 0
 339.932224082 -44 372 -67.9493516353 372 -103 c 0
EndSplineSet
Substitution2: "'locl' Localized Forms in Latin lookup 8 subtable" uni0218
Substitution2: "'aalt' Access All Alternates lookup 0 subtable" uni0218
EndChar

StartChar: scedilla
Encoding: 351 351 324
Width: 515
GlyphClass: 2
Flags: W
HStem: -195 54<87.3577 204.314> -13 109<220.396 291.817> 399 111<179.568 323.32>
VStem: 30 144<331.711 390.017> 208 91<-135.643 -86.8578> 306 148<110.711 166.812>
AnchorPoint: "Anchor-1" 274 496 basechar 0
AnchorPoint: "Anchor-0" 174 -195 basechar 0
LayerCount: 2
Fore
SplineSet
299 -103 m 0
 299 -161.052734375 249.923828125 -195 166 -195 c 0
 131.264648438 -195 92.1689453125 -188.077148438 70 -178 c 1
 96 -128 l 1
 114.357421875 -136.6953125 134.223632812 -141 156 -141 c 0
 187.439453125 -141 208 -128.34765625 208 -109 c 0
 208 -94.1279296875 192.200195312 -84 169 -84 c 0
 152 -84 157 -89 140 -89 c 0
 128.692382812 -89 121 -81.7119140625 121 -71 c 0
 121 -66.3271484375 122.686523438 -62.392578125 127 -57 c 2
 167.182529234 -8.66449381985 l 1
 86.1971608137 3.48189922744 23.8273743085 41.9019419908 -10 116 c 1
 120 160 l 1
 134 99 208 96 224 96 c 0
 262 96 306 111 306 139 c 0
 306 170 259 181 203 197 c 0
 125 219 30 250 30 357 c 0
 30 447 125 510 243 510 c 0
 281 510 409 510 471 400 c 1
 339 355 l 1
 334 367 322 399 241 399 c 0
 174 399 174 363 174 362 c 0
 174 328 222 317 279 302 c 0
 358 281 454 255 454 156 c 0
 454 56 373 -13 229 -13 c 0
 226.115028225 -13 223.246944411 -12.9750058194 220.396082143 -12.9247014282 c 2
 192 -47 l 1
 202.193359375 -44.9609375 211.166015625 -44 220 -44 c 0
 266.932617188 -44 299 -67.94921875 299 -103 c 0
EndSplineSet
Substitution2: "'locl' Localized Forms in Latin lookup 8 subtable" uni0219
Substitution2: "'aalt' Access All Alternates lookup 0 subtable" uni0219
EndChar

StartChar: uni0162
Encoding: 354 354 329
Width: 617
GlyphClass: 2
Flags: W
HStem: -195 54<125.358 242.314> 529 139<87 270 430 644>
VStem: 246 91<-135.643 -86.8579>
DStem2: 116.551 -195 277.551 -195 0.207912 0.978148<232.83 740.083>
AnchorPoint: "Anchor-1" 398 668 basechar 0
AnchorPoint: "Anchor-0" 200 -251 basechar 0
LayerCount: 2
Fore
SplineSet
337 -103 m 0
 337 -161.052642576 287.923928941 -195 204 -195 c 0
 169.264281038 -195 130.169213126 -188.076915057 108 -178 c 1
 134 -128 l 1
 152.357290753 -136.695558778 172.223942547 -141 194 -141 c 0
 225.439680265 -141 246 -128.347495548 246 -109 c 0
 246 -94.1279711765 230.200364965 -84 207 -84 c 0
 190 -84 195 -89 178 -89 c 0
 166.69269563 -89 159 -81.7121830873 159 -71 c 0
 159 -66.3266639979 160.686151383 -62.3923107717 165 -57 c 2
 212 0 l 1
 158 0 l 1
 270 529 l 1
 57 529 l 1
 87 668 l 1
 673 668 l 1
 644 529 l 1
 430 529 l 1
 319 0 l 1
 269 0 l 1
 230 -47 l 1
 240.193241247 -44.9613517506 249.165857586 -44 258 -44 c 0
 304.932224082 -44 337 -67.9493516353 337 -103 c 0
EndSplineSet
Substitution2: "'locl' Localized Forms in Latin lookup 8 subtable" uni021A
Substitution2: "'aalt' Access All Alternates lookup 0 subtable" uni021A
EndChar

StartChar: acutecomb.case
Encoding: 1114124 -1 332
Width: 0
GlyphClass: 4
Flags: W
HStem: 731 153
VStem: 123 234
AnchorPoint: "Anchor-4" 263 884 basemark 0
AnchorPoint: "Anchor-4" 196 668 mark 0
AnchorPoint: "Anchor-1" 196 668 mark 0
LayerCount: 2
Fore
SplineSet
301 884 m 0
 333 884 357 860 357 828 c 0
 357 796.362031999 343.992732794 784.53724363 258 738 c 1
 246 731 l 1
 123 731 l 1
 174 781 216 823 257 863 c 0
 272.26214213 878.26214213 284.284320524 884 301 884 c 0
EndSplineSet
EndChar

StartChar: caron.alt
Encoding: 1114126 -1 335
Width: 205
GlyphClass: 1
Flags: W
HStem: 496 192<136.799 158>
LayerCount: 2
Fore
SplineSet
182 688 m 0
 212 688 236 664 236 634 c 0
 236 617.596874809 232.716517993 608.622023991 221 593 c 1
 158 496 l 1
 75 496 l 1
 79 508 79 508 128 650 c 0
 135.831464514 673.494393541 156.444694745 688 182 688 c 0
EndSplineSet
EndChar

StartChar: uni2074
Encoding: 8308 8308 345
Width: 433
GlyphClass: 1
Flags: W
HStem: 477 86<206 266 388 426>
DStem2: 91 554 206 563 0.714902 0.699224<88.5068 225.693>
LayerCount: 2
Fore
SplineSet
206 563 m 1
 284 563 l 1
 304 659 l 1
 206 563 l 1
250 402 m 1
 266 477 l 1
 74 477 l 1
 91 554 l 1
 319 777 l 1
 433 777 l 1
 388 563 l 1
 445 563 l 1
 426 477 l 1
 369 477 l 1
 353 402 l 1
 250 402 l 1
EndSplineSet
EndChar

StartChar: gravecomb.case
Encoding: 1114131 -1 348
Width: 0
GlyphClass: 4
Flags: W
HStem: 731 153<141.562 187.908>
VStem: 88 187
AnchorPoint: "Anchor-4" 203 884 basemark 0
AnchorPoint: "Anchor-4" 198 668 mark 0
AnchorPoint: "Anchor-1" 198 668 mark 0
LayerCount: 2
Fore
SplineSet
88 830 m 0
 88 860.218487824 112.221910549 884 143 884 c 0
 174.465619472 884 182.806724125 875.746696448 238 790 c 0
 242 783 275 732 275 731 c 1
 167 731 l 1
 138.524341474 754.202388428 112.421131333 778.723585834 101 793 c 0
 92.1884294007 803.769697399 88 815.690611847 88 830 c 0
EndSplineSet
EndChar

StartChar: uni030B
Encoding: 779 779 349
Width: 0
GlyphClass: 4
Flags: W
HStem: 572 154
AnchorPoint: "Anchor-4" 313 726 basemark 0
AnchorPoint: "Anchor-4" 224 496 mark 0
AnchorPoint: "Anchor-1" 224 496 mark 0
LayerCount: 2
Fore
SplineSet
454 726 m 0
 484.948292366 726 510 700.053588522 510 668 c 0
 510 643.715044339 503.643392896 634.781434356 473 616 c 0
 413 580 413 581 412 580 c 2
 399 572 l 1
 277 572 l 1
 404 698 l 2
 414 708 418 713 419 713 c 0
 427.640171765 721.640171765 439.37817086 726 454 726 c 0
247 726 m 0
 277.948292366 726 303 700.053588522 303 668 c 0
 303 643.715044339 296.643392896 634.781434356 266 616 c 0
 206 580 206 581 205 580 c 2
 192 572 l 1
 69 572 l 1
 84 586 l 2
 94 595 105 607 119 621 c 2
 196 698 l 2
 208.679491924 710.679491924 211.154700538 713 212 713 c 0
 220.640171765 721.640171765 232.37817086 726 247 726 c 0
EndSplineSet
Substitution2: "'case' Case-Sensitive Forms lookup 15 subtable" uni030B.case
Substitution2: "Single Substitution lookup 7 subtable" uni030B.case
Substitution2: "Single Substitution lookup 6 subtable" uni030B.case
Substitution2: "Single Substitution lookup 4 subtable" uni030B.case
Substitution2: "Single Substitution lookup 3 subtable" uni030B.case
Substitution2: "'aalt' Access All Alternates lookup 0 subtable" uni030B.case
EndChar

StartChar: dotlessi
Encoding: 305 305 351
Width: 326
GlyphClass: 2
Flags: W
HStem: 0 21G<48 208.234> 380 116<51 129>
VStem: 48 156<0 156>
DStem2: 48 0 204 0 0.207912 0.978148<32.4342 388.537>
AnchorPoint: "Anchor-2" 211 0 basechar 0
AnchorPoint: "Anchor-1" 202 496 basechar 0
AnchorPoint: "Anchor-0" 110 0 basechar 0
LayerCount: 2
Fore
SplineSet
48 0 m 1
 129 380 l 1
 26 380 l 1
 51 496 l 1
 309 496 l 1
 204 0 l 1
 48 0 l 1
EndSplineSet
EndChar

StartChar: uni00B5
Encoding: 181 181 356
Width: 599
GlyphClass: 2
Flags: W
HStem: -161 21G<-53 107.242> -12 118<161.846 257.25> 0 124<423.431 529.102> 476 20G<81.7686 241 401.725 561>
VStem: 86 155<341 496> 406 155<341 496>
DStem2: -53 -161 103 -161 0.207912 0.978148<32.4342 187.381 364.764 671.543> 266.04 -161 421.132 -161 0.207912 0.978148<351.472 671.742>
AnchorPoint: "Anchor-2" 469 10 basechar 0
LayerCount: 2
Fore
SplineSet
466 0 m 0xbc
 380.861052823 0 335.98372019 23.0797710686 326 72 c 1
 310.843391913 52.1069518855 290.518391769 33.093242074 264 14 c 0
 239.750866289 -3.45937627228 209.201712185 -12 171 -12 c 0
 152.691642879 -12 137.096489036 -9.67731751269 124 -5 c 1
 124 -49.1660839931 122.222341013 -72.0216995441 117 -95 c 2
 103 -161 l 1
 -53 -161 l 1
 86 496 l 1
 241 496 l 1
 186 235 l 2
 179.953757053 207.79190674 177 183.833655085 177 162 c 0
 177 127.888809637 198.107066436 106 231 106 c 0xdc
 290.117242078 106 333.033616623 152.162150771 350 234 c 2
 406 496 l 1
 561 496 l 1
 490 163 l 2
 488.449489743 156.797958971 488 154.101020514 488 151 c 0
 488 133.118226919 500.833060109 124 526 124 c 0
 536.870833812 124 543.878878865 125.50172394 554 130 c 1
 528 6 l 1
 504.516753036 1.52700057825 488.737747061 0 466 0 c 0xbc
EndSplineSet
EndChar

StartChar: uni0328.case
Encoding: 1114134 -1 358
Width: 0
GlyphClass: 4
Flags: W
HStem: -174 76<33.0733 153.676> -20 20G<17.5 188>
VStem: -52 130<-122.544 -45.627>
AnchorPoint: "Anchor-2" 188 0 mark 0
LayerCount: 2
Fore
SplineSet
188 0 m 1
 136.387612548 -4.96272956267 78 -44.772465391 78 -75 c 0
 78 -89.9750100725 91.9565042217 -98 118 -98 c 0
 141 -98 154 -92 169 -89 c 1
 153 -164 l 1
 136.176611293 -169.257308971 97.7608139581 -174 72 -174 c 0
 -5.85339654678 -174 -52 -146.088747911 -52 -99 c 0
 -52 -56 -12 -16 47 0 c 1
 188 0 l 1
EndSplineSet
EndChar

StartChar: uni0163
Encoding: 355 355 363
Width: 391
GlyphClass: 2
Flags: W
HStem: -195 54<15.3577 132.314> 0 124<219.415 289> 380 116<53 106 286 370>
VStem: 50 167<75.165 218.477> 136 91<-135.643 -86.8579>
DStem2: -16.332 -195 138.977 -195 0.207912 0.978148<396.243 587.869 738.758 833.228>
AnchorPoint: "Anchor-1" 249 496 basechar 0
AnchorPoint: "Anchor-0" 90 -251 basechar 0
LayerCount: 2
Fore
SplineSet
227 -103 m 0xe8
 227 -161.052642576 177.923928941 -195 94 -195 c 0
 59.2642810377 -195 20.1692131261 -188.076915057 -2 -178 c 1
 24 -128 l 1
 42.3572907535 -136.695558778 62.2239425475 -141 84 -141 c 0
 115.439680265 -141 136 -128.347495548 136 -109 c 0xe8
 136 -94.1279711765 120.200364965 -84 97 -84 c 0
 80 -84 85 -89 68 -89 c 0
 56.6926956301 -89 49 -81.7121830873 49 -71 c 0
 49 -66.3266639979 50.6861513826 -62.3923107717 55 -57 c 2
 112 11 l 1
 68.6858011416 26.1096042529 50 52.3300026291 50 98 c 0
 50 111.093073681 52.3711355672 128.707223609 57 150 c 2
 106 380 l 1
 28 380 l 1
 53 496 l 1
 131 496 l 1
 157 620 l 1
 312 620 l 1
 286 496 l 1
 394 496 l 1
 370 380 l 1
 261 380 l 1
 224 205 l 2
 219.252858186 185.062004382 217 170.579344613 217 160 c 0xf0
 217 134.735620054 233.401641749 124 272 124 c 2
 315 124 l 1
 289 0 l 1
 193 0 l 2
 183.696938457 0 176.055612829 0.449489742783 159 2 c 1
 160 1 l 1
 120 -47 l 1
 130.193241247 -44.9613517506 139.165857586 -44 148 -44 c 0
 194.932224082 -44 227 -67.9493516353 227 -103 c 0xe8
EndSplineSet
Substitution2: "'locl' Localized Forms in Latin lookup 8 subtable" uni021B
Substitution2: "'aalt' Access All Alternates lookup 0 subtable" uni021B
EndChar

StartChar: tildecomb
Encoding: 771 771 365
Width: 0
GlyphClass: 4
Flags: W
HStem: 568 80<296.096 408.241> 607 82<186.345 296.096>
AnchorPoint: "Anchor-4" 307 690 basemark 0
AnchorPoint: "Anchor-4" 266 496 mark 0
AnchorPoint: "Anchor-1" 266 496 mark 0
LayerCount: 2
Fore
SplineSet
453 690 m 0x80
 475 690 492 673 492 651 c 0
 492 608.909803261 431.867518098 568 370 568 c 0x80
 303 568 296 607 229 607 c 0
 208 607 191 596 178 574 c 1
 89 574 l 1
 109.926294597 641.761334887 165.791150731 689 225 689 c 0x40
 293 689 296 648 364 648 c 0
 411 648 406 690 453 690 c 0x80
EndSplineSet
Substitution2: "'case' Case-Sensitive Forms lookup 15 subtable" tildecomb.case
Substitution2: "Single Substitution lookup 7 subtable" tildecomb.case
Substitution2: "Single Substitution lookup 6 subtable" tildecomb.case
Substitution2: "Single Substitution lookup 4 subtable" tildecomb.case
Substitution2: "Single Substitution lookup 3 subtable" tildecomb.case
Substitution2: "'aalt' Access All Alternates lookup 0 subtable" tildecomb.case
EndChar

StartChar: copyleft
Encoding: 127279 127279 367
Width: 814
Flags: W
HStem: -12 69<303.468 513.774> 145 85<343.013 451.338> 437 85<348.436 450.512> 610 69<303.451 513.58>
VStem: 62 70<228.616 439.057> 477 112<257.572 410.899> 684 70<228.688 438.774>
LayerCount: 2
Fore
SplineSet
589 334 m 0
 589 216.131114481 520.127016137 145 406 145 c 0
 334.197545987 145 276.088397766 175.84806634 244 231 c 1
 334 264 l 1
 346.867445777 241.23451901 368.675629737 230 400 230 c 0
 448.062518437 230 477 269.084390683 477 334 c 0
 477 398.10393414 447.922358532 437 400 437 c 0
 368.336328526 437 346.11872057 422.302197814 335 394 c 1
 243 428 l 1
 272.042206799 489.088779819 329.111663071 522 406 522 c 0
 515.010638518 522 589 445.989071264 589 334 c 0
132 334 m 0
 132 181 256 57 409 57 c 0
 560.947656872 57 684 180.94726926 684 334 c 0
 684 485.774608956 560.224700952 610 409 610 c 0
 255.722730228 610 132 486.723922227 132 334 c 0
754 334 m 0
 754 143.224587342 599.224038633 -12 409 -12 c 0
 217.223938491 -12 62 142.776607256 62 334 c 0
 62 524.446885586 217.449074498 679 409 679 c 0
 599 679 754 524 754 334 c 0
EndSplineSet
EndChar

StartChar: zero.alt1
Encoding: 1114137 -1 368
Width: 659
Flags: W
HStem: -12 113<251.96 372.095> 567 113<298.555 423.253>
VStem: 45 157<227.302 430.453> 469 157<242.642 446.48>
DStem2: 205 227 243 128 0.569343 0.8221<0 331.927>
LayerCount: 2
Fore
SplineSet
310 101 m 0
 405.200089767 101 469 219.370902634 469 396 c 0
 469 416 468 434 466 450 c 1
 243 128 l 1
 261.112676333 109.887323667 283.166405433 101 310 101 c 0
361 567 m 0
 264.974401254 567 202 450.952832908 202 274 c 0
 202 255.32768321 203.068381022 238.58971387 205 227 c 1
 425 544 l 1
 406.518866606 559.400944495 385.373668679 567 361 567 c 0
45 267 m 0
 45 518.914640493 172.932198349 680 373 680 c 0
 533.708456518 680 626 579.318316202 626 404 c 0
 626 151.804845217 496.846179733 -12 298 -12 c 0
 138.200658661 -12 45 90.7785919622 45 267 c 0
EndSplineSet
Substitution2: "'zero' Slashed Zero lookup 0-1" zero
Substitution2: "'aalt' Access All Alternates lookup 0 subtable" zero
Substitution2: "'tnum' Tabular Numbers lookup 14 subtable" zero
EndChar

StartChar: f_i
Encoding: 64257 64257 369
Width: 643
Flags: W
HStem: 0 21G<18 177.211 353 513.234> 380 116<43 99 278 434> 578 179<512.525 628.695> 608 119<305.643 409>
VStem: 18 155<0 155> 353 156<0 156> 482 179<608.982 726.588>
DStem2: 18 0 173 0 0.207912 0.978148<32.2263 388.537 539.218 649.556> 353 0 509 0 0.207912 0.978148<32.4342 388.537>
LayerCount: 2
Fore
SplineSet
661 668 m 0xea
 661 618 621 578 571 578 c 0
 521.277477022 578 482 617.718796988 482 668 c 0
 482 718 521 757 571 757 c 0
 621.781084628 757 661 718.216850354 661 668 c 0xea
353 0 m 1xdc
 434 380 l 1
 253 380 l 1
 173 0 l 1
 18 0 l 1
 99 380 l 1
 19 380 l 1
 43 496 l 1
 124 496 l 1
 135 547 l 2
 167.948304784 696.765021746 206.74986021 727 366 727 c 2
 434 727 l 1
 409 608 l 1
 368 608 l 2
 308.074034516 608 302.02105084 602.092871352 285 527 c 2
 278 496 l 1
 614 496 l 1
 509 0 l 1
 353 0 l 1xdc
EndSplineSet
LCarets2: 1 354
Ligature2: "'liga' Standard Ligatures lookup 0-1" f i
EndChar

StartChar: f_f
Encoding: 64256 64256 370
Width: 714
Flags: W
HStem: 0 21G<18 177.211 353 512.211> 380 116<43 99 278 434 613 695> 608 119<305.633 409 640.633 744>
VStem: 18 155<0 155> 353 155<0 155>
DStem2: 18 0 173 0 0.207912 0.978148<32.2263 388.537 539.218 653.495> 353 0 508 0 0.207912 0.978148<32.2263 388.537 539.218 653.495>
LayerCount: 2
Fore
SplineSet
353 0 m 1
 434 380 l 1
 253 380 l 1
 173 0 l 1
 18 0 l 1
 99 380 l 1
 19 380 l 1
 43 496 l 1
 124 496 l 1
 135 547 l 2
 166.006502154 695.031042541 207.033330893 727 366 727 c 2
 434 727 l 1
 409 608 l 1
 368 608 l 2
 308.074034516 608 302.02105084 602.092871352 285 527 c 2
 278 496 l 1
 459 496 l 1
 470 547 l 2
 501.006502154 695.031042541 542.033330893 727 701 727 c 2
 769 727 l 1
 744 608 l 1
 703 608 l 2
 643.074034516 608 637.02105084 602.092871352 620 527 c 2
 613 496 l 1
 720 496 l 1
 695 380 l 1
 588 380 l 1
 508 0 l 1
 353 0 l 1
EndSplineSet
LCarets2: 1 352
Ligature2: "'liga' Standard Ligatures lookup 0-1" f f
EndChar

StartChar: f_f_i
Encoding: 64259 64259 371
Width: 978
Flags: W
HStem: 0 21G<18 177.211 353 512.211 688 848.234> 380 116<43 99 278 434 613 769> 578 179<847.525 963.695> 608 119<305.633 409 640.85 744>
VStem: 18 155<0 155> 353 155<0 155> 688 156<0 156> 817 179<608.982 726.588>
DStem2: 18 0 173 0 0.207912 0.978148<32.2263 388.537 539.218 653.495> 353 0 508 0 0.207912 0.978148<32.2263 388.537 539.218 649.424> 688 0 844 0 0.207912 0.978148<32.4342 388.537>
LayerCount: 2
Fore
SplineSet
996 668 m 0xed
 996 618 956 578 906 578 c 0
 856.277477022 578 817 617.718796988 817 668 c 0
 817 718 856 757 906 757 c 0
 956.781084628 757 996 718.216850354 996 668 c 0xed
688 0 m 1xde
 769 380 l 1
 588 380 l 1
 508 0 l 1
 353 0 l 1
 434 380 l 1
 253 380 l 1
 173 0 l 1
 18 0 l 1
 99 380 l 1
 19 380 l 1
 43 496 l 1
 124 496 l 1
 135 547 l 2
 166.006502154 695.031042541 207.033330893 727 366 727 c 2
 434 727 l 1
 409 608 l 1
 368 608 l 2
 308.074034516 608 302.02105084 602.092871352 285 527 c 2
 278 496 l 1
 459 496 l 1
 470 547 l 2
 503.081763301 696.369173692 542.391323729 727 701 727 c 2
 769 727 l 1
 744 608 l 1
 703 608 l 2
 643.074034516 608 637.02105084 602.092871352 620 527 c 2
 613 496 l 1
 949 496 l 1
 844 0 l 1
 688 0 l 1xde
EndSplineSet
LCarets2: 2 352 690
Ligature2: "'liga' Standard Ligatures lookup 0-1" f f i
EndChar

StartChar: f_f_l
Encoding: 64260 64260 373
Width: 1031
Flags: W
HStem: 0 124<888.025 958> 380 116<43 99 278 434 613 695> 608 119<305.633 409 640.633 744> 648 20G<830.758 991>
VStem: 18 155<0 155> 353 155<0 155> 835 156<512 668>
DStem2: 18 0 173 0 0.207912 0.978148<32.2263 388.537 539.218 653.495> 353 0 508 0 0.207912 0.978148<32.2263 388.537 539.218 653.495> 693.242 0 849.638 0 0.207912 0.978148<196.054 682.876>
LayerCount: 2
Fore
SplineSet
886 159 m 0xde
 886 134.090817449 901.856998848 124 941 124 c 2
 984 124 l 1
 958 0 l 1
 861 0 l 2
 816.200988137 0 781.548389617 7.26054445179 756 22 c 0
 730.235479016 36.8641467216 718 61.6570910433 718 99 c 0
 718 110 723 129 723 140 c 1
 835 668 l 1
 991 668 l 1
 893 204 l 2
 886 169 886 169 886 159 c 0xde
353 0 m 1
 434 380 l 1
 253 380 l 1
 173 0 l 1
 18 0 l 1
 99 380 l 1
 19 380 l 1
 43 496 l 1
 124 496 l 1
 135 547 l 2
 166.006502154 695.031042541 207.033330893 727 366 727 c 2
 434 727 l 1
 409 608 l 1
 368 608 l 2
 308.074034516 608 302.02105084 602.092871352 285 527 c 2
 278 496 l 1
 459 496 l 1
 470 547 l 2
 501.006502154 695.031042541 542.033330893 727 701 727 c 2
 769 727 l 1
 744 608 l 1
 703 608 l 2xee
 643.074034516 608 637.02105084 602.092871352 620 527 c 2
 613 496 l 1
 720 496 l 1
 695 380 l 1
 588 380 l 1
 508 0 l 1
 353 0 l 1
EndSplineSet
LCarets2: 2 353 692
Ligature2: "'liga' Standard Ligatures lookup 0-1" f f l
EndChar

StartChar: dong
Encoding: 8363 8363 374
Width: 638
Flags: W
HStem: -121 78<-9 505> -13 118<131.039 272.159> -1 21G<338.438 490.003> 392 118<223.592 348.299> 555 78<304 435 606 656>
VStem: 3 155<139.613 317.918> 379 110<-1 289>
LayerCount: 2
Fore
SplineSet
-25 -121 m 1x9e
 -9 -43 l 1
 521 -43 l 1
 505 -121 l 1
 -25 -121 l 1x9e
EndSplineSet
Refer: 318 273 N 1 0 0 1 0 0 2
EndChar

StartChar: uni0237
Encoding: 567 567 410
Width: 263
HStem: -162 120<-148 -28.4207> 476 20G<88.7549 249>
VStem: 93 156<340 496>
DStem2: -46.7239 -162 108.677 -162 0.207912 0.978148<124.851 672.671>
AnchorPoint: "Anchor-1" 168 496 basechar 0
LayerCount: 2
Fore
SplineSet
-74 -162 m 0
 -103.542230954 -162 -116.653316384 -161.737778291 -174 -160 c 1
 -148 -42 l 1
 -87 -42 l 2
 -30.1356785646 -42 -19.0359413589 -31.1677263414 -4 39 c 2
 93 496 l 1
 249 496 l 1
 148 23 l 2
 114.956154762 -130.203282467 76.8000937225 -162 -74 -162 c 0
EndSplineSet
EndChar

StartChar: uni2010
Encoding: 8208 8208 425
Width: 336
Flags: W
HStem: 184 129<38 296>
VStem: 10 314
LayerCount: 2
Fore
SplineSet
10 184 m 1
 38 313 l 1
 324 313 l 1
 296 184 l 1
 10 184 l 1
EndSplineSet
EndChar

StartChar: Ldot
Encoding: 319 319 432
Width: 543
HStem: 0 139<168 458> 250 194<328.221 449.491> 648 20G<114.749 279>
VStem: 119 160<508 668> 291 195<287.57 407.161>
DStem2: -23 0 138.455 0 0.207912 0.978148<175.674 682.926>
LayerCount: 2
Fore
SplineSet
486 347 m 0
 486 293 444 251 389 250 c 0
 334.225616705 250.995897878 291 293.780436862 291 347 c 0
 291 401.219559921 334.221475543 444 389 444 c 0
 444 444 486 402 486 347 c 0
EndSplineSet
Refer: 26 76 N 1 0 0 1 0 0 3
EndChar

StartChar: ldot
Encoding: 320 320 433
Width: 485
Flags: W
HStem: 0 124<174.025 244> 250 194<307.431 428.068> 648 20G<116.758 277>
VStem: 4 168<65.4615 216.375> 121 156<512 668> 270 195<287.049 407.161>
DStem2: -20.7579 0 135.638 0 0.207912 0.978148<196.09 682.876>
LayerCount: 2
Fore
SplineSet
465 347 m 0xe4
 465 293 422 250 368 250 c 0
 313.721376135 250 270 293.275239644 270 347 c 0
 270 401.219559921 313.221475543 444 368 444 c 0
 423 444 465 402 465 347 c 0xe4
EndSplineSet
Refer: 52 108 N 1 0 0 1 0 0 2
EndChar

StartChar: uni030C.alt
Encoding: 1114138 -1 455
Width: 0
GlyphClass: 1
Flags: W
HStem: 495 183<48.6391 69>
VStem: 46 74<575.156 674.688>
LayerCount: 2
Fore
SplineSet
82 678 m 0
 104 678 120 662 120 640 c 0
 120 631 115 623 111 609 c 1
 69 495 l 1
 20 495 l 1
 22 506 38 626 46 649 c 0
 49.9879108006 665.948620903 64.9482434733 678 82 678 c 0
EndSplineSet
EndChar

StartChar: uni031B
Encoding: 795 795 456
Width: 324
Flags: W
HStem: 427 104<0 196.172>
LayerCount: 2
Fore
SplineSet
114 531 m 2
 184.061050019 531 216.023232188 552.213837723 227 606 c 2
 235 646 l 1
 346 646 l 1
 336 592 l 2
 315.791121288 480.851167082 253.127945046 427 144 427 c 2
 0 427 l 1
 0 531 l 1
 114 531 l 2
EndSplineSet
EndChar

StartChar: Ohorn
Encoding: 416 416 457
Width: 764
Flags: W
HStem: -12 130<268.629 435.598> 540 130<334.692 492.147>
VStem: 32 169<189.284 395.635> 564 168<263.555 466.454>
AnchorPoint: "Anchor-0" 329 0 basechar 0
AnchorPoint: "Anchor-1" 456 668 basechar 0
AnchorPoint: "Anchor-2" 636 10 basechar 0
LayerCount: 2
Fore
SplineSet
732 388 m 0
 732 158.138522211 563.137516706 -12 335 -12 c 0
 149.233630672 -12 32 94.7870695231 32 264 c 0
 32 495.926400609 200.928566897 670 426 670 c 2
 605 670 l 2
 675.53527482 670 708.207463903 691.68508125 718 745 c 1
 721 765 l 1
 852 765 l 1
 847 731 l 1
 831.386130041 631.806002613 776.599966038 574.330947125 684 560 c 1
 715.687749427 514.001654058 732 455.549422838 732 388 c 0
201 281 m 0
 201 181.939181042 259.055207326 118 349 118 c 0
 470.888691988 118 564 228.867417912 564 374 c 0
 564 474.353602805 504.68096639 540 414 540 c 0
 294.876423005 540 201 425.849795501 201 281 c 0
EndSplineSet
EndChar

StartChar: ohorn
Encoding: 417 417 458
Width: 593
Flags: W
HStem: -13 118<185.845 311.392> 382 118<225.845 356.138>
VStem: 5 154<130.448 306.399> 381 155<180.993 357.641>
AnchorPoint: "Anchor-0" 235 0 basechar 0
AnchorPoint: "Anchor-1" 307 496 basechar 0
AnchorPoint: "Anchor-2" 467 10 basechar 0
LayerCount: 2
Fore
SplineSet
536 290 m 0
 536 109.712023876 415.717917191 -13 239 -13 c 0
 96.3064592854 -13 5 69.7220913184 5 199 c 0
 5 376.178488659 127.176042752 500 302 500 c 2
 406 500 l 2
 484.570574846 500 520.5058838 521.911773753 529 575 c 2
 532 595 l 1
 653 595 l 1
 648 561 l 1
 636.018150423 471.596968544 590.009994239 415.849859591 511 395 c 1
 527.607579252 363.860788903 536 328.61262176 536 290 c 0
159 201 m 0
 159 138.243955371 188.781043353 105 245 105 c 0
 326.725473054 105 381 177.63208753 381 287 c 0
 381 351.022473914 351.978949246 382 292 382 c 0
 212.320166434 382 159 309.436465229 159 201 c 0
EndSplineSet
EndChar

StartChar: Uhorn
Encoding: 431 431 459
Width: 690
Flags: W
HStem: -12 129<215.041 379.281> 648 20G<115.691 281>
VStem: 26 162<144.08 333.414> 120 161<507 668>
DStem2: -25.6172 -12 136.146 -12 0.207912 0.978148<256.722 695.416> 395.146 -12 556.383 -12 0.207912 0.978148<178.293 623.479>
AnchorPoint: "Anchor-0" 287 0 basechar 0
AnchorPoint: "Anchor-1" 414 668 basechar 0
AnchorPoint: "Anchor-2" 376 0 basechar 0
LayerCount: 2
Fore
SplineSet
188 204 m 0xe0
 188 144.042444929 220.948266235 117 294 117 c 0
 387.362360072 117 431.827404414 161.19225266 457 279 c 2
 540 668 l 1
 605 668 l 2
 676.502447726 668 709.442489256 690.445869007 718 745 c 2
 721 765 l 1
 852 765 l 1
 847 731 l 1
 833.389988199 628.471244434 775.603904372 569.325488047 677 557 c 1
 621 292 l 2
 571.934663962 62.6946540269 484.708998898 -12 266 -12 c 0
 106.401757848 -12 26 54.6664575491 26 187 c 0xe0
 26 217.347181131 30.1012025255 250.472278453 39 292 c 2
 120 668 l 1
 281 668 l 1xd0
 198 279 l 2
 190.359397921 244.192812753 188 226.497328342 188 204 c 0xe0
EndSplineSet
EndChar

StartChar: uhorn
Encoding: 432 432 460
Width: 590
Flags: W
HStem: -12 118<111.914 255.133> 0 21G<319.438 460.256> 476 20G<81.7246 241>
VStem: 17 162<115.713 275.922> 86 155<341 496>
DStem2: -22.3131 -12 133.499 -12 0.207912 0.978148<225.593 519.419> 297.711 -12 453.552 -12 0.207912 0.978148<152.208 454.293>
AnchorPoint: "Anchor-0" 236 0 basechar 0
AnchorPoint: "Anchor-1" 312 496 basechar 0
AnchorPoint: "Anchor-2" 456 0 basechar 0
LayerCount: 2
Fore
SplineSet
316 64 m 1x70
 286.257188456 15.4200744774 229.613087232 -12 159 -12 c 0
 64.8286898939 -12 17 37.1759769332 17 134 c 0xb0
 17 162.047594808 19.9440013061 187.366006041 27 220 c 2
 86 496 l 1
 241 496 l 1xa8
 186 235 l 2
 181.242933419 212.16608041 179 192.940936821 179 175 c 0
 179 129.441249534 196.665869214 106 231 106 c 0xb0
 290.117242078 106 333.033616623 152.162150771 350 234 c 2
 406 496 l 1
 437 496 l 2
 512.248975556 496 547.440361312 519.362348527 556 575 c 2
 559 595 l 1
 684 595 l 1
 679 561 l 1
 666.953101964 467.404869102 619.639837019 409.615095491 539 390 c 1
 456 0 l 1
 321 0 l 1
 316 64 l 1x70
EndSplineSet
EndChar

StartChar: dotbelowcomb
Encoding: 803 803 545
Width: 205
Flags: W
HStem: -247 179<-8.47528 107.695>
VStem: -39 179<-216.018 -98.4119>
AnchorPoint: "Anchor-3" 50 -247 basemark 0
AnchorPoint: "Anchor-3" 90 0 mark 0
AnchorPoint: "Anchor-0" 90 0 mark 0
LayerCount: 2
Fore
SplineSet
140 -157 m 0
 140 -207 100 -247 50 -247 c 0
 0.277477021927 -247 -39 -207.281203012 -39 -157 c 0
 -39 -107 0 -68 50 -68 c 0
 100.781084628 -68 140 -106.783149646 140 -157 c 0
EndSplineSet
EndChar

StartChar: hookabovecomb
Encoding: 777 777 546
Width: 157
Flags: W
HStem: 668 76<46.5315 164.328>
VStem: 125 119<611.774 691.114>
AnchorPoint: "Anchor-4" 156 744 basemark 0
AnchorPoint: "Anchor-4" 67 496 mark 0
AnchorPoint: "Anchor-1" 67 496 mark 0
LayerCount: 2
Fore
SplineSet
47 735 m 1
 67.1319010602 739.793309776 104.992113074 744 128 744 c 0
 200.656215815 744 244 715.228694981 244 667 c 0
 244 631.211514291 217.687428565 596.128085711 172 571 c 1
 68 571 l 1
 114.532857 611.463353913 125 625.235910492 125 646 c 0
 125 660.918718559 111.159313548 668 82 668 c 0
 69 668 52 665 31 659 c 1
 47 735 l 1
EndSplineSet
EndChar

StartChar: longs
Encoding: 383 383 547
Width: 379
Flags: W
HStem: 0 21G<18 177.25> 380 116<43 99> 608 119<305.643 409>
VStem: 18 155<0 155>
DStem2: 18 0 173 0 0.207912 0.978148<32.2263 388.537 507.2 649.556>
AnchorPoint: "Anchor-1" 152 668 basechar 0
LayerCount: 2
Fore
SplineSet
18 0 m 1
 99 380 l 1
 19 380 l 1
 43 496 l 1
 124 496 l 1
 135 547 l 2
 167.948304784 696.765021746 206.74986021 727 366 727 c 2
 434 727 l 1
 409 608 l 1
 368 608 l 2
 308.074034516 608 302.02105084 602.092871352 285 527 c 1
 173 0 l 1
 18 0 l 1
EndSplineSet
EndChar

StartChar: uniFFFD
Encoding: 65533 65533 548
Width: 676
Flags: W
HStem: 0 21<158 528> 680 20<157 528>
VStem: 129 21<49 650> 536 20<47 652>
DStem2: 157 680 150 650 0.513698 -0.857971<22.1432 360.147 396.696 737.787> 150 49 158 21 0.513896 0.857853<0 339.381 374.897 715.649>
LayerCount: 2
Fore
SplineSet
158 21 m 1
 528 21 l 1
 343 329 l 1
 158 21 l 1
150 49 m 1
 330 350 l 1
 150 650 l 1
 150 49 l 1
536 47 m 1
 536 652 l 1
 355 350 l 1
 536 47 l 1
342 371 m 1
 528 680 l 1
 157 680 l 1
 342 371 l 1
129 0 m 1
 129 700 l 1
 556 700 l 1
 556 0 l 1
 129 0 l 1
EndSplineSet
EndChar

StartChar: uni0256
Encoding: 598 598 577
Width: 592
Flags: W
HStem: -161 124<488.025 558> -12 117<130.901 271.881> 392 118<224.748 347.647> 648 20G<453.709 613>
VStem: 3 159<139.832 318.189> 317 169<-101.611 30.2656> 458 155<513 668>
DStem2: 281.292 -161 436.791 -161 0.207912 0.978148<595.002 847.624>
AnchorPoint: "Anchor-1" 266 496 basechar 0
AnchorPoint: "Anchor-0" 188 0 basechar 0
LayerCount: 2
Fore
SplineSet
613 668 m 9xfa
 493 43 l 2
 486.668115805 11.3405790254 486 7.0455488499 486 -2 c 0
 486 -26.9091825514 501.856998848 -37 541 -37 c 2
 584 -37 l 1
 558 -161 l 1
 461 -161 l 2
 367.363296198 -161 317 -130.222430101 317 -73 c 0xfc
 317 -69 318 -66 318 -62 c 2
 334 63 l 1
 296.013093323 14.0168834958 245.020001671 -12 187 -12 c 0
 74.8028797737 -12 3 67.2173075764 3 191 c 0
 3 374.076051983 115.062690685 510 266 510 c 0
 330.450131929 510 384.145204886 475.619701488 405 421 c 1
 458 668 l 1
 613 668 l 9xfa
162 216 m 0
 162 146.578069904 195.337371365 105 251 105 c 0
 324.165833623 105 382 186.232722239 382 289 c 0
 382 350.66891993 346.286736639 392 293 392 c 0
 214.051129221 392 162 322.068711886 162 216 c 0
EndSplineSet
EndChar

StartChar: Eng
Encoding: 330 330 579
Width: 715
Flags: W
HStem: -161 124<326 433.048> 0 21G<-23 137.247> 648 20G<114.749 324.598 577.711 737>
VStem: -23 156<0 156> 582 155<513 668>
DStem2: -57.2216 -161 98.7784 -161 0.207912 0.978148<197.031 692.848> 318 668 236 485 0.313289 -0.949658<148.098 510.71> 404.778 -161 560.416 -161 0.207912 0.978148<128.352 164.597 351.706 847.731>
AnchorPoint: "Anchor-1" 456 668 basechar 0
AnchorPoint: "Anchor-0" 285 0 basechar 0
LayerCount: 2
Fore
SplineSet
737 668 m 9
 688 438 628 160 594 -3 c 0
 568.933558699 -122.316260591 521.68063651 -161 401 -161 c 2
 300 -161 l 1
 326 -37 l 1
 361 -37 l 2
 424.793449818 -37 431.862849459 -33.6465668371 439 0 c 9
 396 0 l 1
 236 485 l 1
 133 0 l 1
 -23 0 l 1
 119 668 l 1
 318 668 l 1
 478 183 l 1
 582 668 l 1
 737 668 l 9
EndSplineSet
EndChar

StartChar: eng
Encoding: 331 331 580
Width: 579
Flags: W
HStem: -161 124<186 292.54> 0 21G<-20 140.252> 392 118<294.864 440.521> 476 20G<80.7661 222.562>
VStem: -20 156<0 156> 368 161<230.934 383.271>
DStem2: -54.2216 -161 101.778 -161 0.207912 0.978148<197.031 564.631>
AnchorPoint: "Anchor-1" 344 496 basechar 0
AnchorPoint: "Anchor-0" 218 0 basechar 0
LayerCount: 2
Fore
SplineSet
529 366 m 0xec
 529 321.936588637 526.532364384 309.795821407 454 -3 c 0
 425.950656558 -123.211471896 379.791251975 -161 261 -161 c 2
 160 -161 l 1
 186 -37 l 1
 229 -37 l 2
 281.1429832 -37 298.024568466 -24.8798875017 307 19 c 2
 359 263 l 2
 364.942445713 288.75059809 368 310.832934607 368 328 c 0
 368 371.714769977 350.25042373 392 312 392 c 0xec
 249.833222074 392 208.949231774 345.754174907 190 254 c 2
 136 0 l 1
 -20 0 l 1
 85 496 l 1
 221 496 l 1xdc
 226 432 l 1
 262.094101901 482.130697084 323.192189062 510 397 510 c 0
 484.041671572 510 529 460.954550806 529 366 c 0xec
EndSplineSet
EndChar

StartChar: uni019D
Encoding: 413 413 581
Width: 715
Flags: W
HStem: -161 124<-140 -35.0355> 0 21G<389.402 599.251> 648 20G<114.747 324.598 577.711 737>
VStem: 582 155<513 668>
DStem2: -57.2602 -161 97.4161 -161 0.207912 0.978148<132.6 692.856> 318 668 236 485 0.313289 -0.949658<148.098 510.71> 404.881 -161 560.778 -161 0.207912 0.978148<351.685 847.71>
AnchorPoint: "Anchor-1" 456 668 basechar 0
AnchorPoint: "Anchor-0" 285 0 basechar 0
LayerCount: 2
Fore
SplineSet
236 485 m 9
 131 -3 l 2
 105.933558699 -122.316260591 58.6806365095 -161 -62 -161 c 2
 -166 -161 l 1
 -140 -37 l 1
 -97 -37 l 2
 -44.8570167999 -37 -27.9754315344 -24.8798875017 -19 19 c 2
 119 668 l 1
 318 668 l 1
 478 183 l 1
 582 668 l 1
 737 668 l 1
 595 0 l 1
 396 0 l 1
 236 485 l 9
EndSplineSet
EndChar

StartChar: uni019E
Encoding: 414 414 582
Width: 579
Flags: W
HStem: -161 21G<267 427.344> 0 21G<-20 140.252> 392 118<294.864 440.521> 476 20G<80.7661 222.562>
VStem: -20 156<0 156> 267 156<-161 -5> 368 161<231.266 383.271>
DStem2: -54.2216 -161 101.778 -161 0.207912 0.978148<197.031 564.631> 267 -161 423 -161 0.207912 0.978148<32.4342 498.522>
AnchorPoint: "Anchor-1" 344 496 basechar 0
AnchorPoint: "Anchor-0" 218 0 basechar 0
LayerCount: 2
Fore
SplineSet
368 328 m 0xea
 368 371.714769977 350.25042373 392 312 392 c 0xea
 249.833222074 392 208.949231774 345.754174907 190 254 c 2
 136 0 l 1
 -20 0 l 1
 85 496 l 1
 221 496 l 1xda
 226 432 l 1
 262.094101901 482.130697084 323.192189062 510 397 510 c 0
 484.041671572 510 529 460.954550806 529 366 c 0xea
 529 339.735066128 525.685619531 311.562832142 519 281 c 2
 423 -161 l 1
 267 -161 l 1xec
 359 263 l 2
 364.942445713 288.75059809 368 310.832934607 368 328 c 0xea
EndSplineSet
EndChar

StartChar: uni0272
Encoding: 626 626 583
Width: 579
Flags: W
HStem: -161 124<-137 -30.4601> 0 21G<303 463.27> 392 118<294.864 440.521> 476 20G<80.7652 222.562>
VStem: 303 156<0 156> 368 161<227.164 383.271>
DStem2: -54.2602 -161 97.4161 -161 0.207912 0.978148<131.387 556.669> 268.778 -161 424.778 -161 0.207912 0.978148<197.031 498.152>
AnchorPoint: "Anchor-1" 344 496 basechar 0
AnchorPoint: "Anchor-0" 218 0 basechar 0
LayerCount: 2
Fore
SplineSet
190 254 m 9xe4
 131 -3 l 2
 102.950656558 -123.211471896 56.7912519753 -161 -62 -161 c 2
 -163 -161 l 1
 -137 -37 l 1
 -94 -37 l 2
 -41.8570167999 -37 -24.9754315344 -24.8798875017 -16 19 c 2
 85 496 l 1
 221 496 l 1xd4
 226 432 l 1
 262.094101901 482.130697084 323.192189062 510 397 510 c 0
 484.041671572 510 529 460.954550806 529 366 c 0xe4
 529 339.735066128 525.685619531 311.562832142 519 281 c 2
 459 0 l 1
 303 0 l 1xe8
 359 263 l 2
 364.942445713 288.75059809 368 310.832934607 368 328 c 0
 368 371.714769977 350.25042373 392 312 392 c 0
 249.833222074 392 208.949231774 345.754174907 190 254 c 9xe4
EndSplineSet
EndChar

StartChar: uni01EA
Encoding: 490 490 584
Width: 763
HStem: -173 76<286.769 407.469> 550 130<332.55 492.906>
VStem: 32 169<193.642 402.583> 201 128<-120.166 -44.3503> 564 168<263.998 473.192>
LayerCount: 2
Fore
SplineSet
329 -75 m 0xd8
 329 -89.9187185593 342.840686452 -97 372 -97 c 0
 385 -97 402 -94 423 -88 c 1
 407 -164 l 1
 386.86809894 -168.793309776 349.007886926 -173 326 -173 c 0
 247.538114352 -173 201 -144.332521559 201 -96 c 0xd8
 201 -61.9356892309 230.077198867 -24.9661078146 271 -7 c 1
 121.110696303 15.9830265669 32 118.889102632 32 269 c 0xe8
 32 503.854079051 200.860079937 680 426 680 c 0
 615.891999883 680 732 571.101320151 732 393 c 0
 732 199.070701508 614.065292756 43.015684852 435 -0 c 1
 348.688302245 -40.1449756999 329 -54.0753782319 329 -75 c 0xd8
201 286 m 0xe8
 201 183.918904867 259.071416192 118 349 118 c 0
 470.957857289 118 564 230.948833709 564 379 c 0
 564 482.370286846 504.675690216 550 414 550 c 0
 294.795386359 550 201 433.746563387 201 286 c 0xe8
EndSplineSet
EndChar

StartChar: uni01EB
Encoding: 491 491 585
Width: 576
HStem: -173 76<182.769 303.469> 392 118<225.003 354.8>
VStem: 5 154<131.929 313.752> 97 128<-120.166 -44.7329> 381 155<184.715 365.653>
LayerCount: 2
Fore
SplineSet
225 -75 m 0xd8
 225 -89.9187185593 238.840686452 -97 268 -97 c 0
 281 -97 298 -94 319 -88 c 1
 303 -164 l 1
 282.86809894 -168.793309776 245.007886926 -173 222 -173 c 0
 143.538114352 -173 97 -144.332521559 97 -96 c 0xd8
 97 -61.3506112345 127.55856775 -24.1847855932 171 -6 c 1
 67.2710629299 16.9400533905 5 95.7166992656 5 204 c 0xe8
 5 384.151541731 127.147033026 510 302 510 c 0
 445.832601384 510 536 427.153885887 536 295 c 0
 536 148.257180793 457.223145417 35.063253819 330 -1 c 1
 246.826069624 -39.1621562903 225 -54.5443386918 225 -75 c 0xd8
159 206 m 0xe8
 159 140.116229403 188.900947809 105 245 105 c 0
 326.727468184 105 381 179.624731247 381 292 c 0
 381 359.708187723 352.260287074 392 292 392 c 0
 212.314250663 392 159 317.440220878 159 206 c 0xe8
EndSplineSet
EndChar
